<svg xmlns="http://www.w3.org/2000/svg" width="36.75" height="18.475" viewBox="0 0 36.75 18.475">
  <g id="Group_1367" data-name="Group 1367" transform="translate(-781.429 -724.735)">
    <g id="Group_1364" data-name="Group 1364">
      <path id="Path_2382" data-name="Path 2382" d="M785.511,743.21a4.081,4.081,0,1,1,4.081-4.081A4.086,4.086,0,0,1,785.511,743.21Zm0-7.412a3.331,3.331,0,1,0,3.331,3.331A3.335,3.335,0,0,0,785.511,735.8Z"/>
    </g>
    <g id="Group_1365" data-name="Group 1365">
      <circle id="Ellipse_42" data-name="Ellipse 42" cx="3.706" cy="3.706" r="3.706" transform="translate(810.392 725.111)" fill="#6ac6b7"/>
      <path id="Path_2383" data-name="Path 2383" d="M814.1,732.9a4.082,4.082,0,1,1,4.081-4.081A4.086,4.086,0,0,1,814.1,732.9Zm0-7.413a3.332,3.332,0,1,0,3.331,3.332A3.335,3.335,0,0,0,814.1,725.485Z" fill="#6ac6b7"/>
    </g>
    <g id="Group_1366" data-name="Group 1366">
      <path id="Path_2384" data-name="Path 2384" d="M814.473,743.21H799.391V725.989H785.886V731.3h-.75v-6.059h15.005V742.46h13.582v-4.517h.75Z"/>
    </g>
  </g>
</svg>
