<svg xmlns="http://www.w3.org/2000/svg" width="19.902" height="21.058"><g data-name="P&amp;B ICON" stroke="#000" stroke-linecap="round" stroke-miterlimit="10"><path data-name="Path 283" d="M2.774 10.217h-.4c-.223 0-.357-.267-.357-.579V5.983c0-1.337.669-2.407 1.56-2.407s.758 1.828.758 2.14v2.05c-.001 1.337-.67 2.451-1.561 2.451z" fill="#fff"/><path data-name="Path 284" d="M16.323 9.593a.713.713 0 00.713.624h.535V4.155a2.651 2.651 0 00-2.18-2.719A15.63 15.63 0 009.281.5a10.873 10.873 0 00-5.39 1.649 15.334 15.334 0 01-2.5 1.114A9.413 9.413 0 008.3 6.383a11.819 11.819 0 006.24-1.6c.179-.093 1.471 1.824 1.783 4.81z" fill="#fff"/><path data-name="Path 285" d="M2.862 12.668a1.248 1.248 0 01-1.025.624c-.758 0-1.337-.8-1.337-1.783s.579-1.828 1.337-1.828" fill="none"/><path data-name="Path 286" d="M16.992 10.395a10.074 10.074 0 01.045 1.159c0 4.992-3.165 9-7.087 9-2.674 0-5.037-1.872-6.24-4.725" fill="none"/><path data-name="Path 287" d="M17.661 9.771l.4-.089c.758 0 1.337.8 1.337 1.828a1.961 1.961 0 01-.312 1.159 1.2 1.2 0 01-1.025.624 1.248 1.248 0 01-1.025-.624" fill="none"/></g></svg>