<svg xmlns="http://www.w3.org/2000/svg" width="35.065" height="34.506" viewBox="0 0 35.065 34.506">
  <g id="Group_1431" data-name="Group 1431" transform="translate(-1398.279 -716.8)">
    <g id="Group_1425" data-name="Group 1425">
      <path id="Path_2390" data-name="Path 2390" d="M1410.531,741.324a12.265,12.265,0,1,1,8.544-21.07h0a12.265,12.265,0,0,1-8.348,21.069Zm.008-23.773a11.508,11.508,0,1,0,8.015,3.242A11.479,11.479,0,0,0,1410.539,717.551Z"/>
    </g>
    <g id="Group_1426" data-name="Group 1426">
      <path id="Path_2391" data-name="Path 2391" d="M1429.047,751.307l-11.393-11.048,4.3-4.431,2.335,2.264-.521.539-1.8-1.742-3.252,3.354,10.316,10,3.252-3.355-1.731-1.68.521-.539,2.271,2.2Z"/>
    </g>
    <g id="Group_1427" data-name="Group 1427">
      <path id="Path_2392" data-name="Path 2392" d="M1410.536,739.331a10.274,10.274,0,1,1,7.154-17.649l-.521.539a9.526,9.526,0,1,0,.208,13.47l.539.522A10.251,10.251,0,0,1,1410.536,739.331Z" fill="#6ac6b7"/>
    </g>
    <g id="Group_1428" data-name="Group 1428">
      <path id="Path_2393" data-name="Path 2393" d="M1427.76,745.905l-.539-.521,1.961-2.022.539.521Z"/>
    </g>
    <g id="Group_1429" data-name="Group 1429">
      <path id="Path_2394" data-name="Path 2394" d="M1425.837,744.041l-.539-.521,1.961-2.022.539.521Z"/>
    </g>
    <g id="Group_1430" data-name="Group 1430">
      <path id="Path_2395" data-name="Path 2395" d="M1423.9,742.164l-.539-.521,1.961-2.022.539.521Z"/>
    </g>
  </g>
</svg>
