<svg xmlns="http://www.w3.org/2000/svg" width="31.779" height="30.092" viewBox="0 0 31.779 30.092">
  <g id="Group_1363" data-name="Group 1363" transform="translate(-781.429 -804.354)">
    <g id="Group_1359" data-name="Group 1359" transform="translate(781.498 818.846)">
      <path id="Path_2378" data-name="Path 2378" d="M782.055,835.609l-.55-.414,11.329-15.049,9.441,11.422-.531.439-8.886-10.75Z" transform="translate(-781.504 -820.146)" fill="#6ac6b7"/>
    </g>
    <g id="Group_1360" data-name="Group 1360" transform="translate(799.705 822.227)">
      <path id="Path_2379" data-name="Path 2379" d="M814.378,832.02l-7.734-7.223-4.8,5.053-.5-.475,5.271-5.546,8.232,7.687Z" transform="translate(-801.344 -823.829)" fill="#6ac6b7"/>
    </g>
    <g id="Group_1361" data-name="Group 1361" transform="translate(784.329 807.672)">
      <path id="Path_2380" data-name="Path 2380" d="M788.388,815.569a3.8,3.8,0,1,1,3.8-3.8A3.8,3.8,0,0,1,788.388,815.569Zm0-6.911a3.112,3.112,0,1,0,3.112,3.111A3.115,3.115,0,0,0,788.388,808.657Z" transform="translate(-784.589 -807.969)"/>
    </g>
    <g id="Group_1362" data-name="Group 1362" transform="translate(781.429 804.354)">
      <path id="Path_2381" data-name="Path 2381" d="M799.955,834.446H781.429V804.354l30.089.219v16.486h-.688v-15.8l-28.713-.208v28.71h17.837Z" transform="translate(-781.429 -804.354)"/>
    </g>
  </g>
</svg>
