<svg xmlns="http://www.w3.org/2000/svg" width="106.441" height="103.525" viewBox="0 0 106.441 103.525"><g transform="translate(0 -7.014)"><path d="M100.826,55.248A17.807,17.807,0,0,1,98,59.36H13.6a30.456,30.456,0,0,1-2.712-4.112h89.936m-6.3,8.4a13.6,13.6,0,0,1-4.316,3.791H21.1a23.084,23.084,0,0,1-4.024-3.791H94.527m-9.565,7.786C77.5,77,69.3,79.832,63.091,80.24a45.826,45.826,0,0,1,.642-8.807h21.23M108.7,27.719c.642,6.824-1.575,15.135-5.774,23.534H71.839a38.026,38.026,0,0,1,4.287-5.8c9.04-10.557,22.921-17.118,32.574-17.731M48.393,80.269c-5.978-.408-14.2-3.237-21.726-8.807H48.1a52.431,52.431,0,0,1,.291,8.807m7.465.642a38.254,38.254,0,0,1-6.707-9.449H62.478a42.184,42.184,0,0,1-6.62,9.449M39.994,51.253H8.791c-4.228-8.4-6.3-16.71-5.687-23.534,9.565.612,23.563,7.145,32.6,17.731a51.139,51.139,0,0,1,4.287,5.8m29.308,0H42.386a43.861,43.861,0,0,1-.408-7.465c0-14.727,6.5-29.949,13.852-36.773,7.261,6.824,13.881,22.076,13.881,36.773a73.9,73.9,0,0,1-.408,7.465" transform="translate(-2.375 0)" fill="#2b2e34"/><path d="M491.58,388.138a2.336,2.336,0,0,1,2.3,2.42,2.3,2.3,0,0,1-4.608,0A2.355,2.355,0,0,1,491.58,388.138Zm0,.321a2.042,2.042,0,0,0,0,4.083,2.044,2.044,0,0,0,1.983-1.983A2.069,2.069,0,0,0,491.58,388.459Zm.525,2.129c.117,0,.408.088.408.525v.729H492.1v-.321c0-.525-.117-.758-.408-.758h-.525v1.05h-.408v-2.625h.846a.841.841,0,0,1,.933.758C492.542,390.238,492.309,390.588,492.1,390.588Zm-.933-.962v.729h.408c.2,0,.525-.117.525-.321a.438.438,0,0,0-.408-.408h-.525" transform="translate(-387.559 -301.891)" fill="#2b2e34"/><path d="M441.782,433.764c4.4,0,8.107-1.779,8.107-6.182,0-2.508-1.779-4.2-4.637-4.957-2.945-.729-6.707-.612-6.707-2.508.2-1.254,1.371-1.575,3.15-1.575,2.741,0,2.858,1.458,2.975,2.421h4.491c-.321-3.47-3.149-5.891-7.67-5.891-4.724,0-7.465,2.508-7.465,5.8a4.854,4.854,0,0,0,2.508,4.4,20.2,20.2,0,0,0,4.637,1.283c1.983.2,3.762.408,3.878,1.779,0,.933-.933,2.1-3.062,2.1-3.062,0-3.675-1.691-3.675-2.829h-4.724c.117,3.616,3.149,6.153,8.195,6.153" transform="translate(-343.447 -323.225)" fill="#2b2e34"/><path d="M341.927,433.764a9.872,9.872,0,0,0,5.278-1.575v1.166h4.52v-18.08h-4.549v1.371a8.834,8.834,0,0,0-5.278-1.575,9.409,9.409,0,0,0-9.449,9.361A9.5,9.5,0,0,0,341.927,433.764Zm-5.016-9.361a5.348,5.348,0,0,1,5.249-5.278,5.223,5.223,0,0,1,0,10.44,5.326,5.326,0,0,1-5.249-5.162" transform="translate(-263.335 -323.225)" fill="#2b2e34"/><path d="M248.143,386.063v7.553a9.429,9.429,0,0,0-5.366-1.575,9.346,9.346,0,1,0,0,18.693,10.257,10.257,0,0,0,5.366-1.575v1.167h4.4V386.034h-4.4ZM237.761,401.4a5.206,5.206,0,1,1,5.132,5.162,5.327,5.327,0,0,1-5.132-5.162" transform="translate(-184.89 -300.224)" fill="#2b2e34"/><path d="M203.257,410.437h4.4v-18.08h-4.4Zm0-19.743h4.4v-4.52h-4.4v4.52" transform="translate(-161.001 -300.335)" fill="#2b2e34"/><path d="M109.043,410.874a10.589,10.589,0,0,0,5.366-1.575v1.166h4.52V386.174h-4.52v7.553a9.422,9.422,0,1,0-5.366,17.147Zm-5.162-9.361a5.265,5.265,0,1,1,5.366,5.162,5.371,5.371,0,0,1-5.366-5.162" transform="translate(-78.89 -300.335)" fill="#2b2e34"/><path d="M9.332,433.764a10.491,10.491,0,0,0,5.453-1.575v1.166h4.4v-18.08h-4.4v1.371a9.781,9.781,0,0,0-5.453-1.575,9.346,9.346,0,0,0,0,18.693ZM4.287,424.4a5.332,5.332,0,0,1,5.162-5.278,5.222,5.222,0,1,1,0,10.44A5.329,5.329,0,0,1,4.287,424.4" transform="translate(0 -323.225)" fill="#2b2e34"/></g></svg>