<svg xmlns="http://www.w3.org/2000/svg" width="118.545" height="115.648" viewBox="0 0 118.545 115.648"><g transform="translate(-55.043 -76.445)"><path d="M373.781,365.392a.388.388,0,0,1,.284-.06A.246.246,0,0,1,373.781,365.392Z" transform="translate(-277.432 -251.449)" fill="#2b2e34"/><path d="M373.128,352c-.088.1-.2.077-.314.069A.3.3,0,0,1,373.128,352Z" transform="translate(-276.59 -239.831)" fill="#2b2e34"/><g transform="translate(79.507 162.059)"><path d="M247.139,737.084c-1.08.808-4.4,3.62-2.973,6.706,1.693,3.671,8.694,3.9,9.084,3.9a27.6,27.6,0,0,0,7.381-.526,25.828,25.828,0,0,1-8.1-4.89C249.31,739.506,249.632,739.365,247.139,737.084Z" transform="translate(-243.816 -737.084)" fill="#2b2e34"/></g><path d="M233.328,772.532a.174.174,0,0,0-.034.211A.161.161,0,0,0,233.328,772.532Z" transform="translate(-155.133 -605.879)" fill="#2b2e34"/><path d="M350.646,376.522a.221.221,0,0,1,.062-.06A.058.058,0,0,1,350.646,376.522Z" transform="translate(-257.295 -261.137)" fill="#2b2e34"/><path d="M351.439,375.722a.2.2,0,0,1,.072-.065Z" transform="translate(-257.985 -260.436)" fill="#2b2e34"/><path d="M352.227,374.958l.089-.077A.092.092,0,0,1,352.227,374.958Z" transform="translate(-258.671 -259.761)" fill="#2b2e34"/><g transform="translate(55.043 76.445)"><path d="M304.833,186.067c-.024.081.012.189-.1.228h0C304.844,186.256,304.809,186.148,304.833,186.067Z" transform="translate(-272.379 -171.861)" fill="#2b2e34"/><path d="M89.876,87.44l-1.648,0h-.016c-.313-.019-.634-.022-.935-.022h-.594c-.369,0-.768,0-1.177-.032a.89.89,0,0,1-.627-.273.867.867,0,0,1-.18-.657A5.584,5.584,0,0,1,86.764,82.4a5.252,5.252,0,0,1,2.526-1.161A13.295,13.295,0,0,0,67.51,83.166a10.081,10.081,0,1,0-2.386,19.876H79.067A13.3,13.3,0,0,0,92.127,87.23a4.1,4.1,0,0,1-1.291.207C90.517,87.439,90.2,87.44,89.876,87.44Zm-3.515,8.231c-.06.17-.2.157-.342.137a1.751,1.751,0,0,1-1.059-.579c-.1-.11-.141-.277-.3-.337a1.929,1.929,0,0,1-3.264.085,5.668,5.668,0,0,1-1.436.75,2.236,2.236,0,0,1-2.614-.779c-.167-.206-.263-.231-.425-.038a3.318,3.318,0,0,1-.7.594,1.669,1.669,0,0,1-2.543-.417.534.534,0,0,0-.111-.1c-1.109,1.245-2.6,1.331-3.325.147a2.753,2.753,0,0,1-1.843.893,1.98,1.98,0,0,1-1.629-1.081c-.227.076-.334.264-.482.4a3.019,3.019,0,0,1-.923.642,1.2,1.2,0,0,1-1.578-.449c-.061-.082-.116-.167-.187-.269-.163.065-.2.227-.291.337A1.287,1.287,0,0,1,61,95.34a2.622,2.622,0,0,1-.246-.887,5.435,5.435,0,0,1,.475-2.855,2.645,2.645,0,0,1,.891-1.107,1.165,1.165,0,0,1,1.93.581c.089.228.2.344.445.3a.262.262,0,0,1,.051,0c.484.014.484.014.349.509-.167.611-.33,1.223-.5,1.833a1.658,1.658,0,0,0-.07.507.507.507,0,0,0,.807.478,3.627,3.627,0,0,0,.854-.732,1.891,1.891,0,0,0,.534-1.323,11.3,11.3,0,0,1,1.881-5.9,3.209,3.209,0,0,1,.9-.908.86.86,0,0,1,1.423.708,3.464,3.464,0,0,1-.184,1.367,20.385,20.385,0,0,1-2.654,5.594c-.179.255-.3.479-.094.785a.807.807,0,0,0,.824.4,1.372,1.372,0,0,0,.943-.565,3.205,3.205,0,0,0,.554-1.15c.111-.4.219-.792.335-1.186.186-.627.153-.528.684-.539a2.669,2.669,0,0,1,.722.019c.09.138,0,.262-.034.385q-.25.837-.512,1.67a2.03,2.03,0,0,0-.083.762.533.533,0,0,0,.648.551,1.275,1.275,0,0,0,.893-.548,4.611,4.611,0,0,0,.714-1.416q.192-.558.349-1.128a.412.412,0,0,1,.473-.36c.2.013.411-.013.616-.011.335,0,.368.039.271.354-.2.672-.422,1.339-.634,2.008a2.528,2.528,0,0,0-.087.3.589.589,0,0,0,.711.737A1.024,1.024,0,0,0,75.6,94.4a6.277,6.277,0,0,0,1.2-1.122c.155-.174.092-.393.106-.592a11.285,11.285,0,0,1,1.71-5.377,5.631,5.631,0,0,1,1.142-1.315,1.491,1.491,0,0,1,1.021-.419.843.843,0,0,1,.846.619,1.8,1.8,0,0,1,.052.812,8.159,8.159,0,0,1-.726,2.241,17.418,17.418,0,0,1-2.466,4.077.647.647,0,0,0,.178,1.09.777.777,0,0,0,.386.13,2.586,2.586,0,0,0,1.875-.7.729.729,0,0,0,.17-.573,4.148,4.148,0,0,1,.441-1.678,2.863,2.863,0,0,1,1.522-1.528,1.659,1.659,0,0,1,2.31.866.305.305,0,0,0,.353.221c.254-.009.509,0,.776,0a1.269,1.269,0,0,1-.142.626c-.2.566-.4,1.129-.6,1.694-.267.752.028,1.114.826,1.018a.136.136,0,0,1,.167.077A7.577,7.577,0,0,1,86.361,95.672Zm1.257-4.408a.854.854,0,0,1-.822-.874.735.735,0,0,1,.774-.721.881.881,0,0,1,.822.884A.715.715,0,0,1,87.618,91.264Z" transform="translate(-55.043 -76.445)" fill="#2b2e34"/><path d="M305.625,182.268a.153.153,0,0,1,.1.044.153.153,0,0,0-.1-.044c-.069,0-.125.015-.147.068C305.5,182.283,305.557,182.267,305.625,182.268Z" transform="translate(-273.024 -168.554)" fill="#2b2e34"/><path d="M152.144,195.481h0l-.014.013.014-.013v0h0Z" transform="translate(-139.548 -180.051)" fill="#2b2e34"/><path d="M266.383,190.323a1.275,1.275,0,0,0-.619.435,3.278,3.278,0,0,0-.672,1.742,1.466,1.466,0,0,0,.085.606.643.643,0,0,0,.971.417,1.4,1.4,0,0,0,.542-.458,4.7,4.7,0,0,0,.8-1.76A.862.862,0,0,0,266.383,190.323Z" transform="translate(-237.867 -175.529)" fill="#2b2e34"/><path d="M107.174,192.761a1.357,1.357,0,0,0-.318.4,3.7,3.7,0,0,0-.481,1.712,1.78,1.78,0,0,0,0,.205c.04.337.03.713.432.853.275.1.578-.118.826-.564a6.366,6.366,0,0,0,.581-1.693,1.015,1.015,0,0,0-.112-.738A.543.543,0,0,0,107.174,192.761Z" transform="translate(-99.72 -177.523)" fill="#2b2e34"/><path d="M233.715,162.979a15.016,15.016,0,0,0,2.325-4.629C235.119,158.829,234.062,160.963,233.715,162.979Z" transform="translate(-210.56 -147.736)" fill="#2b2e34"/><path d="M153.686,159.441q-.219.363-.4.739a11.506,11.506,0,0,0-1.04,3.446,20.877,20.877,0,0,0,2.082-4.742A1.212,1.212,0,0,0,153.686,159.441Z" transform="translate(-139.646 -148.2)" fill="#2b2e34"/><path d="M152.225,195.48l0,0h0Z" transform="translate(-139.629 -180.054)" fill="#2b2e34"/><path d="M152.24,172.335h0a11.506,11.506,0,0,1,1.04-3.446A11.517,11.517,0,0,0,152.24,172.335Z" transform="translate(-139.644 -156.909)" fill="#2b2e34"/><path d="M152.142,195.506l-.012.013.014-.013Z" transform="translate(-139.548 -180.076)" fill="#2b2e34"/><path d="M302.182,180.84a.114.114,0,0,0-.051.069c-.024.081.012.189-.1.228h0a1.313,1.313,0,0,1-.153-.541.338.338,0,0,1,.023-.118.263.263,0,0,1,.108-.125.767.767,0,0,1,.379-.084c.051,0,.067-.008.047-.058-.348-.126-.539-.088-.7.141a.606.606,0,0,0,.054.755c.185.225.346.252.713.107C302.388,181.093,302.353,180.911,302.182,180.84Z" transform="translate(-269.677 -166.703)" fill="#2b2e34"/><path d="M303.706,184.2a1.313,1.313,0,0,1-.153-.541,1.313,1.313,0,0,0,.153.541Z" transform="translate(-271.348 -169.763)" fill="#2b2e34"/><path d="M308.678,182.663c.205-.208.147-.414-.022-.705C308.656,182.245,308.322,182.441,308.678,182.663Z" transform="translate(-275.666 -168.284)" fill="#2b2e34"/><path d="M305.557,182.268c-.069,0-.125.015-.147.068a.157.157,0,0,0-.01.067.1.1,0,0,0,.09.1.156.156,0,0,0,.19-.114.086.086,0,0,0,0-.047.085.085,0,0,0-.017-.028A.153.153,0,0,0,305.557,182.268Z" transform="translate(-272.955 -168.554)" fill="#2b2e34"/><path d="M287.854,121.708c-.018.25.042.355.325.375.924.064,1.849,0,2.7.052.91,0,1.749,0,2.588,0a3.534,3.534,0,0,0,1.188-.2,2.769,2.769,0,0,0,1.652-1.67.537.537,0,0,1,.362-.317,2.464,2.464,0,0,0,1.449-1.57,4.053,4.053,0,0,0,.186-.9c.051-.437-.007-.5-.463-.511-1.678-.026-3.357-.057-5.035-.061a4.932,4.932,0,0,0-.5.025,4.724,4.724,0,0,0-2.573,1.089A5.071,5.071,0,0,0,287.854,121.708Z" transform="translate(-257.681 -111.66)" fill="#2b2e34"/></g><path d="M524.258,849.39c-.377.03-.739.125-1.109.189-.189.033-.264.126-.223.319q.333,1.577.659,3.155c.042.206.141.292.357.241.266-.062.535-.109.8-.164a1.426,1.426,0,0,0,1.233-1.573,3.649,3.649,0,0,0-.351-1.371A1.348,1.348,0,0,0,524.258,849.39Z" transform="translate(-407.24 -672.772)" fill="#2b2e34"/><path d="M575.629,840.848c-.306.025-.609.084-.915.124-.254.033-.344.168-.3.423.088.54.159,1.082.242,1.623.075.49.162.978.236,1.468.032.213.139.294.35.257s.4-.067.608-.091a1.46,1.46,0,0,0,1.461-1.634,3.059,3.059,0,0,0-.28-1.346A1.312,1.312,0,0,0,575.629,840.848Z" transform="translate(-452.054 -665.336)" fill="#2b2e34"/><path d="M712.957,831.424a3.515,3.515,0,0,0-.862-.079c-.2,0-.409,0-.613,0-.18,0-.3.056-.3.253q-.016.562-.028,1.123c0,.116.055.21.172.215a4.928,4.928,0,0,0,1.673-.045.7.7,0,0,0,.492-.75A.676.676,0,0,0,712.957,831.424Z" transform="translate(-571.08 -657.07)" fill="#2b2e34"/><g transform="translate(72.899 95.752)"><path d="M648.888,688.511c-.334.025-.4.11-.4.465-.007.753,0,1.506,0,2.26,0,.445,0,.89,0,1.335,0,.462,0,.922.045,1.385a.641.641,0,0,0,.512.615,2.961,2.961,0,0,0,1.272.074,2.342,2.342,0,0,0,2.34-2.11,4.463,4.463,0,0,0,.011-1.433,2.845,2.845,0,0,0-1.533-2.183A4.1,4.1,0,0,0,648.888,688.511Z" transform="translate(-589.432 -628.485)" fill="#2b2e34"/><path d="M705.833,691.763c-.1-.01-.21-.016-.232.121a.132.132,0,0,0,.138.165c.1.008.2.005.237-.112A.143.143,0,0,0,705.833,691.763Z" transform="translate(-639.147 -631.325)" fill="#2b2e34"/><path d="M538.027,688.092a2.382,2.382,0,0,0-3.8,1.393,4.458,4.458,0,0,0,.1,2.333,2.766,2.766,0,0,0,2,2.018,2.149,2.149,0,0,0,2.852-1.6,6.065,6.065,0,0,0,.161-1.217,3.516,3.516,0,0,0-.113-1.019A3.02,3.02,0,0,0,538.027,688.092Z" transform="translate(-489.892 -627.722)" fill="#2b2e34"/><path d="M203.133,290.667l.505.472-.557.361-.014.009a48.515,48.515,0,0,0,13.794,10.22c.562-.083,1.13-.178,1.7-.287s3.186-.649,3.262-.67c2.956-.8,6.142-1.488,10.33-2.235,2.284-.407,4.668-.763,7.289-1.086,1.926-.238,3.959-.454,6.4-.68,1-.093,2.016-.154,2.888-.2,2.789-.16,5.349-.238,7.826-.238q.625,0,1.25.007c2.317.026,4.642.136,6.913.327a69.8,69.8,0,0,1,10.573,1.667c11.138-7.554,18.232-18.959,18.232-31.72,0-22.746-22.54-41.185-50.345-41.185s-50.344,18.439-50.344,41.185a36.169,36.169,0,0,0,9.247,23.794.805.805,0,0,1,.374-.1A.992.992,0,0,1,203.133,290.667Zm40.539-1.939a3.844,3.844,0,0,1-4.391,3.423,4.391,4.391,0,0,1-1.4-.306,3.613,3.613,0,0,1,.235-6.764,5.14,5.14,0,0,1,1.614-.258,5.469,5.469,0,0,1,1.664.268A3.266,3.266,0,0,1,243.672,288.728Zm5.743,2.1c-.021.222-.03.445-.068.664-.084.491-.136.538-.633.538-.685,0-1.37-.018-2.055-.022-.582,0-1.165,0-1.747,0a.852.852,0,0,1-.434-.051c.033-.063.042-.109.063-.115.616-.17.624-.169.666-.81.114-1.711.047-3.425.051-5.137,0-.53-.094-.609-.606-.713-.1-.02-.21-.007-.264-.121a.352.352,0,0,1,.375-.108c.873.124,1.757-.025,2.671.038-.125.215-.278.172-.4.2-.378.076-.415.106-.476.487a2.631,2.631,0,0,0-.029.409q-.006,2.081-.006,4.163a2.809,2.809,0,0,0,.008.308c.083.748.1.827.938.927a4.246,4.246,0,0,0,.719,0,.933.933,0,0,0,.994-.719c.02-.083.037-.195.139-.184C249.46,290.6,249.424,290.725,249.415,290.825Zm10.06-3.151a1.252,1.252,0,0,1-1.251-1.333,1.305,1.305,0,0,1,1.246-1.3,1.317,1.317,0,0,1,.005,2.634Zm-1.23-28.923a23.463,23.463,0,0,1,2.131-4.3,20.83,20.83,0,0,1,1.806-2.735,32.834,32.834,0,0,1,4.06-4.565,27.608,27.608,0,0,1,7.478-5.014c.14-.062.29-.1.434-.158a.415.415,0,0,1,.55.125.55.55,0,0,1,.009.63,1.25,1.25,0,0,1-.419.372c-.671.444-1.368.848-2.018,1.326a26.672,26.672,0,0,0-5.794,5.79,28.028,28.028,0,0,0-5.4,15.331,24.435,24.435,0,0,0,.009,2.923,20.947,20.947,0,0,0,.284,2.29,12.654,12.654,0,0,0,.3,1.619,11.887,11.887,0,0,0,3.939,6.291,5.984,5.984,0,0,0,8.024-.943,9.291,9.291,0,0,0,1.886-4.328,14.069,14.069,0,0,0,.188-3.224,12.362,12.362,0,0,0-2.574-7.391,6.243,6.243,0,0,0-3.664-2.4,7.777,7.777,0,0,0-2.15-.026,6.982,6.982,0,0,0-2.222.6,1.583,1.583,0,0,1-.24.09c-.157.04-.334.18-.47-.008a.539.539,0,0,1,0-.628,1.355,1.355,0,0,1,.411-.383,9.207,9.207,0,0,1,5.2-1.675,9.11,9.11,0,0,1,2.743.309,8.375,8.375,0,0,1,5.061,3.9,12.188,12.188,0,0,1,1.638,6.183,16.689,16.689,0,0,1-1.262,6.663A10.582,10.582,0,0,1,274.425,280a9.928,9.928,0,0,1-5.105,1.751,11.725,11.725,0,0,1-5.566-.865,8.981,8.981,0,0,1-3.423-2.463,11.844,11.844,0,0,1-2.427-3.887,19.914,19.914,0,0,1-1.229-5.484A23.005,23.005,0,0,1,258.246,258.751Zm-2.692,32.825a5.014,5.014,0,0,1-2.692.511,26.623,26.623,0,0,0-2.667-.081c-.106,0-.244.055-.3-.092a.117.117,0,0,1,.1-.1c.553-.112.619-.156.627-.731.023-1.506.021-3.013.027-4.519,0-.257,0-.514-.01-.77-.023-.449-.1-.524-.532-.607-.114-.021-.243.01-.348-.1.014-.125.117-.144.211-.139,1.486.09,2.979-.132,4.461.087a3.474,3.474,0,0,1,2.053.963A3.613,3.613,0,0,1,255.554,291.576Zm-23-48.309a16.96,16.96,0,0,1,3.665-1.134,24.819,24.819,0,0,1,6.124-.538,13.409,13.409,0,0,1,5.148,1.059,9.6,9.6,0,0,1,5.908,7.491,13.741,13.741,0,0,1-.489,6.3,24.344,24.344,0,0,1-3.96,7.739A53.75,53.75,0,0,1,241.4,272.3c-.69.617-1.39,1.223-2.086,1.833a7.546,7.546,0,0,1-.643.507c-.256.179-.482.4-.721.6l-.012.01.012-.01a.088.088,0,0,1-.09.078l-.028.023a.058.058,0,0,1-.066.062.144.144,0,0,1,.028-.036.144.144,0,0,0-.028.036,5.492,5.492,0,0,1-.827.665,18.114,18.114,0,0,1-1.4,1.192,1.944,1.944,0,0,0-.16.127c-.1.105-.305.168-.235.346.059.15.244.077.371.078,1.605,0,3.21,0,4.816,0,.2,0,.409.011.614.017,1.713-.04,3.426-.063,5.138-.125a17.99,17.99,0,0,0,3.822-.412,5.5,5.5,0,0,0,4.225-4.119c.059-.215.113-.43.177-.644a1.219,1.219,0,0,1,.225-.459c.243-.282.552-.226.658.13a2.324,2.324,0,0,1,0,1.069c-.3,1.775-.763,3.513-1.233,5.248-.081.3-.174.592-.25.891a1.857,1.857,0,0,1-1.808,1.479c-.222.02-.445.03-.668.03q-7.174,0-14.348,0c-.085,0-.171-.01-.256-.016-1.062.006-2.124.014-3.186.017-.943,0-1.885,0-2.827,0-.12,0-.241.006-.36,0a.7.7,0,0,1-.557-1.117,3.221,3.221,0,0,1,.629-.675q2.5-2.215,5.007-4.422a14.051,14.051,0,0,1,1.318-1.14h0l2.231-2.125a48.486,48.486,0,0,0,5.42-5.962,23.859,23.859,0,0,0,3.9-7.36,17.358,17.358,0,0,0,.752-6.033,10.271,10.271,0,0,0-1.289-4.71,7.619,7.619,0,0,0-5.241-3.71,10.383,10.383,0,0,0-5.644.44,2.364,2.364,0,0,0-.353.192,15.224,15.224,0,0,0-1.557,1.163,5.985,5.985,0,0,0-1.738,3.74c-.052.407-.06.819-.089,1.229,0,.051,0,.1-.01.154-.046.328-.264.584-.488.576s-.4-.218-.43-.563c-.074-.835-.155-1.671-.182-2.508-.04-1.215-.149-2.427-.141-3.644C231.8,243.75,231.93,243.538,232.558,243.267Zm-3.885,17.392c.29.014.582,0,.872,0q2.566-.005,5.133-.009c.486,0,.488,0,.493.473,0,.274,0,.548,0,.821,0,.512,0,.515-.5.516-.975,0-1.95,0-2.926,0v.01c-1.009,0-2.019,0-3.028,0-.373,0-.379-.011-.388-.368s.007-.719-.008-1.078C228.311,260.764,228.4,260.645,228.673,260.658Zm2.522,24.173a12.6,12.6,0,0,1,2.91.237c.255.039.34.14.311.408-.046.425-.041.855-.061,1.282,0,.088-.034.172-.144.172-.085,0-.118-.07-.129-.136-.153-.913-.868-1.17-1.618-1.353a3.532,3.532,0,0,0-1.58-.022,2.16,2.16,0,0,0-1.747,1.488,3.838,3.838,0,0,0,.2,3,2.959,2.959,0,0,0,2.724,1.706,4.643,4.643,0,0,0,.668-.015c.35-.039.42-.125.425-.509q.01-.848-.005-1.7c-.01-.536-.086-.61-.62-.668a.293.293,0,0,1-.264-.112,12.333,12.333,0,0,1,2.883-.028c.015.125-.081.122-.161.141-.44.1-.51.176-.517.617-.01.634,0,1.268,0,1.9,0,.448-.022.487-.451.622a6.2,6.2,0,0,1-4.326-.136,3.23,3.23,0,0,1-2.122-3A3.616,3.616,0,0,1,231.195,284.831Zm-23.6-10.1c.049-.631.018-1.267.117-1.9a2.29,2.29,0,0,1,.071-.35.306.306,0,0,1,.347-.238.281.281,0,0,1,.262.271,4.3,4.3,0,0,1,.033.562,7.654,7.654,0,0,0,.822,3.617,5.632,5.632,0,0,0,3.761,2.863c.4.1.8.169,1.2.252h0a.29.29,0,0,1,.319.05l-.063.009.063-.009a.122.122,0,0,1,.087.014l1.63-.012.055,0-.055,0a.557.557,0,0,1,.424-.072h0l.3-.029a.086.086,0,0,1,.111-.049h0l.211-.036h0c.469-.205.972-.319,1.433-.554a6.424,6.424,0,0,0,3.616-5.259,8.138,8.138,0,0,0-2.131-6.569,33.329,33.329,0,0,0-3.088-3c-.089-.078-.165-.172-.247-.258-1.008-.829-2-1.678-2.942-2.581a15.186,15.186,0,0,1-4.923-7.063,11.072,11.072,0,0,1,.186-7.065,7.713,7.713,0,0,1,3.54-4.235,8.207,8.207,0,0,1,1.051-.515,5.115,5.115,0,0,1,1.879-.57c.17-.013.309-.148.486-.1.111.008.226.029.314-.069l.514-.049c.029-.017.058-.048.088-.05a26.722,26.722,0,0,1,3.489.019,31.4,31.4,0,0,1,3.23.548,10.33,10.33,0,0,0,1.072.106.338.338,0,0,1,.355.4c-.028.461-.08.921-.093,1.382-.041,1.455-.146,2.908-.113,4.365a1.311,1.311,0,0,1-.092.6c-.062.131-.142.245-.3.234a.336.336,0,0,1-.315-.227,2.021,2.021,0,0,1-.105-.447,10.268,10.268,0,0,0-.361-1.757,4.22,4.22,0,0,0-2.718-2.8,9.171,9.171,0,0,0-3.67-.615c-.188,0-.376-.005-.564-.008l-.319.013a.388.388,0,0,0-.284.06,7.4,7.4,0,0,0-2.471.991h0a.466.466,0,0,1-.233.185l-.089.077-.03.023a.2.2,0,0,0-.072.065.047.047,0,0,1-.041.039.219.219,0,0,0-.062.06.053.053,0,0,1-.043.043h0a.055.055,0,0,1-.06.06.223.223,0,0,1,.03-.03.223.223,0,0,0-.03.03.054.054,0,0,1-.044.043.232.232,0,0,0-.059.059.232.232,0,0,1,.059-.059.055.055,0,0,1-.059.059.054.054,0,0,1-.044.044.062.062,0,0,1-.061.065h0a.036.036,0,0,1-.031.037l-.037.042-.033.037.033-.037-.033.037a6.809,6.809,0,0,0-.816,6.7,7.26,7.26,0,0,0,1.4,2.188c.218.259.446.51.669.765a1.555,1.555,0,0,1,.2.149,33.866,33.866,0,0,0,2.523,2.29c.091.075.167.167.25.251-.022.378-.059.754-.086,1.132.026-.377.064-.754.086-1.132a9.872,9.872,0,0,1,1.2.95,37.871,37.871,0,0,1,4.355,3.976,12.807,12.807,0,0,1,2.7,4.206,11.524,11.524,0,0,1,.6,5.348,10.846,10.846,0,0,1-1.646,4.647,9.8,9.8,0,0,1-5.144,4.044,8.353,8.353,0,0,1-1.775.48,14.336,14.336,0,0,1-3.621.327,1.138,1.138,0,0,1-.595-.086,10.68,10.68,0,0,1-5.01-1.3,1.147,1.147,0,0,1-.657-1.074C207.5,277.809,207.477,276.269,207.6,274.732Z" transform="translate(-192.827 -225.424)" fill="#2b2e34"/><path d="M700.78,687.732a1.024,1.024,0,0,0-.021,2.044,1.023,1.023,0,0,0,.021-2.044Zm.508,1.5c-.019.1.014.217-.129.232s-.172-.079-.191-.188a1.721,1.721,0,0,0-.049-.25.2.2,0,0,0-.237-.147c-.107.013-.126.1-.132.185a.4.4,0,0,1,0,.051c-.027.133.061.359-.176.34-.18-.014-.121-.214-.125-.34-.008-.256-.009-.512,0-.767.01-.357.068-.408.424-.4.514.007.69.2.558.692C701.165,688.859,701.327,689.025,701.287,689.23Z" transform="translate(-634.109 -627.821)" fill="#2b2e34"/><path d="M373.9,644.961a.268.268,0,0,0,.081-.057.557.557,0,0,0-.424.071l.055,0a1.379,1.379,0,0,0,.165.01A.314.314,0,0,0,373.9,644.961Z" transform="translate(-350.139 -590.536)" fill="#2b2e34"/><path d="M373.987,645.541a1.343,1.343,0,0,0,.165.01A1.38,1.38,0,0,1,373.987,645.541Z" transform="translate(-350.51 -591.097)" fill="#2b2e34"/><path d="M376.29,644.961h0a.269.269,0,0,1-.081.057A.269.269,0,0,0,376.29,644.961Z" transform="translate(-352.444 -590.592)" fill="#2b2e34"/><path d="M357.916,644.984a.282.282,0,0,0,.135.026c.021,0,.041,0,.062-.005l.063-.009a.29.29,0,0,0-.319-.05.249.249,0,0,0,.046.033Z" transform="translate(-336.47 -590.556)" fill="#2b2e34"/><path d="M357.9,645.148a.249.249,0,0,1-.046-.033h0A.249.249,0,0,0,357.9,645.148Z" transform="translate(-336.47 -590.726)" fill="#2b2e34"/><path d="M358.444,645.44a.282.282,0,0,1-.135-.026A.282.282,0,0,0,358.444,645.44Z" transform="translate(-336.864 -590.987)" fill="#2b2e34"/><path d="M358.223,645.377l-.013-.005Z" transform="translate(-336.778 -590.95)" fill="#2b2e34"/><path d="M379.136,644.367l.111-.049A.086.086,0,0,0,379.136,644.367Z" transform="translate(-354.992 -590.027)" fill="#2b2e34"/><path d="M379.247,644.358h0l-.111.049h0Z" transform="translate(-354.992 -590.067)" fill="#2b2e34"/><path d="M539.636,610.682a.058.058,0,0,0,.066-.062.141.141,0,0,0-.066.062Z" transform="translate(-494.692 -560.702)" fill="#2b2e34"/><path d="M539.85,610.646a.141.141,0,0,1,.038-.025h0A.144.144,0,0,0,539.85,610.646Z" transform="translate(-494.878 -560.702)" fill="#2b2e34"/><path d="M348.315,378.848a.219.219,0,0,0-.061.065A.062.062,0,0,0,348.315,378.848Z" transform="translate(-328.112 -358.965)" fill="#2b2e34"/><path d="M348.254,378.913a.219.219,0,0,1,.061-.065.219.219,0,0,0-.061.065Z" transform="translate(-328.112 -358.965)" fill="#2b2e34"/><path d="M349.117,378.053a.232.232,0,0,0-.059.059A.055.055,0,0,0,349.117,378.053Z" transform="translate(-328.812 -358.273)" fill="#2b2e34"/><path d="M349.853,377.318a.055.055,0,0,0,.06-.06.224.224,0,0,0-.03.03A.227.227,0,0,0,349.853,377.318Z" transform="translate(-329.504 -357.581)" fill="#2b2e34"/><path d="M350.084,377.288a.225.225,0,0,1,.03-.03h0A.225.225,0,0,0,350.084,377.288Z" transform="translate(-329.705 -357.581)" fill="#2b2e34"/><path d="M540.447,609.846l-.012.01-.078.068A.088.088,0,0,0,540.447,609.846Z" transform="translate(-495.32 -560.028)" fill="#2b2e34"/><path d="M540.357,609.992l.078-.068-.078.068Z" transform="translate(-495.32 -560.096)" fill="#2b2e34"/><path d="M265.19,727.266l.557-.361-.505-.472a.991.991,0,0,0-.686-.363.805.805,0,0,0-.374.1q.486.56.993,1.106Z" transform="translate(-254.935 -661.19)" fill="#2b2e34"/></g><path d="M319.67,746.362a3.619,3.619,0,0,0,.4-1.144c.3-1.011.577-2.031.88-3.042.072-.242-.019-.312-.224-.338a37.368,37.368,0,0,0-4.947-2.134,64.3,64.3,0,0,0-16-3.277q-3.43-.289-6.875-.325c-3.017-.033-6.029.058-9.04.231-.957.055-1.915.114-2.87.2-2.13.2-4.259.416-6.382.678-2.43.3-4.852.652-7.261,1.082-3.455.616-6.9,1.309-10.285,2.225-.261.071-3.856.694-4.463.811a42.267,42.267,0,0,1-8.614.777s-7.671-.1-9.564-4.206,3.486-7.589,3.486-7.589c-.32-.3-.326-.317-.689-.079A10.207,10.207,0,0,0,234,733.365a4.751,4.751,0,0,0-.776,2.208.161.161,0,0,1-.034.211q0,.566,0,1.133c-.011.17-.03.34-.031.51q0,2.722,0,5.445c0,1.54,0,3.08.113,4.617a.521.521,0,0,0,.084.34q0,.1.008.2c.093.065.1.133.008.205l.051.505a2.143,2.143,0,0,1,.3.861,12.1,12.1,0,0,0,1.944,3.933,9.241,9.241,0,0,0,3.074,2.588q.191.1.383.2.385.2.777.37-.392-.174-.777-.37-.192-.1-.383-.2a9.242,9.242,0,0,1-3.074-2.588,12.1,12.1,0,0,1-1.944-3.933,2.139,2.139,0,0,0-.3-.861,11.544,11.544,0,0,0,.314,2.773c.024.169.035.342.075.508a10.286,10.286,0,0,0,6.083,7.412,18.839,18.839,0,0,0,6.573,1.519,38.926,38.926,0,0,0,8.907-.523c1.6-.276,3.179-.685,4.761-1.06,2.432-.575,4.864-1.149,7.308-1.673q4.242-.91,8.52-1.631c2.177-.369,4.359-.7,6.553-.959q2.55-.3,5.108-.527,2.919-.26,5.844-.356c2.107-.068,4.213.012,6.318.151a70.04,70.04,0,0,1,7.794.948,61.619,61.619,0,0,1,12.391,3.467.3.3,0,0,0,.33.01c-.117-.513-.084-1.065-.257-1.591.091-.3-.085-.571-.086-.861a.925.925,0,0,0,.006-.153c-.256-2-.5-3.993-.777-5.986a4.885,4.885,0,0,1,.152-2.618,3.562,3.562,0,0,0,.128-.495c-.009-.109-.021-.219.084-.3l.011-.028a.316.316,0,0,1,.076-.282l.033-.123a3.126,3.126,0,0,1,.19-1.015A3.126,3.126,0,0,0,319.67,746.362Zm-58.338,1.45a3.451,3.451,0,0,1-.735.218c-.823.208-.793.063-.589.913q.371,1.547.749,3.092a2.99,2.99,0,0,1,.068.3c.068.513-.137.784-.677.9a.662.662,0,0,1-.863-.572c-.284-1.181-.552-2.365-.829-3.548-.128-.548-.13-.542-.675-.42a3.085,3.085,0,0,1-.958.158.5.5,0,0,1-.514-.525c-.007-.3.152-.5.519-.609.411-.118.829-.211,1.245-.31q1.3-.309,2.6-.611a.972.972,0,0,1,.5-.051.563.563,0,0,1,.473.476A.533.533,0,0,1,261.332,747.811Zm4.886,4.066a4.226,4.226,0,0,1-.867.073,2.479,2.479,0,0,1-2.339-1.308,3.827,3.827,0,0,1-.569-2.6,2.6,2.6,0,0,1,1.584-2.063,3.662,3.662,0,0,1,1.843-.359,2.976,2.976,0,0,1,2.761,2.829A2.892,2.892,0,0,1,266.218,751.878Zm7.249-1.688a12.5,12.5,0,0,1-2.459.506c-.6.084-.812-.081-.94-.678q-.452-2.108-.873-4.222c-.119-.6.062-.883.653-1a16.161,16.161,0,0,1,2.377-.4,2.422,2.422,0,0,1,2.5,1.352,4.53,4.53,0,0,1,.478,1.814A2.579,2.579,0,0,1,273.467,750.189Zm6.184-.976a20,20,0,0,1-2.179.341c-.611.071-.858-.126-.955-.732q-.337-2.129-.641-4.262c-.088-.627.09-.855.706-.955.776-.126,1.551-.263,2.154-.3a2.51,2.51,0,0,1,2.754,1.857,4.5,4.5,0,0,1,.222,1.414A2.534,2.534,0,0,1,279.651,749.213Zm7.419-.885a.909.909,0,0,1-.291.094c-.986.1-1.972.2-2.958.3-.542.011-.81-.2-.863-.728q-.226-2.27-.435-4.543a.675.675,0,0,1,.612-.839.713.713,0,0,1,.815.72c.08.748.145,1.5.215,2.246.044.477.081.954.129,1.43.043.421.079.455.516.423.563-.04,1.124-.093,1.685-.151a1.317,1.317,0,0,1,.457.013.5.5,0,0,1,.429.447A.524.524,0,0,1,287.07,748.328Zm5.764-.542a.513.513,0,0,1-.473.337q-.588.046-1.177.077c-.734.04-1.471.016-2.2.087-.568.055-.858-.222-.879-.8-.041-1.128-.073-2.257-.113-3.386-.012-.325-.054-.648-.055-.973,0-.532.218-.815.7-.841,1.144-.063,2.289-.145,3.436-.128a.5.5,0,0,1,.556.621.48.48,0,0,1-.328.418,1.426,1.426,0,0,1-.5.079c-.684.022-1.368.019-2.051.089-.406.042-.432.037-.393.414.1,1.014-.108.859.919.841.5-.009.991-.065,1.486-.07.416,0,.579.175.577.549a.441.441,0,0,1-.366.482,3.148,3.148,0,0,1-.662.065c-.513.021-1.025.018-1.538.066-.277.026-.359.14-.328.389a.423.423,0,0,1,0,.051c0,.976,0,.976,1.082.952.476-.024,1.074-.057,1.672-.085a.606.606,0,0,1,.559.19A.564.564,0,0,1,292.834,747.786Zm5.649-1.458a5.484,5.484,0,0,0,.109,1.173.59.59,0,0,1-.454.781.725.725,0,0,1-.856-.481,2.525,2.525,0,0,1-.088-.762c-.011-1.035-.167-1.19-1.192-1.2-.206,0-.411,0-.617-.009s-.316.074-.316.294c0,.308-.009.616-.022.924a4.608,4.608,0,0,1-.055.613.663.663,0,0,1-1.319-.095,12.3,12.3,0,0,1,.027-1.335c.075-.94.05-1.883.085-2.823.005-.137,0-.274.011-.411.055-.7.27-.9.979-.887.753.011,1.506.03,2.259.063a1.66,1.66,0,0,1,1.677,1.111,1.718,1.718,0,0,1-.823,2.027A.973.973,0,0,1,298.482,746.328Z" transform="translate(-155.033 -568.92)" fill="#2b2e34"/><path d="M470.734,858.931a1.4,1.4,0,0,0-1.046,1.266,3.064,3.064,0,0,0,.55,2.092,1.264,1.264,0,0,0,.934.574,1.58,1.58,0,0,0,1.937-1.658,2.719,2.719,0,0,0-.666-1.926A1.547,1.547,0,0,0,470.734,858.931Z" transform="translate(-360.894 -680.987)" fill="#2b2e34"/></g></svg>