<svg xmlns="http://www.w3.org/2000/svg" width="254.228" height="27.377" viewBox="0 0 254.228 27.377"><g transform="translate(357.031 18.852)"><path d="M464.641-16.057a2.462,2.462,0,0,0-1.8-.743,2.447,2.447,0,0,0-1.793.743,2.447,2.447,0,0,0-.745,1.8,2.465,2.465,0,0,0,.74,1.807,2.43,2.43,0,0,0,1.8.749,2.449,2.449,0,0,0,1.8-.749,2.469,2.469,0,0,0,.745-1.807A2.442,2.442,0,0,0,464.641-16.057ZM464.39-12.7a2.106,2.106,0,0,1-1.552.645,2.094,2.094,0,0,1-1.549-.645,2.146,2.146,0,0,1-.635-1.562,2.119,2.119,0,0,1,.637-1.55,2.106,2.106,0,0,1,1.547-.645,2.115,2.115,0,0,1,1.552.645,2.12,2.12,0,0,1,.636,1.55A2.14,2.14,0,0,1,464.39-12.7Z" transform="translate(-568.19 -1.427)" fill="#2b2e34"/><path d="M467.4-10.463c-.006-.074-.008-.144-.008-.208v-.2a.759.759,0,0,0-.152-.433.678.678,0,0,0-.48-.274,1.07,1.07,0,0,0,.405-.135.609.609,0,0,0,.271-.552.7.7,0,0,0-.432-.708,2.125,2.125,0,0,0-.764-.1h-.978v2.8h.491v-1.1h.39a1.18,1.18,0,0,1,.547.09.684.684,0,0,1,.264.641v.221l.01.091c0,.011,0,.021.007.031s0,.018.007.027h.462l-.017-.034A.419.419,0,0,1,467.4-10.463Zm-.728-1.328a1.37,1.37,0,0,1-.472.062h-.445v-1.013h.423a1.271,1.271,0,0,1,.6.1.427.427,0,0,1,.186.409A.432.432,0,0,1,466.669-11.791Z" transform="translate(-571.638 -4.014)" fill="#2b2e34"/><path d="M-339.9-4.979c-.356-.079-.554-.2-.554-.316,0-.2.4-.357.791-.436a5.171,5.171,0,0,0,4.035-4.945,5.536,5.536,0,0,0-2.729-5.025c-1.741-1.028-4.273-1.464-8.071-1.464-3.956,0-6.844.159-9.851.357-.594.039-.514,1.227-.158,1.424l1.068.158c1.661.2,1.741.633,1.741,4.629V3.368c0,3.56-.238,3.837-2.017,4.194l-1.147.237c-.317.119-.317,1.147,0,1.385,2.255-.079,4.193-.119,6.132-.119,1.147,0,2.651.159,4.075.159a24.709,24.709,0,0,0,7.873-.99,6.631,6.631,0,0,0,4.629-6.646C-334.125-2.25-336.776-4.307-339.9-4.979Zm-8.268-8.308c0-1.741.039-2.058,1.9-2.058,2.73,0,4.866,1.7,4.866,5.143,0,2.374-1.266,4.55-4.669,4.55-2.057,0-2.1-.079-2.1-1.107Zm3.481,20.69c-3.086,0-3.481-1.938-3.481-5.024V-2.289c0-1.583,0-1.622,2.176-1.622,3.8,0,5.776,2.413,5.776,5.855C-340.217,5.149-341.76,7.4-344.688,7.4Z" transform="translate(0 -1.173)" fill="#2b2e34"/><path d="M-263.844,2.537c-2.334,4.589-3.442,4.708-7.042,4.708-2.888,0-3.6-.317-4.115-.989-.515-.634-.673-1.9-.673-3.759V-11.349c0-3.679.237-3.956,2.017-4.272l1.029-.159a1.127,1.127,0,0,0,0-1.385c-1.978.08-3.957.119-5.855.119s-3.877-.039-5.934-.119a.9.9,0,0,0-.08,1.385l1.147.159c1.78.316,2.018.594,2.018,4.272V3.368c0,3.68-.237,3.956-2.018,4.232l-1.5.2a1.086,1.086,0,0,0,.119,1.385c2.453-.079,4.431-.119,6.251-.119h5.3c3.244,0,7.042.04,9.139.119a24.383,24.383,0,0,0,1.7-6.41A1.053,1.053,0,0,0-263.844,2.537Z" transform="translate(-50.04 -1.173)" fill="#2b2e34"/><path d="M-186.606,6.389c-1.464-.277-1.82-1.147-2.651-3.521l-5.381-15.508c-.989-2.809-1.463-4.272-1.78-5.42-.159-.594-.4-.792-.91-.792-.079,0-1.543,1.939-3.442,2.374.118,1.146-.593,2.531-1.543,5.024L-205.873-1.8c-1.068,2.848-1.74,4.747-2.453,6.329a2.687,2.687,0,0,1-2.413,1.979l-1.068.118c-.277.317-.316,1.147.119,1.385,1.819,0,2.729-.119,4.075-.119,1.661.04,3.244.04,4.628.119.4-.2.317-1.108.079-1.385l-1.186-.2c-1.108-.2-1.424-.435-1.424-.673a4.593,4.593,0,0,1,.277-1.424l1.463-4.59c.237-.752.356-.792,1.3-.792h4.431c1.385,0,1.7.08,1.9.713l1.068,3.4a16.706,16.706,0,0,1,.751,2.69c0,.238-.158.515-1.068.673l-1.266.2a.9.9,0,0,0,.079,1.385c1.82-.079,3.363-.119,5.341-.119,2.058,0,4.194.04,6.093.119.356-.238.277-1.187.039-1.385Zm-11.631-9.535h-3.442c-.989,0-1.227-.119-.831-1.186l.989-2.968c.593-1.82,1.227-3.481,1.622-4.352.356.832.871,2.453,1.424,4.155l1.029,3.2C-197.09-3.264-197.327-3.146-198.237-3.146Z" transform="translate(-100.812)" fill="#2b2e34"/><path d="M-111.842.573c-1.068,2.691-3.283,6.133-8.07,6.133-4.747,0-9.3-4.234-9.3-12.107s4.708-11.631,9.1-11.631c3.838,0,6.37,1.978,7.438,5.657a1.085,1.085,0,0,0,1.5-.277,52.737,52.737,0,0,1-.474-6.171,48.377,48.377,0,0,0-8.15-1.029,17.322,17.322,0,0,0-10.958,3.521A13.066,13.066,0,0,0-135.54-4.847a12.421,12.421,0,0,0,5.025,10.366c2.808,2.1,6.764,3.007,10.642,3.007a29.43,29.43,0,0,0,8.031-1.464,17.544,17.544,0,0,0,1.5-6.211A1.132,1.132,0,0,0-111.842.573Z" transform="translate(-153.976)" fill="#2b2e34"/><path d="M9.655,7.641c-1.543-.238-1.7-1.147-1.78-2.967-.237-4.984-.316-9.258-.316-17.407,0-2.1.791-2.532,2.413-2.848l1.148-.2A.985.985,0,0,0,11-17.164c-1.424.079-3.245.118-4.55.118a42.314,42.314,0,0,1-4.233-.118A44.451,44.451,0,0,1-1.422-7.828L-3.439-3.476c-1.068,2.334-1.7,3.561-2.215,4.51C-6.208.045-7.4-2.21-7.791-3L-10.4-8.58c-1.741-3.719-3.125-6.132-3.125-8.584-1.425.118-2.571.118-3.878.118-1.939,0-3.64-.039-4.985-.118-.435.118-.435,1.067-.119,1.384l.871.158c1.582.356,2.452.87,2.452,3.126,0,2.136-.119,5.341-.277,7.991-.238,3.758-.435,7.2-.633,9.138-.237,2.454-.728,2.818-2.306,3.081A4.9,4.9,0,0,1-24.155,7.7,4.371,4.371,0,0,1-27.1,5.742c-2.689-3.561-5.023-7.358-7-10.326-1.187-1.78-1.425-2.255-1.425-2.453a1.63,1.63,0,0,1,.514-.91L-33.19-10c2.611-2.888,4.273-4.431,5.855-5.064a13.03,13.03,0,0,1,3.4-.712c.316-.317.277-1.226-.2-1.385-1.583.08-3.323.119-4.787.119-1.424,0-2.888-.039-4.906-.119a.856.856,0,0,0-.159,1.385l.91.158c.514.119.672.357.672.515a2.536,2.536,0,0,1-.515,1.028c-1.266,1.86-3.2,4.194-5.3,6.725-.633.792-2.215,2.3-3.046,2.3-.474,0-.712-.159-.712-1.464v-4.827c0-3.678.237-3.956,2.018-4.273l1.107-.158a1.032,1.032,0,0,0,0-1.385c-2.1.08-4.075.119-5.974.119q-2.967,0-5.934-.119a.9.9,0,0,0,0,1.385l1.107.158c1.78.316,2.018.594,2.018,4.273V3.368c0,3.68-.237,3.956-2.018,4.273l-1.107.158a1.129,1.129,0,0,0,0,1.385c2.1-.079,4.154-.12,5.934-.12,1.9,0,3.877.041,5.974.12a1.129,1.129,0,0,0,0-1.385l-1.107-.158c-1.78-.316-2.018-.593-2.018-4.273V-.786c0-2.136.039-2.691.95-2.691.87,0,1.542.95,2.967,3.126l2.1,3.2c.4.594,2.057,3.166,2.294,3.522a1.584,1.584,0,0,1,.317.791c0,.158-.237.316-.672.4l-.989.237c-.435.237-.435,1.227.079,1.385,2.216-.079,4.194-.12,6.212-.12q2.729,0,5.7.12h0c1.581-.079,3.2-.119,4.469-.119,1.5,0,3.205.041,4.668.119A1.125,1.125,0,0,0-13.805,7.8l-1.542-.237c-1.583-.277-1.819-.791-1.819-2.77,0-2.373.038-6.329.078-8.9.04-2.057.118-3.6.277-6.171h.08C-14.516-5.137-9.809,4.476-8.265,9.381a2.073,2.073,0,0,0,1.028.238,1.268,1.268,0,0,0,.791-.278C-3.835,2.656-.67-3.951,2.258-10.281h.078v4.51L2.415,4.516c0,2.413,0,2.769-1.819,3.125L-.591,7.8A.9.9,0,0,0-.472,9.184c1.9-.079,4.075-.119,5.855-.119,1.938,0,3.64.041,5.459.119.4-.159.4-1.068.079-1.385Z" transform="translate(-212.689 -1.173)" fill="#2b2e34"/><path d="M163.071-18.85c-8.269,0-14.124,6.053-14.124,13.887,0,8.267,5.776,13.49,13.729,13.49,8.505,0,14.282-5.183,14.282-13.808C176.957-13.311,171.3-18.85,163.071-18.85Zm.356,25.557c-6.449,0-8.15-7.755-8.15-12.581,0-6.606,2.61-11.157,7.477-11.157,4.9,0,7.873,5.5,7.873,12.264C170.627,1.643,168.609,6.707,163.427,6.707Z" transform="translate(-351.744 -0.001)" fill="#2b2e34"/><path d="M284.446,2.657c-2.176,4.471-3.521,4.59-6.963,4.59-2.888,0-3.64-.317-4.154-1.029-.476-.672-.634-1.938-.634-3.758V-2.248c0-1.187.04-1.227,1.108-1.227h2.73c2.057,0,2.491.317,2.927,2.216l.2.988a1.134,1.134,0,0,0,1.464-.039C281.043-1.576,281-3,281-4.5s.04-2.927.119-4.194c-.2-.356-1.187-.356-1.464-.039l-.2.989c-.436,1.9-.87,2.176-2.927,2.176H273.8c-1.068,0-1.108-.08-1.108-1.187v-6.923c0-1.463,0-1.543,1.306-1.543h3.165A5.2,5.2,0,0,1,281.043-14a9.166,9.166,0,0,1,1.5,3.125c.4.356,1.306.277,1.463-.159-.2-2.65-.475-5.5-.515-6.132-.514.079-2.769.119-5.3.119h-8.387c-1.9,0-3.837-.039-5.7-.119a.994.994,0,0,0-.079,1.385l.99.2c1.78.317,2.017.594,2.017,4.194V3.37c0,3.639-.312,4.115-2.1,4.464a3.316,3.316,0,0,1-1.35-.028,5.076,5.076,0,0,1-1.967-.994c-1.9-1.623-3.521-4.59-6.132-9.891-.2-.436-.2-.673.2-.87,1.82-.911,4.194-2.414,4.194-5.935a6.481,6.481,0,0,0-3.481-5.855c-1.5-.91-4.392-1.424-7.754-1.424-3.758,0-6.844.159-9.812.356a.9.9,0,0,0-.079,1.385l1.068.158c1.662.237,1.741.672,1.741,4.628V3.37c0,3.639-.238,3.917-2.019,4.233l-1.068.2a1.131,1.131,0,0,0,0,1.385c2.057-.079,3.8-.119,5.776-.119,1.9,0,3.719.04,5.815.119a1.257,1.257,0,0,0,0-1.385L249,7.6c-1.78-.316-2.018-.594-2.018-4.233V-1.5c0-.792.079-.871,1.464-.871a2.01,2.01,0,0,1,2.1,1.384,49.417,49.417,0,0,0,3.085,6.132c1.741,2.848,4.105,4.069,7.745,4.018.592-.008,1.209.02,1.756.012h0c2.968-.08,4.938-.114,6.837-.114h5.144c3.244,0,7.041.04,9.138.119a22.471,22.471,0,0,0,1.663-6.33A.962.962,0,0,0,284.446,2.657Zm-32-7.872a3.8,3.8,0,0,1-3.007,1.107c-2.334,0-2.453-.119-2.453-1.5v-7.715c.079-1.9.079-2.017,1.7-2.017,3.085,0,5.183,2.294,5.183,5.855A5.753,5.753,0,0,1,252.441-5.215Z" transform="translate(-413.818 -1.174)" fill="#2b2e34"/><path d="M410.251-7.457,407.64-8.841c-1.979-1.029-3.6-2.69-3.6-4.51,0-1.978,1.424-3.68,4.035-3.68,2.849,0,4.55,2.888,5.223,4.906.356.4,1.345.356,1.542-.119a19.283,19.283,0,0,0-.711-5.657,9.389,9.389,0,0,1-1.345-.317,16.028,16.028,0,0,0-4.51-.633c-5.737,0-9.179,3.086-9.179,7.557.04,3.916,3.126,6.289,5.975,7.714,2.373,1.187,5.38,3.086,5.38,6.291a3.936,3.936,0,0,1-4.273,4c-3.362,0-6.013-3.64-6.8-6.211a.976.976,0,0,0-1.5.118c0,2.691.514,5.539,1.266,6.409a13.74,13.74,0,0,0,6.725,1.5c5.975,0,9.969-3.166,9.969-8.031C415.828-3.857,412.7-6.151,410.251-7.457Z" transform="translate(-524.789 -0.001)" fill="#2b2e34"/></g></svg>