<svg xmlns="http://www.w3.org/2000/svg" width="167.088" height="75.384" viewBox="0 0 167.088 75.384"><g transform="translate(0 0)"><path d="M464.25,671.6c-5.747,5.967-12.284,10.008-20.522,10.633-9.91.752-18.774-1.619-25.661-9.264-5.79-6.427-7.636-14.135-7.034-22.574,1.307-18.348,18.54-28.924,34.718-26.022a32.318,32.318,0,0,1,11.606,4.494c-2.234,2.615-4.356,5.169-6.6,7.615-.228.249-1.222-.019-1.759-.267a20.085,20.085,0,0,0-14.778-1.051A18.3,18.3,0,0,0,421.6,652.419c-.256,9.478,4.468,16.346,13.579,18.936a19.276,19.276,0,0,0,18.027-3.79c1.336-1.067,2.6-2.223,3.979-3.406Z" transform="translate(-410.924 -623.896)" fill="#2b2e34"/><path d="M522.234,651.447v-4.316c3.317,0,6.456-.017,9.595.032.246,0,.622.422.7.711a6.062,6.062,0,0,1,.052,1.492q0,18.349,0,36.7v2.229H522.342V684.31c-.5.324-.809.485-1.074.7-8.2,6.588-18.389,5.787-25.5-2.009-8.31-9.109-7.233-24.913,2.234-32.8a17.919,17.919,0,0,1,22.742,0C521.155,650.541,521.564,650.886,522.234,651.447ZM511.893,679.8a9.314,9.314,0,0,0,6.607-2.36,13.222,13.222,0,0,0,3.3-14.636c-1.533-3.915-4.358-6.436-8.6-6.951-4.332-.526-8.011.793-10.565,4.535a13.362,13.362,0,0,0-1.95,9.389C501.21,674.461,505.167,680.073,511.893,679.8Z" transform="translate(-437.283 -631.291)" fill="#2b2e34"/><path d="M632.1,680.27c-4.964,7-11.744,9.465-19.72,9.085-9.644-.46-17.006-5.943-19.541-14.689-3.291-11.354,1.475-23.465,12.835-27.29,13.6-4.58,28.081,3.08,29.039,18.983.083,1.375.011,2.759.011,4.31H602.069c.2,4.641,4.264,8.757,9.07,9.365,4.266.539,8.18-.14,11.5-3.124a1.667,1.667,0,0,1,1.431-.323C626.71,677.726,629.3,678.972,632.1,680.27Zm-7.879-17.779c-.925-4.338-5.529-7.526-10.641-7.575-4.623-.044-9.38,2.254-10.914,7.575Z" transform="translate(-471.102 -631.27)" fill="#2b2e34"/><path d="M460.252,652.949c4.437.456,4.689.77,4.318,4.887-.544,6.042-5.817,11.945-12.51,14a16.368,16.368,0,0,1-21.545-14.726c-.21-2.78.922-4.006,3.7-4.006,4.226,0,8.452.057,12.676-.046a4.535,4.535,0,0,0,2.637-1c4.478-3.829,8.92-7.7,13.256-11.692.926-.851,1.372-2.223,2.039-3.355a13.555,13.555,0,0,1,1.186-1.966,1.238,1.238,0,0,1,2.095-.049,24.627,24.627,0,0,0,3.228,2.887c1.2.864.769,1.631.139,2.493a.976.976,0,0,1-.363.333C465.6,643.015,464.058,648.74,460.252,652.949Z" transform="translate(-417.433 -627.406)" fill="#2b2e34"/><path d="M572.036,647.1v4.4c5.082-5.52,8.263-6.561,13.029-4.238l-3.1,8.695c-.255,0-.438.054-.564-.008-3.662-1.792-6.01.283-6.951,3.545a30.518,30.518,0,0,0-1.041,7.727c-.141,6.393-.045,12.792-.045,19.188v1.975c-3.283,0-6.38.021-9.476-.036-.274,0-.623-.474-.782-.8a2.431,2.431,0,0,1-.042-.988c0-12.515.019-25.031-.046-37.545-.008-1.559.456-2.021,1.973-1.943C567.252,647.183,569.522,647.1,572.036,647.1Z" transform="translate(-461.522 -631.282)" fill="#2b2e34"/></g><g transform="translate(47.396 63.782)"><path d="M481.947,720.2h2.2a7.251,7.251,0,0,1,2.578.33,2.623,2.623,0,0,1,1.246,1.068,3.3,3.3,0,0,1,.457,1.769,2.974,2.974,0,0,1-.6,1.9,3.1,3.1,0,0,1-1.621,1.053,9.284,9.284,0,0,1-2.188.171v4.621h-2.077Zm2.077,4.265h.66a3.56,3.56,0,0,0,1.083-.111.958.958,0,0,0,.479-.368,1.081,1.081,0,0,0,.174-.621.993.993,0,0,0-.49-.923,2.787,2.787,0,0,0-1.32-.215h-.586Z" transform="translate(-481.947 -719.714)" fill="#2b2e34"/><path d="M493.376,719.785h2.01v3.931a4.621,4.621,0,0,1,1.195-.768,3.083,3.083,0,0,1,1.217-.256,2.739,2.739,0,0,1,2.025.831,2.9,2.9,0,0,1,.7,2.114v5.333h-2v-3.538a8.744,8.744,0,0,0-.133-1.9,1.323,1.323,0,0,0-.456-.743,1.285,1.285,0,0,0-.8-.244,1.5,1.5,0,0,0-1.057.408,2.164,2.164,0,0,0-.613,1.113,9.2,9.2,0,0,0-.089,1.661v3.242h-2.01Z" transform="translate(-485.749 -719.577)" fill="#2b2e34"/><path d="M512.249,724.349h2.025v8.071h-2.025v-.853a3.985,3.985,0,0,1-1.189.813,3.345,3.345,0,0,1-1.293.248,3.592,3.592,0,0,1-2.7-1.213,4.23,4.23,0,0,1-1.141-3.015,4.338,4.338,0,0,1,1.1-3.064,3.516,3.516,0,0,1,2.683-1.195,3.409,3.409,0,0,1,1.363.274,3.716,3.716,0,0,1,1.179.823Zm-2.129,1.662a2.048,2.048,0,0,0-1.56.664,2.652,2.652,0,0,0,.011,3.423,2.047,2.047,0,0,0,1.556.675,2.087,2.087,0,0,0,1.582-.664,2.429,2.429,0,0,0,.628-1.74,2.361,2.361,0,0,0-.628-1.706A2.116,2.116,0,0,0,510.12,726.011Z" transform="translate(-489.922 -721.027)" fill="#2b2e34"/><path d="M520.622,724.349h1.736v1.016a2.174,2.174,0,0,1,.749-.913,1.814,1.814,0,0,1,1.024-.311,1.9,1.9,0,0,1,.823.208l-.63,1.744a1.382,1.382,0,0,0-.586-.178.925.925,0,0,0-.789.578,5.287,5.287,0,0,0-.323,2.27l.007.394v3.263h-2.01Z" transform="translate(-494.813 -721.027)" fill="#2b2e34"/><path d="M528.15,724.349h2.025v.927a3.458,3.458,0,0,1,1.154-.853,3.377,3.377,0,0,1,1.384-.282,2.571,2.571,0,0,1,1.366.371,2.682,2.682,0,0,1,.98,1.083,3.269,3.269,0,0,1,1.184-1.083,3.223,3.223,0,0,1,1.532-.371,2.84,2.84,0,0,1,1.515.4,2.31,2.31,0,0,1,.939,1.046,5.583,5.583,0,0,1,.286,2.1v4.733h-2.04v-4.094a3.5,3.5,0,0,0-.341-1.858,1.168,1.168,0,0,0-1.024-.486,1.551,1.551,0,0,0-.931.3,1.751,1.751,0,0,0-.612.819,5.094,5.094,0,0,0-.2,1.68v3.642h-2.04v-3.909a5.525,5.525,0,0,0-.159-1.569,1.418,1.418,0,0,0-.48-.723,1.257,1.257,0,0,0-.774-.238,1.524,1.524,0,0,0-.918.3,1.8,1.8,0,0,0-.617.841,5.213,5.213,0,0,0-.2,1.706v3.59H528.15Z" transform="translate(-497.317 -721.027)" fill="#2b2e34"/><path d="M554.819,724.349h2.025v8.071h-2.025v-.853a3.982,3.982,0,0,1-1.189.813,3.345,3.345,0,0,1-1.293.248,3.592,3.592,0,0,1-2.7-1.213,4.23,4.23,0,0,1-1.141-3.015,4.335,4.335,0,0,1,1.1-3.064,3.516,3.516,0,0,1,2.683-1.195,3.409,3.409,0,0,1,1.363.274,3.706,3.706,0,0,1,1.178.823Zm-2.129,1.662a2.048,2.048,0,0,0-1.56.664,2.394,2.394,0,0,0-.621,1.7,2.419,2.419,0,0,0,.632,1.721,2.049,2.049,0,0,0,1.556.675,2.087,2.087,0,0,0,1.582-.664,2.427,2.427,0,0,0,.629-1.74,2.358,2.358,0,0,0-.629-1.706A2.116,2.116,0,0,0,552.69,726.011Z" transform="translate(-504.084 -721.027)" fill="#2b2e34"/><path d="M571.173,725.982l-1.686.928a2.849,2.849,0,0,0-.94-.69,2.815,2.815,0,0,0-1.088-.193,2.535,2.535,0,0,0-1.839.677,2.308,2.308,0,0,0-.7,1.737,2.232,2.232,0,0,0,.675,1.681,2.451,2.451,0,0,0,1.775.652,2.582,2.582,0,0,0,2.117-.927l1.6,1.092a4.918,4.918,0,0,1-7,.428,4.194,4.194,0,0,1,1.016-6.661,4.879,4.879,0,0,1,2.348-.564,4.761,4.761,0,0,1,2.159.479A4.1,4.1,0,0,1,571.173,725.982Z" transform="translate(-508.871 -721.027)" fill="#2b2e34"/><path d="M584.713,728.971h-6.506a2.164,2.164,0,0,0,.753,1.369,2.356,2.356,0,0,0,1.561.508,2.7,2.7,0,0,0,1.951-.793l1.706.8a4.024,4.024,0,0,1-1.528,1.339,4.774,4.774,0,0,1-2.114.435,4.178,4.178,0,0,1-3.094-1.2,4.076,4.076,0,0,1-1.194-3,4.215,4.215,0,0,1,1.191-3.068,4,4,0,0,1,2.986-1.22,4.144,4.144,0,0,1,3.1,1.22,4.412,4.412,0,0,1,1.195,3.223Zm-2.026-1.594a2.026,2.026,0,0,0-.791-1.1,2.293,2.293,0,0,0-1.371-.423,2.427,2.427,0,0,0-1.486.474,2.638,2.638,0,0,0-.743,1.046Z" transform="translate(-513.319 -721.027)" fill="#2b2e34"/><path d="M590.619,724.453h2.047v3.887a5.4,5.4,0,0,0,.156,1.576,1.379,1.379,0,0,0,.5.686,1.436,1.436,0,0,0,.852.246,1.491,1.491,0,0,0,.859-.242,1.409,1.409,0,0,0,.524-.709,5.437,5.437,0,0,0,.127-1.491v-3.954h2.025v3.42a8.384,8.384,0,0,1-.334,2.893,3.159,3.159,0,0,1-1.2,1.457,3.683,3.683,0,0,1-2.018.509,3.581,3.581,0,0,1-2.147-.593,3.13,3.13,0,0,1-1.153-1.654,9.99,9.99,0,0,1-.238-2.671Z" transform="translate(-518.099 -721.13)" fill="#2b2e34"/><path d="M603.664,720h2.026v2.974h1.2v1.744h-1.2v6.327h-2.026v-6.327h-1.038V722.97h1.038Z" transform="translate(-522.093 -719.648)" fill="#2b2e34"/><path d="M610.917,719.474a1.238,1.238,0,0,1,.914.385,1.329,1.329,0,0,1,0,1.858,1.227,1.227,0,0,1-.9.382,1.241,1.241,0,0,1-.921-.389,1.3,1.3,0,0,1-.381-.945,1.29,1.29,0,0,1,1.287-1.291ZM609.9,722.8h2.026v8.071H609.9Z" transform="translate(-524.423 -719.474)" fill="#2b2e34"/><path d="M623.069,725.982l-1.686.928a2.5,2.5,0,0,0-2.027-.883,2.534,2.534,0,0,0-1.838.677,2.307,2.307,0,0,0-.7,1.737,2.232,2.232,0,0,0,.675,1.681,2.452,2.452,0,0,0,1.776.652,2.581,2.581,0,0,0,2.116-.927l1.6,1.092a4.918,4.918,0,0,1-7,.428A4.194,4.194,0,0,1,617,724.706a4.878,4.878,0,0,1,2.348-.564,4.759,4.759,0,0,1,2.159.479A4.1,4.1,0,0,1,623.069,725.982Z" transform="translate(-526.135 -721.027)" fill="#2b2e34"/><path d="M634.532,724.349h2.025v8.071h-2.025v-.853a4,4,0,0,1-1.189.813,3.345,3.345,0,0,1-1.293.248,3.59,3.59,0,0,1-2.7-1.213A4.228,4.228,0,0,1,628.2,728.4a4.335,4.335,0,0,1,1.1-3.064,3.514,3.514,0,0,1,2.682-1.195,3.411,3.411,0,0,1,1.363.274,3.72,3.72,0,0,1,1.179.823Zm-2.129,1.662a2.049,2.049,0,0,0-1.56.664,2.653,2.653,0,0,0,.011,3.423,2.05,2.05,0,0,0,1.556.675,2.086,2.086,0,0,0,1.582-.664,2.427,2.427,0,0,0,.629-1.74,2.359,2.359,0,0,0-.629-1.706A2.115,2.115,0,0,0,632.4,726.011Z" transform="translate(-530.602 -721.027)" fill="#2b2e34"/><path d="M643.092,719.785h2.025v11.186h-2.025Z" transform="translate(-535.555 -719.577)" fill="#2b2e34"/><path d="M653.153,725.477,651.9,726.73a2.124,2.124,0,0,0-1.387-.757.873.873,0,0,0-.534.145.431.431,0,0,0-.071.66,2.257,2.257,0,0,0,.6.375l.742.371a4.38,4.38,0,0,1,1.61,1.179,2.456,2.456,0,0,1-.352,3.2,3.021,3.021,0,0,1-2.118.72,3.365,3.365,0,0,1-2.819-1.38l1.247-1.357a2.882,2.882,0,0,0,.834.671,1.843,1.843,0,0,0,.849.256,1.012,1.012,0,0,0,.645-.193.557.557,0,0,0,.244-.444q0-.468-.882-.913l-.683-.341q-1.958-.987-1.958-2.47a2.144,2.144,0,0,1,.738-1.636,2.68,2.68,0,0,1,1.888-.679,3.276,3.276,0,0,1,2.656,1.335Z" transform="translate(-537.046 -721.027)" fill="#2b2e34"/></g><g transform="translate(158.981 14.703)"><path d="M649.159,645.929h2.583v.877h-.852v3.8h-.9v-3.8h-.829Z" transform="translate(-649.159 -645.929)" fill="#2b2e34"/><path d="M653.872,645.929h.867l1.083,3.259,1.093-3.259h.865l.784,4.673h-.86l-.5-2.951-.992,2.951h-.784l-.984-2.951-.513,2.951h-.867Z" transform="translate(-650.458 -645.929)" fill="#2b2e34"/></g></svg>