<svg xmlns="http://www.w3.org/2000/svg" width="150" height="25" class="injected-svg inject-me" data-src="/_assets/svg/charterhall-logo.svg"><g fill="currentColor" fill-rule="evenodd"><path d="M111.377 18.658v-6.621c0-.77-.173-1.395-.52-1.86a3.55 3.55 0 00-1.327-1.095 6.098 6.098 0 00-1.797-.53 14.462 14.462 0 00-1.945-.135c-.708 0-1.41.07-2.106.21a5.931 5.931 0 00-1.88.701c-.56.33-1.023.763-1.383 1.305-.363.542-.566 1.225-.612 2.044h3.493c.065-.69.296-1.182.69-1.477.394-.296.936-.444 1.625-.444.311 0 .603.022.874.062s.511.123.714.246c.206.123.37.295.49.517.126.222.184.52.184.9.019.36-.089.636-.32.821-.23.187-.538.336-.935.434a9.35 9.35 0 01-1.352.222 28.57 28.57 0 00-1.551.197c-.526.083-1.047.19-1.56.332-.521.139-.983.348-1.383.625a3.26 3.26 0 00-.985 1.12c-.255.471-.381 1.065-.381 1.785 0 .656.11 1.225.335 1.7.219.477.53.87.92 1.182a3.85 3.85 0 001.38.689c.523.144 1.09.222 1.702.222.785 0 1.554-.114 2.311-.342a4.576 4.576 0 001.967-1.21c.019.213.046.422.086.628.043.206.099.407.163.6h3.543c-.163-.258-.277-.652-.345-1.178a12.98 12.98 0 01-.095-1.65zm-3.5-2.09c0 .197-.018.458-.058.784-.043.33-.154.653-.333.973a2.31 2.31 0 01-.837.825c-.378.231-.91.348-1.6.348a4.43 4.43 0 01-.816-.077 2.035 2.035 0 01-.69-.259 1.34 1.34 0 01-.464-.504c-.114-.21-.173-.477-.173-.788 0-.327.059-.598.173-.81.114-.215.268-.39.452-.533.191-.135.412-.249.668-.332.25-.08.511-.147.776-.194.28-.052.557-.092.837-.126.277-.034.545-.07.8-.12.25-.052.493-.111.714-.185.219-.077.407-.175.551-.31v1.308zM117.084 21.49h3.496V3.913h-3.496zM94.782 10.657h-7.115V3.913h-3.864V21.49h3.864v-7.583h7.115v7.583h3.866V3.913h-3.866zM112.456 21.49h3.496V3.913h-3.496zM41.712 18.658v-6.621c0-.77-.172-1.395-.517-1.86a3.629 3.629 0 00-1.33-1.098 6.051 6.051 0 00-1.797-.527 14.417 14.417 0 00-1.943-.135 10.6 10.6 0 00-2.108.21 6.05 6.05 0 00-1.88.701 4.164 4.164 0 00-1.38 1.305c-.36.542-.566 1.225-.612 2.041h3.49c.065-.687.296-1.179.693-1.474.394-.296.936-.444 1.625-.444.308 0 .603.019.874.062.271.04.505.123.714.246.204.123.367.299.493.514.12.225.181.523.181.899.019.363-.089.64-.32.825-.227.19-.541.336-.932.434a9.024 9.024 0 01-1.355.218c-.508.053-1.028.114-1.551.2-.526.08-1.047.191-1.564.333a4.45 4.45 0 00-1.378.625c-.404.283-.73.656-.985 1.12-.256.471-.382 1.065-.382 1.785 0 .656.11 1.223.332 1.7.225.477.533.867.924 1.182.397.31.852.541 1.379.689a6.384 6.384 0 001.696.222c.79 0 1.56-.114 2.317-.345a4.634 4.634 0 001.97-1.207 3.9 3.9 0 00.087.628c.036.206.092.407.16.6h3.543c-.164-.258-.28-.655-.342-1.178a12.348 12.348 0 01-.102-1.65zm-3.497-2.09c0 .193-.018.455-.061.784-.04.33-.15.653-.332.973-.179.32-.46.598-.834.825-.38.231-.915.348-1.604.348-.274 0-.548-.027-.81-.077a2.029 2.029 0 01-.69-.259 1.329 1.329 0 01-.47-.504 1.703 1.703 0 01-.17-.788c0-.327.059-.598.17-.81.117-.215.27-.39.455-.533.191-.138.413-.249.668-.332.253-.08.511-.144.773-.197.28-.05.557-.09.837-.123.283-.034.548-.07.8-.12.256-.052.493-.114.714-.185.225-.077.407-.175.554-.31v1.308zM11.414 17.575c-.667.721-1.591 1.084-2.77 1.084-.87 0-1.612-.169-2.217-.505a4.256 4.256 0 01-1.477-1.341 5.84 5.84 0 01-.825-1.884 8.992 8.992 0 01-.256-2.153c0-.773.085-1.521.256-2.243.172-.72.448-1.364.825-1.932a4.244 4.244 0 011.477-1.355c.605-.336 1.348-.504 2.217-.504.474 0 .93.08 1.367.237a3.915 3.915 0 012.029 1.622c.23.37.38.775.442 1.219h3.742c-.117-1.017-.39-1.92-.834-2.708a6.624 6.624 0 00-1.687-1.98 7.42 7.42 0 00-2.315-1.222 9.002 9.002 0 00-2.744-.418c-1.345 0-2.559.239-3.63.715a7.794 7.794 0 00-2.724 1.97A8.824 8.824 0 00.59 9.12C.198 10.244 0 11.46 0 12.776c0 1.278.198 2.473.591 3.58a8.645 8.645 0 001.699 2.893 7.751 7.751 0 002.724 1.93c1.071.47 2.285.706 3.63.706 1.082 0 2.076-.167 2.978-.494a6.923 6.923 0 002.363-1.429 7.083 7.083 0 001.625-2.264c.41-.885.668-1.88.765-2.979H12.63c-.147 1.183-.552 2.136-1.215 2.856M28.01 10.193c-.347-.452-.82-.803-1.42-1.058-.598-.254-1.367-.382-2.298-.382-.658 0-1.332.167-2.02.503-.69.338-1.157.854-1.703 1.277h-.07V3.889h-3.495v17.599H20.5v-6.336c0-1.295.213-2.226.642-2.793.425-.567 1.114-.85 2.066-.85.836 0 1.419.26 1.748.777.326.517.492 1.302.492 2.35v6.852h3.496v-7.491c0-.788-.071-1.506-.209-2.155-.14-.648-.382-1.196-.725-1.65M56.592 18.88c-.588 0-.984-.1-1.177-.295-.198-.198-.3-.592-.3-1.18V11.1h2.563v-2.34h-2.563V3.988H51.62V18.61c0 .64.105 1.157.322 1.55.214.394.506.697.874.911.368.212.798.357 1.279.43.485.072.997.114 1.54.114.344 0 .695-.01 1.06-.026.36-.019.69-.05.983-.1v-2.71c-.166.035-.337.061-.517.077-.182.016-.37.023-.569.023"/><path d="M68.574 10.732a5.713 5.713 0 00-1.986-1.687c-.803-.422-1.748-.628-2.829-.628-.97 0-1.853.172-2.647.514a6.227 6.227 0 00-2.053 1.419 6.133 6.133 0 00-1.333 2.13 7.43 7.43 0 00-.467 2.66c0 .981.154 1.886.455 2.705.305.822.736 1.53 1.293 2.118a5.61 5.61 0 002.044 1.367c.803.32 1.708.48 2.708.48 1.441 0 2.675-.33 3.691-.985 1.022-.656 1.773-1.749 2.265-3.275h-3.078c-.11.394-.424.766-.935 1.12-.508.351-1.118.53-1.822.53-.982 0-1.736-.256-2.263-.764-.526-.51-.813-1.33-.859-2.462h9.182a9.154 9.154 0 00-.246-2.83 7.04 7.04 0 00-1.12-2.412zm-7.816 3.028c.013-.246.068-.529.154-.837.09-.314.25-.606.471-.89.222-.277.514-.51.887-.698.37-.19.834-.283 1.388-.283.852 0 1.493.23 1.911.69.419.458.708 1.132.874 2.018h-5.685zM130.05 16.072l9.645 8.684 9.648-8.684-9.648-8.68zM139.023.193l-9.648 8.682v6.139l9.648-8.683zM140.177 0v6.138l9.648 8.683V8.68z"/><g><path d="M76.995 8.615a4.646 4.646 0 00-1.157.554 4.241 4.241 0 00-.964.863c-.28.335-.498.699-.661 1.094h-.05V8.762h-3.326v12.725h3.5v-5.732c0-.577.056-1.109.17-1.601.111-.492.309-.925.58-1.293.27-.37.628-.66 1.068-.872.444-.216.99-.322 1.626-.322.213 0 .435.012.665.037.228.025.425.053.589.088V8.538a2.806 2.806 0 00-.762-.121c-.444 0-.87.066-1.278.198M48.964 8.615a4.646 4.646 0 00-1.157.554 4.241 4.241 0 00-.965.863c-.278.335-.497.699-.66 1.094h-.05V8.762h-3.326v12.725h3.5v-5.732c0-.577.056-1.109.17-1.601.111-.492.309-.925.58-1.293.27-.37.628-.66 1.068-.872.444-.216.99-.322 1.626-.322.213 0 .435.012.665.037.228.025.425.053.589.088V8.538a2.806 2.806 0 00-.762-.121c-.444 0-.87.066-1.278.198"/></g></g></svg>