<svg xmlns="http://www.w3.org/2000/svg" width="199.686" height="58.622" viewBox="0 0 199.686 58.622"><g transform="translate(-38.107 -87.874)"><path d="M60.077,98.57c-1.075-1.344-2.992-3.808-6.531-3.808-3.8,0-6.981,3.4-6.981,9.087,0,6.712,3.623,9.89,7.651,9.89a7.432,7.432,0,0,0,6.267-3.718l5.593,5.013c-.273.313-.538.628-.806.895a15.439,15.439,0,0,1-11.323,4.61c-10.467,0-15.84-8.193-15.84-16.821a16.153,16.153,0,0,1,4.121-11.146,14.75,14.75,0,0,1,11.274-4.7,16.672,16.672,0,0,1,6.844,1.344A14.326,14.326,0,0,1,65.9,93.779Z" fill="#2b2e34"/><rect width="7.387" height="31.59" transform="translate(68.037 88.412)" fill="#2b2e34"/><path d="M131.956,126a4.817,4.817,0,0,1-1.384,1.657,7.929,7.929,0,0,1-5.011,1.432c-3.222,0-7.88-1.164-7.88-7.069,0-5.861,4.57-6.844,9.088-7.695,3.31-.67,3.715-.855,4.473-1.208,0-1.252,0-3.226-2.86-3.226-3.138,0-3.182,2.195-3.182,3.539h-6.84c.128-2.728.22-5.685,4.244-7.25a16.83,16.83,0,0,1,5.818-.939c2.913,0,6.042.626,7.92,2.5,1.838,1.838,1.97,4.028,1.97,7.875v6.892c0,3.667.092,4.2.63,6.17h-6.717Zm-2.6-7.871c-2.679.762-4.562,1.3-4.562,3.4a2.1,2.1,0,0,0,2.327,2.237,4.125,4.125,0,0,0,3.8-2.283,9.173,9.173,0,0,0,.494-4.028,14.981,14.981,0,0,1-2.063.674" transform="translate(-39.803 -8.689)" fill="#2b2e34"/><path d="M180.791,112.31a9.374,9.374,0,0,0-2.728-.357,7.21,7.21,0,0,0-5.192,1.882v14.984h-6.849v-22.9h6.355v3.041a6.649,6.649,0,0,1,6.043-3.446,7.01,7.01,0,0,1,2.371.405Z" transform="translate(-63.983 -8.821)" fill="#2b2e34"/><path d="M204.073,118.666a5.65,5.65,0,0,0,.758,2.642,4.329,4.329,0,0,0,3.9,1.97,6.063,6.063,0,0,0,5.676-3.76l5.456,3.442c-.264.4-.533.855-.8,1.254a12.343,12.343,0,0,1-10.2,4.965c-7.875,0-12.124-5.9-12.124-12.212,0-7.516,5.5-11.811,11.411-11.811a11.783,11.783,0,0,1,10.736,6.751,15.486,15.486,0,0,1,.983,6.758Zm8.5-4.431a3.939,3.939,0,0,0-4.253-4.023,3.9,3.9,0,0,0-4.16,4.023Z" transform="translate(-79.345 -8.644)" fill="#2b2e34"/><path d="M254.6,108.642a8.122,8.122,0,0,1,6.668-3.133,7.532,7.532,0,0,1,5.725,2.334c1.613,1.826,1.657,3.928,1.7,6.123v14.856h-7.378V117.187a8.767,8.767,0,0,0-.493-3.579,2.869,2.869,0,0,0-2.644-1.569,4.177,4.177,0,0,0-2.058.586c-1.384.983-1.384,2.684-1.432,4.2v11.991h-7.382V105.91H254.6Z" transform="translate(-104.641 -8.821)" fill="#2b2e34"/><path d="M317.305,88.95v31.59h-6.488l-.538-1.611a9.125,9.125,0,0,1-6,2.149c-6.443,0-9.709-5.46-9.709-12.172,0-7.561,4.253-11.815,9.533-11.815a9.61,9.61,0,0,1,5.818,2.018V88.95Zm-11.23,13.693a3.521,3.521,0,0,0-2.776,1.384,8.13,8.13,0,0,0-1.252,4.967,8.942,8.942,0,0,0,1.208,5.059,3.447,3.447,0,0,0,2.772,1.384,3.659,3.659,0,0,0,2.909-1.476c.67-.85,1.208-2.457,1.164-5.367-.132-5.011-2.459-5.95-4.024-5.95" transform="translate(-128.283 -0.538)" fill="#2b2e34"/><path d="M355.756,129.223c-5.954,0-11.5-4.028-11.5-11.815,0-7.65,4.967-12.172,11.234-12.172,6.488,0,11.679,4.7,11.723,12.172.04,7.518-5.328,11.815-11.455,11.815m-.044-17.943c-2.688,0-4.076,2.149-4.076,5.678,0,1.256,0,6.175,4.12,6.175,2.953,0,4.024-2.591,4.072-5.681,0-1.3.044-6.172-4.116-6.172" transform="translate(-153.133 -8.684)" fill="#2b2e34"/><path d="M402.127,108.642a8.123,8.123,0,0,1,6.668-3.133,7.525,7.525,0,0,1,5.725,2.334c1.613,1.826,1.657,3.928,1.706,6.123v14.856H408.84V117.187a8.677,8.677,0,0,0-.494-3.579,2.857,2.857,0,0,0-2.639-1.569,4.176,4.176,0,0,0-2.058.586c-1.384.983-1.384,2.684-1.432,4.2v11.991h-7.383V105.91h7.294Z" transform="translate(-178.433 -8.821)" fill="#2b2e34"/><path d="M261,160.726v7.486h-7.267v-7.486H248.1v21.838h5.634V173.1H261v9.466h5.628V160.726Z" transform="translate(-105.039 -36.44)" fill="#2b2e34"/><path d="M296.591,188.568c-4.113,0-7.949-2.785-7.949-8.168,0-5.289,3.434-8.415,7.763-8.415,4.485,0,8.074,3.248,8.1,8.415a7.7,7.7,0,0,1-7.919,8.168m-.031-12.4c-1.855,0-2.815,1.485-2.815,3.925,0,.869,0,4.269,2.846,4.269,2.042,0,2.782-1.792,2.815-3.927,0-.9.03-4.267-2.846-4.267" transform="translate(-125.317 -42.072)" fill="#2b2e34"/><path d="M328.4,174.557a3.773,3.773,0,0,1,.929-1.21,5.371,5.371,0,0,1,3.678-1.173c3.123,0,3.9,1.453,4.391,2.383a4.73,4.73,0,0,1,4.516-2.383,6.56,6.56,0,0,1,3.126.622c2.231,1.143,2.288,3.123,2.352,5.718v9.777h-5.1v-8.878a6.331,6.331,0,0,0-.152-1.67,1.951,1.951,0,0,0-1.95-1.24,2.029,2.029,0,0,0-1.517.591,3.142,3.142,0,0,0-.618,2.44v8.757h-5.1v-8.726c-.033-1.112-.064-1.852-.649-2.41a2.133,2.133,0,0,0-1.426-.494,2.036,2.036,0,0,0-1.453.524,3.281,3.281,0,0,0-.71,2.443v8.662H323.6v-15.84h4.857Z" transform="translate(-142.804 -42.167)" fill="#2b2e34"/><path d="M379.61,181.269a3.914,3.914,0,0,0,.527,1.827,2.985,2.985,0,0,0,2.69,1.362,4.19,4.19,0,0,0,3.927-2.6l3.775,2.38c-.186.277-.372.591-.554.867a8.544,8.544,0,0,1-7.054,3.432c-5.448,0-8.385-4.079-8.385-8.443a7.774,7.774,0,0,1,7.888-8.165,8.152,8.152,0,0,1,7.426,4.667,10.844,10.844,0,0,1,.679,4.672Zm5.881-3.063a2.725,2.725,0,0,0-2.94-2.781,2.7,2.7,0,0,0-2.879,2.781Z" transform="translate(-168.281 -42.044)" fill="#2b2e34"/><path d="M410.092,183a8.359,8.359,0,0,0,5.1,1.98,3.189,3.189,0,0,0,1.487-.311,1.094,1.094,0,0,0,.649-1.021,1.039,1.039,0,0,0-.682-.99,11.006,11.006,0,0,0-2.846-.493c-1.916-.308-5.536-.9-5.536-4.765,0-3.556,3.184-5.411,6.465-5.411a10.655,10.655,0,0,1,6.9,2.413l-2.538,2.751a6.852,6.852,0,0,0-4.171-1.573c-1.7,0-1.737,1.05-1.737,1.175,0,.646.652.862,1.3.957.493.094,2.812.4,3.339.493,1.021.186,4.64.835,4.64,4.826,0,3.9-3.65,5.539-7.27,5.539a11.533,11.533,0,0,1-7.794-2.879Z" transform="translate(-184.72 -42.075)" fill="#2b2e34"/></g></svg>