<svg xmlns="http://www.w3.org/2000/svg" width="202.21" height="40.904" viewBox="0 0 202.21 40.904">
  <g id="clearstate" transform="translate(-152.6 -115.79)">
    <path id="Path_736" data-name="Path 736" d="M163.1,115.79a10.208,10.208,0,0,0-10.5,10.376,10.1,10.1,0,0,0,10.282,10.374,9.906,9.906,0,0,0,8.409-3.958l-3.336-2.376a6.233,6.233,0,0,1-4.919,2.344c-3.3,0-5.779-2.752-5.779-6.384s2.483-6.421,5.779-6.421a6.076,6.076,0,0,1,4.747,2.236l3.369-2.607A9.8,9.8,0,0,0,163.1,115.79Z" transform="translate(0 0)" fill="#2b2e34"/>
    <path id="Path_737" data-name="Path 737" d="M252.167,137.314H267.18V133.34H256.861V117.22h-4.7Z" transform="translate(-76.73 -1.102)" fill="#2b2e34"/>
    <path id="Path_738" data-name="Path 738" d="M334,137.314h16.077v-3.82H338.648v-4.575h10.22v-3.456h-10.22V121.01h11.284v-3.79H334Z" transform="translate(-139.803 -1.102)" fill="#2b2e34"/>
    <path id="Path_739" data-name="Path 739" d="M434.192,137.036h4.8l-8.484-20.046h-4.754l-8.445,20.046h4.65l1.52-3.829h9.191Zm-2.7-7.028h-6.829l3.44-8.613Z" transform="translate(-204.009 -0.925)" fill="#2b2e34"/>
    <path id="Path_740" data-name="Path 740" d="M541.013,137.593H546.1l-4.816-7.033.784-.332a6.6,6.6,0,0,0,2.273-10.454c-1.376-1.376-3.545-2.064-6.441-2.064H528.52V137.6h4.506v-6.46h3.687Zm-3.355-9.677h-4.632v-6.535h4.586c2.435,0,3.9,1.215,3.9,3.252,0,1.995-1.518,3.284-3.864,3.284Z" transform="translate(-289.718 -1.48)" fill="#2b2e34"/>
    <path id="Path_741" data-name="Path 741" d="M618.11,133.767a14.491,14.491,0,0,0,8.994,2.917c4.877,0,7.909-2.389,7.909-6.237,0-3.651-2.942-5.045-7.359-6.01-3-.674-4.258-1.2-4.258-2.752,0-.355.135-2.128,2.825-2.128a10.961,10.961,0,0,1,5.788,1.834l2.165-3.052a12.923,12.923,0,0,0-7.8-2.279c-4.513,0-7.547,2.458-7.547,6.116s2.632,4.935,7.487,6.042c2.522.6,4.162,1.121,4.162,2.752,0,.667-.307,2.217-3.16,2.217a11.551,11.551,0,0,1-6.794-2.293Z" transform="translate(-358.764 -0.208)" fill="#2b2e34"/>
    <path id="Path_742" data-name="Path 742" d="M709.176,137.547h4.506v-16.12h6.377V117.65H702.82v3.777h6.356Z" transform="translate(-424.049 -1.433)" fill="#2b2e34"/>
    <path id="Path_743" data-name="Path 743" d="M794.722,137.039h4.8l-8.484-20.049h-4.751l-8.448,20.049h4.65l1.52-3.832H793.2Zm-2.7-7.031h-6.831l3.44-8.611Z" transform="translate(-481.867 -0.925)" fill="#2b2e34"/>
    <path id="Path_744" data-name="Path 744" d="M878,137.314H882.7v-16.12h6.386V117.22H871.64v3.974H878Z" transform="translate(-554.157 -1.102)" fill="#2b2e34"/>
    <path id="Path_745" data-name="Path 745" d="M964.23,137.314h16.077v-3.82H968.871v-4.575h10.211v-3.456H968.871V121.01h11.284v-3.79H964.23Z" transform="translate(-625.516 -1.102)" fill="#2b2e34"/>
    <path id="Path_746" data-name="Path 746" d="M152.6,233.363h89.869L253.7,244.6l11.236-11.236H354.81V229.85H263.483l-9.78,9.78-9.78-9.78H152.6Z" transform="translate(0 -87.905)" fill="#2b2e34"/>
  </g>
</svg>
