<svg xmlns="http://www.w3.org/2000/svg" width="153.224" height="85.602" viewBox="0 0 153.224 85.602"><g transform="translate(-760.555 -486.909)"><g transform="translate(760.555 486.909)"><path d="M846.1,529.74a42.775,42.775,0,1,1-41.766-42.823A42.6,42.6,0,0,1,846.1,529.74Zm-23.009,8.3,0,.226a8.99,8.99,0,0,0,1.168.392c.328.065.683-.018,1.021.021.784.091,1-.292,1-1.011-.024-1.942.01-3.885-.014-5.827-.017-1.389-.049-2.78-.15-4.164a3.271,3.271,0,0,0-2.819-3.225,17.4,17.4,0,0,0-4.052.067c-1.479.193-1.657.593-1.475,2.081.059.483.27.623.734.53a12.425,12.425,0,0,1,1.782-.281c2.182-.121,2.709.436,2.658,2.615-.014.61-.272.749-.813.757a27.154,27.154,0,0,0-2.745.15,4.071,4.071,0,0,0-3.667,4.913c.432,2.712,2.248,4.038,4.914,3.517A23.136,23.136,0,0,0,823.092,538.043Zm-51.447-8.111c1.383,0,2.64,0,3.9,0,1.74-.007,1.8-.087,1.734-1.813-.021-.55-.19-.793-.788-.777-1.364.037-2.73-.014-4.095.023-.6.016-.772-.2-.759-.776q.048-2.047,0-4.095c-.013-.555.19-.732.73-.723,1.575.026,3.15.011,4.725.009,1.657,0,1.634,0,1.624-1.634,0-.7-.258-.976-.977-.969-2.834.027-5.67.033-8.5,0-.778-.01-.979.28-.976,1.013.022,5.827.012,11.655.014,17.483,0,.99.024,1.006,1.019,1.009,2.352.008,2.353.008,2.354-2.356C771.646,534.226,771.645,532.131,771.645,529.932Zm14.376,8.126a3.1,3.1,0,0,0,2.793.534.774.774,0,0,0,.188-.553c.007-3.436.033-6.873-.019-10.308a3.019,3.019,0,0,0-1.724-2.878,8.1,8.1,0,0,0-6.195-.018.627.627,0,0,0-.356.441c-.041.615-.016,1.234-.016,1.946l1.894-.328c2.405-.415,3.156.185,3.255,2.535.025.585-.16.788-.743.795a28.361,28.361,0,0,0-2.978.165,3.753,3.753,0,0,0-3.408,3.106,8.229,8.229,0,0,0-.045,1.961,3.806,3.806,0,0,0,4.492,3.424C784.124,538.681,785.059,538.338,786.021,538.058Zm47.521-4.505a2.737,2.737,0,0,1,.234.266,22.5,22.5,0,0,1,1.6,2.7c.71,1.663,1.746,2.581,3.651,2.17a6.821,6.821,0,0,1,1.258-.011c-.284-.528-.428-.831-.6-1.116-1.1-1.815-2.18-3.646-3.333-5.428a1.629,1.629,0,0,1-.033-2.051c1.041-1.573,1.983-3.211,2.962-4.825.368-.608.27-.748-.4-.849a2.319,2.319,0,0,0-2.852,1.524,9.36,9.36,0,0,1-.7,1.318c-.321.549-.665,1.085-1.053,1.714-.783-1.365-1.492-2.617-2.222-3.857-.14-.238-.36-.591-.56-.6-1.051-.06-2.107-.028-3.337-.028.206.429.305.69.448.924,1.036,1.7,2.059,3.409,3.134,5.085a1.153,1.153,0,0,1,.028,1.477c-.982,1.455-1.9,2.955-2.828,4.444-.432.693-.835,1.406-1.345,2.268.9,0,1.574-.045,2.245.013A1.093,1.093,0,0,0,831,538C831.81,536.528,832.661,535.085,833.542,533.552Zm-23.691-.839q0,2.4,0,4.8c0,1.2,0,1.2,1.223,1.163,2.016-.059,2.017-.059,2.016-2.076,0-2.992.009-5.985-.015-8.977-.005-.611.186-.869.812-.818a9.275,9.275,0,0,0,1.416-.009c.187-.014.515-.135.523-.23a6.234,6.234,0,0,0-.009-1.859c-.037-.171-.716-.274-1.1-.281-1.773-.035-1.858-.121-1.572-1.889.029-.181.056-.364.094-.543a1.136,1.136,0,0,1,1.07-.987,7.287,7.287,0,0,1,1.33-.049c1.173.106,1.215.087,1.216-1.068a3.736,3.736,0,0,1,0-.393c.062-.6-.236-.869-.809-.911-.549-.041-1.1-.138-1.645-.142-1.921-.016-3.6.566-4.189,2.382a10.308,10.308,0,0,0-.34,2.783c-.021.62-.113.952-.832,1.011-.839.068-.92.332-.9,1.407.014.711.408.841.973.78.61-.065.755.224.746.783C809.834,529.3,809.85,531.007,809.85,532.714Zm-7.918-7.156c0-.977-.487-1.238-1.272-1.141a3.309,3.309,0,0,1-.707,0c-.759-.073-.994.268-.988,1.012.029,3.7.014,7.392.014,11.088,0,2.168,0,2.168,2.153,2.159,1.034,0,1.061-.024,1.062-1.053,0-3.014.016-6.029-.012-9.043a1.074,1.074,0,0,1,.805-1.178,3.091,3.091,0,0,1,1.143-.214c.81.071,1.611.242,2.511.387,0-.574,0-1.169,0-1.765,0-.989-.17-1.179-1.15-1.452C804.1,523.968,803.067,524.681,801.933,525.557Zm-6.336,6c0-1.651.018-3.3,0-4.953-.034-2.537.43-2.147-2.205-2.178-.935-.011-1.015.083-1.015,1.05q-.007,5.464,0,10.927c0,2.323,0,2.3,2.357,2.291.71,0,.892-.263.881-.927C795.575,535.694,795.6,533.623,795.6,531.553Zm.33-10.612a1.734,1.734,0,0,0-1.951-1.929,1.794,1.794,0,0,0-1.919,1.916,1.935,1.935,0,1,0,3.87.013Z" transform="translate(-760.555 -486.909)" fill="#2b2e34"/><path d="M913.913,540.864c-.121.28-.266.551-.362.84q-2.14,6.408-4.267,12.821a1.775,1.775,0,0,1-2.454,1.084.957.957,0,0,1-.374-.547q-2.261-6.658-4.5-13.323c-.1-.28-.242-.543-.364-.815l-.217.026c-.027.287-.079.574-.08.86-.006,4.277,0,8.555-.017,12.832,0,.328-.123.912-.269.938a5.58,5.58,0,0,1-1.7-.025c-.079-.01-.14-.465-.141-.714q-.013-6.1-.007-12.2v-6.458c.986,0,1.922-.033,2.852.027.188.012.438.344.518.577,1.635,4.784,3.248,9.575,4.872,14.362.087.256.229.494.432.923.2-.467.349-.735.442-1.021q2.168-6.689,4.324-13.382c.488-1.509.493-1.514,2.124-1.5,1.928.011,1.659-.208,1.662,1.684q.016,8.383-.007,16.768c0,.334-.1.931-.242.956a4.883,4.883,0,0,1-1.7-.028c-.11-.02-.18-.555-.18-.852-.012-4.277-.008-8.555-.014-12.832,0-.325-.052-.649-.079-.974Z" transform="translate(-808.192 -503.838)" fill="#2b2e34"/><path d="M958.234,541.614c.019-.38.045-.658.045-.935,0-1.574.018-3.148,0-4.721-.007-.494.125-.708.66-.7,1.748.034,1.451-.111,1.454,1.4q.015,8.774,0,17.548c0,1.108-.755,1.532-1.761,1.038a1.871,1.871,0,0,0-.905-.085,20.061,20.061,0,0,1-3.72.253c-2.623-.326-3.992-2.1-4.517-4.578a10.932,10.932,0,0,1,.2-5.368,5.855,5.855,0,0,1,7.637-4.117C957.594,541.429,957.863,541.506,958.234,541.614Zm.047,6.8V546.45c0-.681.041-1.366-.018-2.042a1.264,1.264,0,0,0-.409-.843,4.461,4.461,0,0,0-4.959.507c-1.806,1.7-1.865,5.853-.743,7.751,1.194,2.019,3.841,2.243,5.788,1.307.194-.093.319-.512.326-.784C958.3,551.036,958.282,549.725,958.282,548.416Z" transform="translate(-825.41 -503.528)" fill="#2b2e34"/><path d="M940.219,556.359a.917.917,0,0,1,.067.2c-.013,1.9.286,1.61-1.469,1.824a17.673,17.673,0,0,1-3.681.1,4.888,4.888,0,0,1-4.569-4.207,11.617,11.617,0,0,1,.666-7.387,5.076,5.076,0,0,1,5.724-2.738,4.5,4.5,0,0,1,3.671,4.408c.055.883,0,1.773.026,2.66.012.513-.209.672-.711.667-2.177-.021-4.355-.01-6.533-.007-.913,0-1.04.157-.891,1.073.426,2.64,1.861,3.841,4.555,3.728C938.112,556.645,939.146,556.475,940.219,556.359Zm-4.607-6.421h1.5c1.639,0,1.644-.007,1.389-1.619a2.527,2.527,0,0,0-2.577-2.269c-2.055-.11-2.919,1.529-3.309,3.146-.135.56.079.767.641.747C934.038,549.918,934.825,549.937,935.612,549.938Z" transform="translate(-818.886 -506.549)" fill="#2b2e34"/><path d="M981.28,546.344a8.64,8.64,0,0,1,.022-1.322.778.778,0,0,1,.46-.522,9.03,9.03,0,0,1,4.348-.209,2.928,2.928,0,0,1,2.372,2.249,11.1,11.1,0,0,1,.382,2.477c.047,2.832.027,5.665,0,8.5,0,.287-.195.812-.309.816a2.2,2.2,0,0,1-1.411-.262.721.721,0,0,0-.856-.171,17.187,17.187,0,0,1-3.193.656c-2.9.143-4.221-2.046-3.98-4.555s1.737-3.807,4.275-3.887c.89-.028,1.777-.122,2.667-.16.426-.018.623-.188.608-.623-.017-.5.037-1-.021-1.491a1.732,1.732,0,0,0-1.933-1.739C983.6,546.12,982.485,546.253,981.28,546.344Zm5.387,7.459c0-.419-.027-.841.006-1.259.052-.644-.258-.841-.846-.786-.7.066-1.417.065-2.113.179a2.574,2.574,0,0,0-2.3,1.4,2.477,2.477,0,0,0,.254,2.542,2.246,2.246,0,0,0,2.332.778C986.323,556.283,986.668,555.905,986.668,553.8Z" transform="translate(-835.668 -506.57)" fill="#2b2e34"/><path d="M972.065,558.492c-.014-.325-.029-.507-.029-.688,0-4.429,0-8.859,0-13.41a9.123,9.123,0,0,1,1.563.03c.184.033.428.407.437.633.045,1.152.02,2.307.02,3.461q0,4.446,0,8.891c0,1.084,0,1.084-1.073,1.082Z" transform="translate(-833.243 -506.66)" fill="#2b2e34"/><path d="M971.617,538.576c0-1.085.4-1.578,1.282-1.592.841-.012,1.355.585,1.341,1.56-.014,1.018-.445,1.482-1.376,1.481C971.9,540.024,971.618,539.7,971.617,538.576Z" transform="translate(-833.099 -504.121)" fill="#2b2e34"/><path d="M853.553,557.876c0,.105,0,.21,0,.314,0,1.572-.433,1.979-1.969,1.87a1.88,1.88,0,0,1-1.909-2.318,1.633,1.633,0,0,1,1.348-1.536l.308-.067C853.559,555.657,853.559,555.657,853.553,557.876Z" transform="translate(-791.177 -510.615)" fill="#2b2e34"/><path d="M797.02,555.848c0,1.3.013,2.368-.015,3.437a.635.635,0,0,1-.331.446,3.174,3.174,0,0,1-2.524.132,1.7,1.7,0,0,1-1.057-1.687c-.03-.828.19-1.588,1.036-1.834A25.039,25.039,0,0,1,797.02,555.848Z" transform="translate(-771.738 -510.604)" fill="#2b2e34"/></g></g></svg>