<svg xmlns="http://www.w3.org/2000/svg" width="116.472" height="126.918" viewBox="0 0 116.472 126.918"><g transform="translate(-74.406 -99.304)"><path d="M315.508,729.9a3.794,3.794,0,0,0,1.648-1.268,3.136,3.136,0,0,0,.588-1.878,2.665,2.665,0,0,0-.807-2.016,4.732,4.732,0,0,0-2.351-1.095l-2.12-.415a2.181,2.181,0,0,1-1.106-.461,1.083,1.083,0,0,1-.346-.83,1.186,1.186,0,0,1,.519-1,2.422,2.422,0,0,1,1.394-.4,2.606,2.606,0,0,1,1.279.311,1.88,1.88,0,0,1,.818.841.815.815,0,0,0,.288.311.488.488,0,0,0,.38.012l1.152-.346a.551.551,0,0,0,.357-.253.422.422,0,0,0-.012-.415,4,4,0,0,0-1.636-1.809,5,5,0,0,0-2.627-.68,5.77,5.77,0,0,0-2.339.45,3.767,3.767,0,0,0-1.59,1.233,3.031,3.031,0,0,0-.565,1.82,2.8,2.8,0,0,0,.864,2.132,5.139,5.139,0,0,0,2.547,1.164l2.1.415a1.918,1.918,0,0,1,.922.4,1.035,1.035,0,0,1,.3.726,1.236,1.236,0,0,1-.6,1.072,2.8,2.8,0,0,1-1.59.4,3.307,3.307,0,0,1-1.6-.369,1.847,1.847,0,0,1-.91-1.014.932.932,0,0,0-.254-.334.447.447,0,0,0-.369-.058l-1.175.161a.572.572,0,0,0-.392.207.471.471,0,0,0-.046.415,3.85,3.85,0,0,0,1.717,2.2,5.749,5.749,0,0,0,3.123.818,6.217,6.217,0,0,0,2.443-.449m-9.156.2a.563.563,0,0,0,.415-.138.53.53,0,0,0,.138-.392v-1.244a.53.53,0,0,0-.138-.392.563.563,0,0,0-.415-.138h-1.521a1.423,1.423,0,0,1-.979-.3,1.085,1.085,0,0,1-.334-.853v-5.623h2.835a.563.563,0,0,0,.415-.138.53.53,0,0,0,.138-.392v-1.175a.531.531,0,0,0-.138-.392.564.564,0,0,0-.415-.138h-2.835v-3.019a.53.53,0,0,0-.138-.392.563.563,0,0,0-.415-.138h-1.475a.563.563,0,0,0-.415.138.529.529,0,0,0-.138.392v3.019h-2.051a.481.481,0,0,0-.53.53v1.175a.481.481,0,0,0,.53.53h2.051v5.738a3.284,3.284,0,0,0,.9,2.466,3.447,3.447,0,0,0,2.512.876Zm-17.211-6.384a3.513,3.513,0,0,1,.979-2.2,2.9,2.9,0,0,1,2.109-.8,2.983,2.983,0,0,1,2.189.8,3.184,3.184,0,0,1,.876,2.2Zm6.13,5.9a4.959,4.959,0,0,0,1.959-1.982.452.452,0,0,0,.035-.4.643.643,0,0,0-.311-.288l-1.06-.438a.507.507,0,0,0-.392-.023.932.932,0,0,0-.323.253,2.75,2.75,0,0,1-1.106,1.049,3.38,3.38,0,0,1-1.613.38,3.2,3.2,0,0,1-2.235-.772,3.452,3.452,0,0,1-1.06-2.109h8.043a.529.529,0,0,0,.392-.138.563.563,0,0,0,.138-.415v-.438a6.461,6.461,0,0,0-.68-3.031,4.973,4.973,0,0,0-1.913-2.028,5.5,5.5,0,0,0-2.846-.726,5.708,5.708,0,0,0-2.938.749,5.06,5.06,0,0,0-1.97,2.085,6.629,6.629,0,0,0-.692,3.088,6.5,6.5,0,0,0,.715,3.111,5.085,5.085,0,0,0,2.016,2.074,5.994,5.994,0,0,0,3.007.738,5.615,5.615,0,0,0,2.835-.738m-13.941.484a.574.574,0,0,0,.6-.438l5.416-15.118a.457.457,0,0,0-.023-.426.463.463,0,0,0-.415-.173h-1.89a.574.574,0,0,0-.6.438l-4.448,12.859-4.448-12.859a.575.575,0,0,0-.6-.438h-1.936a.462.462,0,0,0-.415.173.455.455,0,0,0-.023.426l5.393,15.118a.708.708,0,0,0,.242.334.652.652,0,0,0,.38.1Z" transform="translate(-162.484 -504.123)" fill="#2b2e34"/><path d="M188.643,608.557a3.793,3.793,0,0,0,1.648-1.267,3.137,3.137,0,0,0,.588-1.878,2.664,2.664,0,0,0-.807-2.016,4.732,4.732,0,0,0-2.351-1.095l-2.12-.415a2.18,2.18,0,0,1-1.106-.461,1.084,1.084,0,0,1-.346-.83,1.185,1.185,0,0,1,.519-1,2.419,2.419,0,0,1,1.394-.4,2.607,2.607,0,0,1,1.279.311,1.88,1.88,0,0,1,.818.841.815.815,0,0,0,.288.311.489.489,0,0,0,.38.011l1.152-.346a.552.552,0,0,0,.357-.253.422.422,0,0,0-.012-.415,4,4,0,0,0-1.636-1.809,5,5,0,0,0-2.627-.68,5.775,5.775,0,0,0-2.339.449,3.768,3.768,0,0,0-1.59,1.233,3.031,3.031,0,0,0-.565,1.821,2.8,2.8,0,0,0,.864,2.132,5.143,5.143,0,0,0,2.546,1.164l2.1.415a1.916,1.916,0,0,1,.922.4,1.034,1.034,0,0,1,.3.726,1.236,1.236,0,0,1-.6,1.072,2.8,2.8,0,0,1-1.59.4,3.308,3.308,0,0,1-1.6-.369,1.848,1.848,0,0,1-.91-1.014.937.937,0,0,0-.254-.334.447.447,0,0,0-.369-.057l-1.175.161a.572.572,0,0,0-.392.208.471.471,0,0,0-.046.415,3.85,3.85,0,0,0,1.717,2.2,5.748,5.748,0,0,0,3.123.818,6.215,6.215,0,0,0,2.443-.45m-10.616,0a3.793,3.793,0,0,0,1.648-1.267,3.137,3.137,0,0,0,.588-1.878,2.665,2.665,0,0,0-.807-2.016A4.734,4.734,0,0,0,177.1,602.3l-2.12-.415a2.181,2.181,0,0,1-1.106-.461,1.084,1.084,0,0,1-.346-.83,1.186,1.186,0,0,1,.519-1,2.42,2.42,0,0,1,1.394-.4,2.607,2.607,0,0,1,1.279.311,1.879,1.879,0,0,1,.818.841.815.815,0,0,0,.288.311.489.489,0,0,0,.38.011l1.152-.346a.552.552,0,0,0,.357-.253.422.422,0,0,0-.012-.415,4,4,0,0,0-1.636-1.809,5,5,0,0,0-2.627-.68,5.775,5.775,0,0,0-2.339.449,3.769,3.769,0,0,0-1.59,1.233,3.031,3.031,0,0,0-.565,1.821,2.8,2.8,0,0,0,.864,2.132,5.143,5.143,0,0,0,2.547,1.164l2.1.415a1.916,1.916,0,0,1,.922.4,1.034,1.034,0,0,1,.3.726,1.236,1.236,0,0,1-.6,1.072,2.8,2.8,0,0,1-1.59.4,3.308,3.308,0,0,1-1.6-.369,1.849,1.849,0,0,1-.91-1.014.937.937,0,0,0-.254-.334.447.447,0,0,0-.369-.057l-1.175.161a.572.572,0,0,0-.392.208.471.471,0,0,0-.046.415,3.85,3.85,0,0,0,1.717,2.2,5.748,5.748,0,0,0,3.123.818,6.214,6.214,0,0,0,2.443-.45m-16.193-2.4a3.106,3.106,0,0,1-1.152-1.244,3.9,3.9,0,0,1-.415-1.832,4.027,4.027,0,0,1,.415-1.867,3.089,3.089,0,0,1,1.152-1.256,3.256,3.256,0,0,1,1.728-.449,3.213,3.213,0,0,1,1.705.449,3.092,3.092,0,0,1,1.152,1.256,4.028,4.028,0,0,1,.415,1.867,3.9,3.9,0,0,1-.415,1.832,3.109,3.109,0,0,1-1.152,1.244,3.213,3.213,0,0,1-1.705.449,3.256,3.256,0,0,1-1.728-.449m4.816,2.1a5.017,5.017,0,0,0,2.062-2.074,7,7,0,0,0,0-6.211,5.184,5.184,0,0,0-2.062-2.086,6.214,6.214,0,0,0-3.088-.749,6.278,6.278,0,0,0-3.1.749,5.165,5.165,0,0,0-2.074,2.086,7.005,7.005,0,0,0,0,6.211,5,5,0,0,0,2.074,2.074,6.434,6.434,0,0,0,3.1.726,6.369,6.369,0,0,0,3.088-.726m-14.511.5a.481.481,0,0,0,.53-.53v-4.863a3.87,3.87,0,0,1,.715-2.454,2.283,2.283,0,0,1,1.89-.91h1.2a.481.481,0,0,0,.53-.53v-1.5a.481.481,0,0,0-.53-.53h-.945a3.033,3.033,0,0,0-1.821.565,2.653,2.653,0,0,0-1.037,1.509l-.277-1.59a.532.532,0,0,0-.576-.484h-1.175a.482.482,0,0,0-.53.53v10.255a.481.481,0,0,0,.53.53Zm-5.754-.542a5.038,5.038,0,0,0,2-2.178.336.336,0,0,0,.023-.357.709.709,0,0,0-.323-.288l-1.221-.507a.507.507,0,0,0-.392-.023.717.717,0,0,0-.3.277,2.838,2.838,0,0,1-1.118,1.095,3.288,3.288,0,0,1-1.625.4,3.332,3.332,0,0,1-1.728-.449,3.136,3.136,0,0,1-1.187-1.244,4.25,4.25,0,0,1,0-3.71A3.057,3.057,0,0,1,141.707,600a3.4,3.4,0,0,1,1.728-.438,3.29,3.29,0,0,1,1.625.4,2.841,2.841,0,0,1,1.118,1.095.716.716,0,0,0,.3.277.506.506,0,0,0,.392-.023l1.221-.53a.578.578,0,0,0,.323-.288.542.542,0,0,0-.046-.426,5.341,5.341,0,0,0-2-2.109,5.628,5.628,0,0,0-2.973-.8,6.307,6.307,0,0,0-3.077.737,5.145,5.145,0,0,0-2.086,2.086,6.882,6.882,0,0,0,0,6.2,5.144,5.144,0,0,0,2.086,2.086,6.306,6.306,0,0,0,3.077.738,5.749,5.749,0,0,0,3-.8m-19.074.542a.481.481,0,0,0,.53-.53v-5.531a3.343,3.343,0,0,1,.749-2.27,2.506,2.506,0,0,1,1.993-.864,2.328,2.328,0,0,1,1.29.357,2.49,2.49,0,0,1,.876,1,3.312,3.312,0,0,1,.323,1.5v5.807a.481.481,0,0,0,.53.53h1.5a.481.481,0,0,0,.53-.53v-6.706a4.85,4.85,0,0,0-.519-2.281,3.708,3.708,0,0,0-1.463-1.532,4.664,4.664,0,0,0-4.448.046,3.055,3.055,0,0,0-1.36,1.556l-.254-1.406a.545.545,0,0,0-.576-.461h-1.2a.481.481,0,0,0-.53.53v10.255a.481.481,0,0,0,.53.53Zm-12.6-6.384a3.514,3.514,0,0,1,.98-2.2,2.9,2.9,0,0,1,2.109-.8,2.983,2.983,0,0,1,2.189.8,3.184,3.184,0,0,1,.876,2.2Zm6.13,5.9a4.96,4.96,0,0,0,1.959-1.982.451.451,0,0,0,.035-.4.642.642,0,0,0-.311-.288l-1.06-.438a.507.507,0,0,0-.392-.023.935.935,0,0,0-.323.253,2.748,2.748,0,0,1-1.106,1.049,3.377,3.377,0,0,1-1.613.38,3.2,3.2,0,0,1-2.235-.772,3.45,3.45,0,0,1-1.06-2.109h8.043a.53.53,0,0,0,.392-.138.564.564,0,0,0,.138-.415v-.438a6.462,6.462,0,0,0-.68-3.031,4.975,4.975,0,0,0-1.913-2.028,5.505,5.505,0,0,0-2.846-.726,5.71,5.71,0,0,0-2.938.749,5.062,5.062,0,0,0-1.97,2.086,6.63,6.63,0,0,0-.691,3.088,6.5,6.5,0,0,0,.715,3.111A5.087,5.087,0,0,0,115,608.269a6,6,0,0,0,3.007.738,5.615,5.615,0,0,0,2.835-.738m-18.567-5.9a3.513,3.513,0,0,1,.979-2.2,2.9,2.9,0,0,1,2.109-.8,2.983,2.983,0,0,1,2.189.8,3.184,3.184,0,0,1,.876,2.2Zm6.13,5.9a4.96,4.96,0,0,0,1.959-1.982.451.451,0,0,0,.035-.4.642.642,0,0,0-.311-.288l-1.06-.438a.507.507,0,0,0-.392-.023.935.935,0,0,0-.323.253,2.749,2.749,0,0,1-1.106,1.049,3.378,3.378,0,0,1-1.613.38,3.2,3.2,0,0,1-2.235-.772,3.451,3.451,0,0,1-1.06-2.109h8.043a.53.53,0,0,0,.392-.138.563.563,0,0,0,.138-.415v-.438a6.462,6.462,0,0,0-.68-3.031,4.975,4.975,0,0,0-1.913-2.028,5.506,5.506,0,0,0-2.846-.726,5.71,5.71,0,0,0-2.938.749,5.06,5.06,0,0,0-1.97,2.086,6.628,6.628,0,0,0-.692,3.088,6.5,6.5,0,0,0,.715,3.111,5.087,5.087,0,0,0,2.016,2.074,6,6,0,0,0,3.007.738,5.616,5.616,0,0,0,2.835-.738m-14.1.484a.481.481,0,0,0,.53-.53v-4.863a3.87,3.87,0,0,1,.715-2.454,2.283,2.283,0,0,1,1.89-.91h1.2a.481.481,0,0,0,.53-.53v-1.5a.481.481,0,0,0-.53-.53H97.7a3.032,3.032,0,0,0-1.821.565,2.653,2.653,0,0,0-1.037,1.509l-.277-1.59a.532.532,0,0,0-.576-.484H92.811a.481.481,0,0,0-.53.53v10.255a.481.481,0,0,0,.53.53Zm-7.6-.749a6.8,6.8,0,0,0,2.731-2.834,9.01,9.01,0,0,0,.957-4.229v-.761a.482.482,0,0,0-.53-.53H82.61a.564.564,0,0,0-.415.138.529.529,0,0,0-.138.392v1.245a.489.489,0,0,0,.553.553h5.024a4.867,4.867,0,0,1-.726,2.328,4.269,4.269,0,0,1-1.705,1.533,5.422,5.422,0,0,1-2.477.542,5.588,5.588,0,0,1-2.835-.714,4.867,4.867,0,0,1-1.924-2.016,6.4,6.4,0,0,1-.68-3.007,6.3,6.3,0,0,1,.668-2.961,4.944,4.944,0,0,1,1.855-1.993,5.149,5.149,0,0,1,2.708-.714,5.349,5.349,0,0,1,1.97.357,4.873,4.873,0,0,1,1.59,1,4.248,4.248,0,0,1,1.026,1.5.72.72,0,0,0,.277.346.445.445,0,0,0,.415-.023l1.5-.53a.6.6,0,0,0,.323-.265.517.517,0,0,0,.023-.4,6.278,6.278,0,0,0-1.486-2.431,7.02,7.02,0,0,0-2.5-1.625,8.731,8.731,0,0,0-3.2-.576,8.3,8.3,0,0,0-4.217,1.048,7.228,7.228,0,0,0-2.823,2.938,9.887,9.887,0,0,0,.023,8.723,7.2,7.2,0,0,0,2.892,2.938,8.678,8.678,0,0,0,4.286,1.037,8.2,8.2,0,0,0,4.1-1" transform="translate(0 -404.374)" fill="#2b2e34"/><path d="M227.954,131.87V119.212a1.567,1.567,0,0,0-1.566-1.567h-7.78a1.568,1.568,0,0,0-1.567,1.567V131.87a1.566,1.566,0,0,1-1.566,1.566H202.815A1.568,1.568,0,0,0,201.248,135v7.78a1.567,1.567,0,0,0,1.567,1.566h12.658a1.567,1.567,0,0,1,1.566,1.567v12.658a1.567,1.567,0,0,0,1.567,1.566h7.78a1.566,1.566,0,0,0,1.566-1.566V145.917a1.567,1.567,0,0,1,1.566-1.567h17.526a1.57,1.57,0,0,1,1.521,1.948,28.538,28.538,0,0,1-7.034,12.965,26.812,26.812,0,0,1-19.611,8.306,27.644,27.644,0,0,1-19.945-8.354,28.883,28.883,0,0,1,20.329-49,28.412,28.412,0,0,1,15.357,4.317,10.007,10.007,0,0,0,12.139-1.212l.8-.752a1.067,1.067,0,0,0,.033-1.527,39.692,39.692,0,0,0-56.466,55.8,38.474,38.474,0,0,0,27.752,11.641c21.555,0,38.44-17.39,38.44-39.589V135a1.568,1.568,0,0,0-1.567-1.567H229.52a1.566,1.566,0,0,1-1.566-1.566" transform="translate(-88.993)" fill="#2b2e34"/></g></svg>