<svg xmlns="http://www.w3.org/2000/svg" width="153.224" height="39.302" viewBox="0 0 153.224 39.302">
  <g id="HAYS" transform="translate(-58.565 -106.364)">
    <path id="Path_718" data-name="Path 718" d="M158.532,106.814c.22-.194-15.323,24.372-15.388,24.319v13.862c.065.193-12.972.193-12.905,0V131.133c-.066.053-15.6-24.513-15.384-24.319-.216-.194,13.74-.194,13.82,0-.08-.194,8.016,12.592,8.016,12.656,0-.064,8.1-12.85,8.018-12.656.079-.194,14.044-.194,13.824,0" transform="translate(20.081 0.109)" fill="#2b2e34"/>
    <path id="Path_719" data-name="Path 719" d="M117.155,106.812c.069-.191-13.355-.191-13.289,0-.065-.191-15.5,38.376-15.279,38.183-.218.193,12.933.193,13.06,0,.035-.157,1.818-5.249,1.887-5.385-.071.14,13.583.14,13.517,0,.062.136,1.739,5.228,1.771,5.385.126.193,13.608.193,13.389,0C132.43,145.188,117.224,106.62,117.155,106.812Z" transform="translate(10.709 0.108)" fill="#2b2e34"/>
    <path id="Path_720" data-name="Path 720" d="M101.982,126.958c-.038.053,3.742-10.743,3.739-10.69,0-.053,3.555,10.743,3.517,10.69C109.276,127.011,101.944,127.011,101.982,126.958Z" transform="translate(15.489 3.533)" fill="#fff"/>
    <path id="Path_721" data-name="Path 721" d="M90.025,106.682c-3.32,0-6.637.045-6.542.141v12.542c.03-.03-2.943-.047-5.917-.047s-5.947.018-5.918.047V106.823c.1-.1-3.221-.141-6.541-.141s-6.636.045-6.54.141V145c-.011.1,3.266.144,6.54.144s6.553-.048,6.541-.144V131.893c0,.033,2.958.046,5.918.046h0c2.962,0,5.922-.014,5.917-.046V145c-.012.1,3.264.144,6.542.144s6.552-.048,6.54-.144V106.823c.1-.1-3.221-.141-6.54-.141" transform="translate(0 0.113)" fill="#2b2e34"/>
    <path id="Path_722" data-name="Path 722" d="M167.459,120.249c-4.158-.7-8.253-.468-8.575-2.2-.346-1.585,1.838-1.95,3.46-1.871,3.391-.142,8.255,1.345,11.085,2.43l5.517-8.62a36.626,36.626,0,0,0-18.727-3.528c-8.894.662-14.216,6.156-13.9,12.561.027,8.226,8.116,10.634,12.06,11.3,5.766,1.107,10.227.62,10.055,2.811-.024,1.49-2.8,1.982-5.757,1.795a24.218,24.218,0,0,1-12.157-3.567l-5.753,8.945c6.624,4.688,14.557,5.719,20.824,5.253,8.347-.764,14.72-4.689,15.311-11.507,1.244-9.155-6.133-12.756-13.44-13.809" transform="translate(30.752 0)" fill="#2b2e34"/>
  </g>
</svg>
