<svg xmlns="http://www.w3.org/2000/svg" width="211.236" height="47.457" viewBox="0 0 211.236 47.457">
  <g id="Hydralyte" transform="translate(-220.592 -163.308)">
    <path id="Path_694" data-name="Path 694" d="M420.407,200.747c3.709-1.364,5.867-4.46,6.9-8.908l-3.3,0c-1.061,4.08-3.679,6.915-8.5,6.915-6.35,0-8.853-5.818-8.911-10.641h20.812c.259-7.6-3.193-15.21-11.9-15.21-8.6,0-12.218,7.183-12.218,14.32a17.3,17.3,0,0,0,2.342,9.26,4.788,4.788,0,0,0-3.149,1.7c-.763.067-1.522.1-2.284.1-2.354-.158-2.674-1.414-2.674-3.565V176.427h5.515v-2.782h-5.515v-8.129h-3.3v8.129h-6.39l-8.334,23.119-8.92-23.119h-3.509l10.8,27-.037.1H366.9l0-37.439h-3.293v37.439h-2.046c-.683-1.1-.946-3.565-.942-6.025l0-14.109c0-6.5-6.5-7.706-11.894-7.706-6.09,0-12.317,2.1-12.747,9.07h7.451c.256-2.936,2.088-4.085,4.927-4.085,2.616,0,4.826.469,4.826,3.67,0,3.037-4.252,2.883-8.817,3.563-4.609.63-9.228,2.1-9.228,8.235a7.357,7.357,0,0,0,4.891,7.387h-14.59V188.532c0-4.772,1.887-8.721,7.34-8.721h2.678v-6.9h-1.628a9.585,9.585,0,0,0-8.652,5.768h-.105v-5.029h-7.077v27.1h-2.213V163.308h-7.45v13.637h-.051a9.48,9.48,0,0,0-8.073-4.039c-7.971,0-12.008,6.766-12.008,14.053,0,6.054,2.6,11.8,7.9,13.787H280.157l10.058-27.1h-7.7L276.586,192.2h-.1l-6.134-18.556h-7.971l9.543,25.429a4.574,4.574,0,0,1,.314,1.672H262.221V163.308h-8.234v14.367h-15.15V163.308H230.6v33.839a4.4,4.4,0,0,0-5.064,3.6h-4.945v.78h4.885a4.394,4.394,0,0,0,8.788,0h37.894a3.079,3.079,0,0,1-2.8,2.627A41.389,41.389,0,0,1,265,203.9v6.127a44.551,44.551,0,0,0,4.561.271c5.137,0,7.709-1.783,9.332-6.143l.975-2.627h17.991a2.869,2.869,0,0,0,5.268,1.431,4.395,4.395,0,0,0,8.529-1.431h37.682a3.472,3.472,0,0,0,5.918,2.318,3.435,3.435,0,0,0,1.014-2.318h21.263l-.823,2.21c-1.1,2.512-1.78,4.243-4.717,4.243a11.49,11.49,0,0,1-2.259-.257V210.5a8.49,8.49,0,0,0,2.512.264c4.141,0,5.252-1.312,7.144-5.871l1.266-3.367h12.016a2.867,2.867,0,0,0,5.728,0h2.977a4.795,4.795,0,0,0,9.574,0h20.367v-.78Zm-4.9-25.06c5.347,0,8.437,4.668,8.6,9.646H406.595C407.113,180.412,410.107,175.687,415.507,175.687Zm-185.637,29.4a3.609,3.609,0,1,1,3.615-3.609A3.616,3.616,0,0,1,229.87,205.084Zm24.117-4.337h-15.15V184.6h15.15Zm46.735,2.733a2.086,2.086,0,1,1,2.092-2.089A2.091,2.091,0,0,1,300.722,203.48Zm1.468-7.6c-4.613,0-6.55-4.461-6.55-8.707,0-4.457,1.674-8.655,6.55-8.655,4.83,0,6.4,4.2,6.4,8.6C308.591,191.569,307.119,195.878,302.19,195.878Zm5.073,9.206a3.609,3.609,0,1,1,3.613-3.609A3.616,3.616,0,0,1,307.263,205.084Zm39.878-8.583c-2.413,0-4.561-.678-4.561-3.459,0-2.729,2.1-3.514,4.4-3.984,2.306-.423,4.929-.469,6.193-1.573v2.777C353.176,191.889,352.964,196.5,347.142,196.5Zm7.563,6.792a2.687,2.687,0,1,1,.787-1.9A2.675,2.675,0,0,1,354.7,203.292Zm26.244-2.546,9.142-24.32h4.127v18.556a9.129,9.129,0,0,0,.536,3.651,2.875,2.875,0,0,0-2.012,2.112Zm14.584,2.733a2.086,2.086,0,1,1,2.09-2.09A2.089,2.089,0,0,1,395.533,203.48Zm10.625,1.789a4.016,4.016,0,1,1,4.02-4.021A4.02,4.02,0,0,1,406.159,205.269Z" fill="#2b2e34"/>
    <g id="Group_836" data-name="Group 836" transform="translate(427.417 169.252)">
      <path id="Path_695" data-name="Path 695" d="M1119.762,191.271a2.312,2.312,0,0,1-.177.92,2.138,2.138,0,0,1-1.184,1.166,2.206,2.206,0,0,1-.838.162,2.271,2.271,0,0,1-.892-.171,2.09,2.09,0,0,1-.7-.472,2.171,2.171,0,0,1-.457-.712,2.372,2.372,0,0,1-.165-.892,2.318,2.318,0,0,1,.177-.92,2.132,2.132,0,0,1,1.187-1.166,2.246,2.246,0,0,1,.847-.162,2.206,2.206,0,0,1,.838.162,2.138,2.138,0,0,1,1.184,1.166A2.312,2.312,0,0,1,1119.762,191.271Zm-.481,0a2.07,2.07,0,0,0-.133-.751,1.77,1.77,0,0,0-.366-.589,1.65,1.65,0,0,0-.547-.382,1.676,1.676,0,0,0-.673-.135,1.713,1.713,0,0,0-.682.135,1.649,1.649,0,0,0-.55.382,1.765,1.765,0,0,0-.367.589,2.07,2.07,0,0,0-.132.751,2.131,2.131,0,0,0,.12.721,1.768,1.768,0,0,0,.346.589,1.646,1.646,0,0,0,.544.4,1.7,1.7,0,0,0,.721.147,1.676,1.676,0,0,0,.673-.135,1.65,1.65,0,0,0,.547-.382,1.776,1.776,0,0,0,.366-.586A2.063,2.063,0,0,0,1119.281,191.271Zm-2.164,1.286h-.408v-2.488h.943a1.14,1.14,0,0,1,.679.168.634.634,0,0,1,.228.547.608.608,0,0,1-.186.493.843.843,0,0,1-.463.186l.7,1.094h-.463l-.643-1.064h-.385Zm.457-1.412q.114,0,.219-.009a.465.465,0,0,0,.183-.051.336.336,0,0,0,.126-.117.4.4,0,0,0,.048-.213.287.287,0,0,0-.051-.18.342.342,0,0,0-.129-.1.534.534,0,0,0-.174-.045c-.064-.006-.126-.009-.187-.009h-.493v.727Z" transform="translate(-1115.351 -189.023)" fill="#2b2e34"/>
    </g>
  </g>
</svg>
