<svg xmlns="http://www.w3.org/2000/svg" width="196.198" height="82.849" viewBox="0 0 196.198 82.849">
  <g id="Group_1293" data-name="Group 1293" transform="translate(-0.006 0)">
    <path id="Path_914" data-name="Path 914" d="M41.149,46.249c-.143.262-.284.538-.424.845-.061.133-.12.263-.182.4h.011C40.754,47.037,40.948,46.624,41.149,46.249Z" transform="translate(-18.145 -20.703)" fill="#2b2e34"/>
    <path id="Path_915" data-name="Path 915" d="M53.577,54c.041-.031.086-.059.129-.088l.006,0C53.666,53.933,53.62,53.962,53.577,54Z" transform="translate(-23.981 -24.13)" fill="#2b2e34"/>
    <path id="Path_916" data-name="Path 916" d="M120.076,80.957a5.269,5.269,0,0,1-.85-2.25l-.017-.131v.4A2.7,2.7,0,0,0,120.076,80.957Z" transform="translate(-53.361 -35.174)" fill="#2b2e34"/>
    <path id="Path_917" data-name="Path 917" d="M305.258,103.07h0c-.135.045-.277.086-.425.128C304.986,103.158,305.125,103.115,305.258,103.07Z" transform="translate(-136.456 -46.138)" fill="#2b2e34"/>
    <path id="Path_918" data-name="Path 918" d="M12.376,99.779v0h0v0Z" transform="translate(-5.537 -44.666)" fill="#2b2e34"/>
    <path id="Path_919" data-name="Path 919" d="M306.568,102.612c.01,0,.023-.009.034-.015l.006,0c.047-.023.085-.051.13-.075-.06.031-.113.066-.177.1Z" transform="translate(-137.227 -45.892)" fill="#2b2e34"/>
    <path id="Path_920" data-name="Path 920" d="M163.3,129.7c3.848-1.049,7.969-2.156,12.525-3.306-4.546,1.146-8.67,2.254-12.515,3.3Z" transform="translate(-73.097 -56.578)" fill="#2b2e34"/>
    <path id="Path_921" data-name="Path 921" d="M305.764,102.975c.048-.017.1-.034.141-.051-.04.015-.079.03-.123.044Z" transform="translate(-136.871 -46.074)" fill="#2b2e34"/>
    <path id="Path_922" data-name="Path 922" d="M342.216,42.558l0,0-.008.006Z" transform="translate(-153.183 -19.051)" fill="#2b2e34"/>
    <path id="Path_923" data-name="Path 923" d="M147.977,135.113c-2.244.613-4.416,1.2-6.555,1.76C143.561,136.314,145.734,135.726,147.977,135.113Z" transform="translate(-63.304 -60.483)" fill="#2b2e34"/>
    <path id="Path_924" data-name="Path 924" d="M65.215,144.548c.242.076.484.152.726.223.07.02.14.037.21.057-.45-.129-.9-.27-1.353-.416C64.937,144.457,65.076,144.5,65.215,144.548Z" transform="translate(-29.004 -64.645)" fill="#2b2e34"/>
    <path id="Path_925" data-name="Path 925" d="M98.436,146.924l.195-.027-.334.045Z" transform="translate(-43.999 -65.758)" fill="#2b2e34"/>
    <path id="Path_926" data-name="Path 926" d="M62.241,143.525c.218.079.436.159.653.234.075.026.15.048.225.073-.424-.143-.848-.3-1.273-.456C61.978,143.426,62.11,143.477,62.241,143.525Z" transform="translate(-27.683 -64.182)" fill="#2b2e34"/>
    <path id="Path_927" data-name="Path 927" d="M70.549,146.017c.171.04.342.077.514.114.292.064.585.128.877.184.249.048.5.088.746.13.319.055.639.11.958.156.22.032.441.056.662.084.347.044.693.088,1.041.122.192.019.386.031.578.048.374.031.748.062,1.123.083.166.009.332.012.5.019.4.017.8.034,1.205.039.143,0,.287,0,.43,0,.424,0,.849,0,1.276-.009.141,0,.283-.013.424-.018.428-.015.855-.03,1.285-.057.247-.015.5-.039.745-.058.323-.025.644-.046.969-.077.48-.046.964-.1,1.448-.161A42.235,42.235,0,0,1,70.549,146.017Z" transform="translate(-31.578 -65.364)" fill="#2b2e34"/>
    <path id="Path_928" data-name="Path 928" d="M68.155,145.414c.266.07.533.142.8.206.067.016.134.029.2.045-.485-.114-.97-.241-1.457-.376C67.85,145.331,68,145.374,68.155,145.414Z" transform="translate(-30.302 -65.038)" fill="#2b2e34"/>
    <path id="Path_929" data-name="Path 929" d="M59.224,142.336c.2.082.394.164.59.241.082.033.164.061.246.093-.406-.158-.813-.326-1.221-.5C58.967,142.225,59.1,142.283,59.224,142.336Z" transform="translate(-26.336 -63.642)" fill="#2b2e34"/>
    <path id="Path_930" data-name="Path 930" d="M53.07,139.431l.472.242c.107.054.214.1.321.155q-.6-.295-1.2-.614C52.8,139.285,52.936,139.361,53.07,139.431Z" transform="translate(-23.573 -62.319)" fill="#2b2e34"/>
    <path id="Path_931" data-name="Path 931" d="M56.169,140.974c.177.082.353.165.529.244.093.042.185.078.278.119-.4-.175-.8-.36-1.195-.551C55.91,140.848,56.04,140.914,56.169,140.974Z" transform="translate(-24.967 -63.022)" fill="#2b2e34"/>
    <path id="Path_932" data-name="Path 932" d="M49.921,137.7c.14.08.28.16.42.238s.253.135.38.2q-.612-.335-1.228-.7C49.636,137.527,49.779,137.616,49.921,137.7Z" transform="translate(-22.153 -61.526)" fill="#2b2e34"/>
    <path id="Path_933" data-name="Path 933" d="M299.2,104.131l.316-.04-.213.025C299.268,104.122,299.231,104.126,299.2,104.131Z" transform="translate(-133.931 -46.596)" fill="#2b2e34"/>
    <path id="Path_934" data-name="Path 934" d="M264.489,106.632c-6.372,1-13.7,2.314-21.545,3.873C250.785,108.946,258.115,107.636,264.489,106.632Z" transform="translate(-108.75 -47.733)" fill="#2b2e34"/>
    <path id="Path_935" data-name="Path 935" d="M270.588,7.9l-.031,0-.113-.009.021.006h.006A1.157,1.157,0,0,0,270.588,7.9Z" transform="translate(-121.06 -3.533)" fill="#2b2e34"/>
    <path id="Path_936" data-name="Path 936" d="M270.916,7.93h-.006l0,0c.165.015.331.035.5.052C271.246,7.967,271.08,7.944,270.916,7.93Z" transform="translate(-121.269 -3.55)" fill="#2b2e34"/>
    <path id="Path_937" data-name="Path 937" d="M189.5,11.608a37.813,37.813,0,0,0-17.281-5.575,62.179,62.179,0,0,0-17.188,1.636C144.5,9.905,130.9,14.124,110.495,19.457A534.2,534.2,0,0,1,54.364,31.1a5.751,5.751,0,0,0-1.067.235l-.218.087a.094.094,0,0,0-.013.007l.013-.007-.009.006.213-.085a5.813,5.813,0,0,1,1.067-.235,534.249,534.249,0,0,0,56.13-11.648c20.4-5.332,34-9.551,44.536-11.788A62.179,62.179,0,0,1,172.2,6.041a37.807,37.807,0,0,1,17.282,5.575A78.7,78.7,0,0,1,209.83,29.36l.056.081.077.081-.118-.171A78.7,78.7,0,0,0,189.5,11.608Z" transform="translate(-23.752 -2.656)" fill="#2b2e34"/>
    <path id="Path_938" data-name="Path 938" d="M273.155,8.173l-.044,0c.26.033.521.071.783.11l-.147-.022C273.549,8.228,273.351,8.2,273.155,8.173Z" transform="translate(-122.254 -3.657)" fill="#2b2e34"/>
    <path id="Path_939" data-name="Path 939" d="M52.537,52.277a2.032,2.032,0,0,1,.3-.178l0,0A2.055,2.055,0,0,0,52.537,52.277Z" transform="translate(-23.515 -23.322)" fill="#2b2e34"/>
    <path id="Path_940" data-name="Path 940" d="M235.669,115.061l.283-.058-.3.062Z" transform="translate(-105.484 -51.481)" fill="#2b2e34"/>
    <path id="Path_941" data-name="Path 941" d="M303.238,103.615l.075-.012.1-.02-.046.008-.054.009Z" transform="translate(-135.74 -46.369)" fill="#2b2e34"/>
    <path id="Path_942" data-name="Path 942" d="M241.127,113.8l.117-.023-1.263.254Z" transform="translate(-107.424 -50.932)" fill="#2b2e34"/>
    <path id="Path_943" data-name="Path 943" d="M41.566,43.849c.014-.024.029-.05.044-.073.1-.16.208-.313.32-.455l0-.007a4.242,4.242,0,0,1,1.833-1.363l.043-.017-.055.01c-1.489.6-2.16,1.625-2.882,3.218.14-.307.281-.582.424-.845C41.385,44.155,41.474,44,41.566,43.849Z" transform="translate(-18.294 -18.771)" fill="#2b2e34"/>
    <path id="Path_944" data-name="Path 944" d="M40.724,47.778c-.061.134-.122.263-.184.405h0C40.6,48.041,40.664,47.911,40.724,47.778Z" transform="translate(-18.145 -21.388)" fill="#2b2e34"/>
    <path id="Path_945" data-name="Path 945" d="M341.452,42.569l.008-.006c-.311.212-.623.429-.936.65l.006,0C340.839,42.991,341.146,42.778,341.452,42.569Z" transform="translate(-152.432 -19.053)" fill="#2b2e34"/>
    <path id="Path_946" data-name="Path 946" d="M339.883,44.041l.069-.049c.069-.05.137-.1.206-.15C340.066,43.908,339.974,43.976,339.883,44.041Z" transform="translate(-152.144 -19.626)" fill="#2b2e34"/>
    <path id="Path_947" data-name="Path 947" d="M338.439,45.067c-.1.074-.2.152-.3.227h0C338.237,45.22,338.339,45.14,338.439,45.067Z" transform="translate(-151.363 -20.174)" fill="#2b2e34"/>
    <path id="Path_948" data-name="Path 948" d="M336.127,46.675c.172-.134.342-.256.514-.386h0C336.47,46.419,336.3,46.541,336.127,46.675Z" transform="translate(-150.463 -20.721)" fill="#2b2e34"/>
    <path id="Path_949" data-name="Path 949" d="M342.243,42.532l-.024.017,0,0Z" transform="translate(-153.19 -19.039)" fill="#2b2e34"/>
    <path id="Path_950" data-name="Path 950" d="M346.827,39.513c-.05.03-.1.064-.15.093l.02-.012C346.74,39.568,346.784,39.539,346.827,39.513Z" transform="translate(-155.186 -17.688)" fill="#2b2e34"/>
    <path id="Path_951" data-name="Path 951" d="M312.755,26.156c-.012-.009-.021-.019-.033-.028-.043-.032-.088-.064-.126-.1-.088-.073-.183-.145-.279-.214-.078-.077-.194-.141-.269-.218-.117-.085-.222-.166-.339-.241.1.076.2.155.3.231C312.261,25.777,312.508,25.967,312.755,26.156Z" transform="translate(-139.532 -11.352)" fill="#2b2e34"/>
    <path id="Path_952" data-name="Path 952" d="M310.09,24.183a.344.344,0,0,1-.04-.04c-.165-.115-.335-.24-.507-.364-.016-.018-.04-.02-.057-.05-.327-.236-.667-.46-1-.692.544.38,1.084.764,1.616,1.158Z" transform="translate(-138.09 -10.313)" fill="#2b2e34"/>
    <path id="Path_953" data-name="Path 953" d="M313.874,27.009l.139.106a.316.316,0,0,1-.032-.029l-.025-.019.022.017Z" transform="translate(-140.501 -12.091)" fill="#2b2e34"/>
    <path id="Path_954" data-name="Path 954" d="M289.77,12.55l.393.163c.109.046.218.1.326.142h0l.334.145.078.034h0l.146.064c.168.076.336.157.5.235.253.118.506.236.759.361-.171-.084-.34-.158-.51-.239.319.151.637.306.957.468-.074-.038-.149-.079-.223-.116l.375.19c.23.118.461.237.692.36.062.033.124.067.186.1h0l.138.075c.113.062.226.122.34.185.453.251.906.51,1.36.783-.17-.1-.34-.193-.509-.292.173.1.346.194.519.3.3.181.6.372.9.557.938.581,1.86,1.177,2.76,1.8-1.187-.816-2.393-1.613-3.639-2.37-.156-.093-.311-.181-.466-.271-.261-.154-.523-.305-.784-.452q-.446-.249-.89-.484c-.134-.071-.268-.139-.4-.208-.5-.259-1-.5-1.5-.736-.193-.089-.386-.182-.578-.268-.249-.113-.5-.22-.747-.326-.226-.1-.451-.189-.676-.281-.18-.072-.359-.146-.538-.215l-.015,0C289.293,12.347,289.532,12.452,289.77,12.55Z" transform="translate(-129.392 -5.484)" fill="#2b2e34"/>
    <path id="Path_955" data-name="Path 955" d="M273.778,8.26c-.195-.028-.391-.058-.585-.083h0c.2.025.394.055.591.083Z" transform="translate(-122.29 -3.661)" fill="#2b2e34"/>
    <path id="Path_956" data-name="Path 956" d="M270.919,7.93h0Z" transform="translate(-121.273 -3.55)" fill="#2b2e34"/>
    <path id="Path_957" data-name="Path 957" d="M.006,105.722c.549-.438,1.079-.893,1.622-1.376C1.091,104.815.54,105.278.006,105.722Z" transform="translate(0 -46.71)" fill="#2b2e34"/>
    <path id="Path_958" data-name="Path 958" d="M290.444,12.838l-.393-.163-.365-.146q.539.216,1.083.452h0C290.662,12.933,290.553,12.884,290.444,12.838Z" transform="translate(-129.674 -5.608)" fill="#2b2e34"/>
    <path id="Path_959" data-name="Path 959" d="M296.416,15.62c-.231-.123-.462-.242-.692-.36l-.375-.19c.075.037.149.078.223.116.343.173.686.35,1.03.535h0C296.54,15.688,296.478,15.653,296.416,15.62Z" transform="translate(-132.209 -6.746)" fill="#2b2e34"/>
    <path id="Path_960" data-name="Path 960" d="M298.4,16.674l-.1-.056c.317.175.635.361.953.547.17.1.339.189.509.292C299.3,17.184,298.851,16.925,298.4,16.674Z" transform="translate(-133.528 -7.439)" fill="#2b2e34"/>
    <path id="Path_961" data-name="Path 961" d="M293.043,13.97c-.168-.078-.336-.16-.5-.235l-.146-.064h0c.3.134.6.279.9.421.17.081.34.155.51.239C293.549,14.206,293.3,14.088,293.043,13.97Z" transform="translate(-130.885 -6.12)" fill="#2b2e34"/>
    <path id="Path_962" data-name="Path 962" d="M194.78,20.022q-.765.4-1.527.842l-.007.014-.057.054c-.3.178-.629.355-.941.536-.241.142-.484.291-.726.439l-.02.012c-.269.164-.539.333-.809.5-.139.088-.278.174-.417.265s-.281.185-.421.277l-.092.062c-.228.15-.456.3-.685.457l-.014.009-.02.014-.012.009c-.307.209-.614.422-.922.641l-.006,0,0,0-.076.055c-.068.049-.136.1-.205.15q-.518.373-1.033.753h0l-.087.064c-.029.024-.069.052-.1.075-.123.086-.253.186-.381.286l-.029.024h0l-.059.048c-.16.112-.3.231-.462.355-4.453-6.934-12.058-15.128-20.359-20.094-.532-.33-1.064-.636-1.594-.93-.15-.074-.292-.149-.43-.226C155.358.448,147.716-.65,137.468.337A145.926,145.926,0,0,0,118.035,3.72C109.11,5.807,99,8.647,84.928,12.017A502.968,502.968,0,0,1,27.872,22.623a9.782,9.782,0,0,0-2.375.555,4.263,4.263,0,0,0-1.847,1.364l0,.007c-.112.143-.217.3-.32.455-.015.024-.03.049-.044.073-.092.147-.18.305-.267.468-.2.375-.394.788-.6,1.249h-.013c-.082.214-.166.429-.249.643-.01,0-.01,0-.006.014-4.7,11.88-11.477,21.779-19,28.824C13.23,50.452,21.6,41.494,28.106,30.1c.074-.128.143-.235.212-.342-.069.108-.138.215-.211.343C21.6,41.495,13.23,50.453,3.149,56.278c-.386.36-.779.711-1.169,1.061-.646.586-1.3,1.137-1.953,1.666.152-.072.313-.149.471-.238h0l.07-.036L.63,58.7c.057-.03.113-.06.175-.091l.007,0a.549.549,0,0,0,.108-.054l.012-.006c.658-.33,1.3-.676,1.946-1.03q2.037-1.123,3.973-2.4h0l0,0,.013,0-.014.009c3.178,6.795,10.921,15.967,19.234,21.144,6.146,3.786,11.528,5.756,17.358,6.368a47.334,47.334,0,0,0,10.525-.181A173.37,173.37,0,0,0,78.2,77.6c5.313-1.391,10.746-2.931,16.558-4.493,3.634-.977,7.414-1.961,11.409-2.924,23.612-5.678,47.247-10.121,61.1-11.749.061-.007.116-.017.176-.025a9.893,9.893,0,0,0,1.407-.268c.053-.014.109-.028.16-.043.1-.029.191-.061.283-.093.067-.023.135-.046.2-.07.027-.01.058-.019.085-.03s.066-.033.1-.048q.2-.084.375-.178c.049-.026.1-.05.146-.077a4.2,4.2,0,0,0,.408-.268c.049-.036.1-.076.143-.115.083-.068.165-.139.241-.213.049-.046.1-.093.146-.143.1-.105.2-.215.287-.331.049-.062.095-.13.141-.195s.1-.143.149-.218.1-.152.145-.231.094-.166.141-.25c.073-.134.146-.273.217-.418.041-.082.082-.166.122-.252s.084-.178.125-.271c.078-.173.156-.35.236-.536,5.37-13.792,14.629-27.648,23.51-34.864C195.737,19.527,195.258,19.769,194.78,20.022ZM6.85,55.117v0Zm.046-.028c-.017.008-.026.021-.045.029v0l0-.006v0h0l.053-.021h0l0,0Zm21.3,21.32c-.14-.078-.28-.158-.42-.238s-.286-.17-.428-.253q.616.36,1.228.7C28.452,76.544,28.326,76.479,28.2,76.409Zm1.779.946-.472-.242c-.134-.07-.268-.146-.4-.217q.6.318,1.2.614C30.192,77.457,30.085,77.409,29.978,77.354Zm1.763.841c-.176-.079-.352-.162-.529-.244-.129-.06-.259-.126-.388-.188.4.191.8.376,1.195.551C31.925,78.274,31.833,78.238,31.74,78.2Zm1.747.74c-.2-.077-.393-.16-.59-.241-.128-.053-.257-.111-.385-.166.408.174.815.342,1.221.5C33.652,79,33.57,78.968,33.487,78.935Zm1.734.642c-.218-.075-.435-.155-.653-.234-.131-.048-.263-.1-.394-.149.425.16.849.314,1.273.456C35.372,79.625,35.3,79.6,35.221,79.577Zm1.726.548c-.241-.071-.484-.147-.726-.223-.139-.044-.278-.091-.417-.136.451.147.9.288,1.353.416C37.087,80.163,37.017,80.146,36.947,80.126Zm1.715.456c-.266-.064-.533-.136-.8-.206-.152-.04-.3-.083-.457-.125.486.135.972.262,1.457.376C38.8,80.611,38.729,80.6,38.662,80.582Zm13.65.83c-.325.031-.646.052-.969.077-.248.019-.5.043-.745.058-.43.027-.857.042-1.285.057-.141,0-.283.014-.424.018-.427.011-.852.01-1.276.009-.143,0-.287,0-.43,0-.4-.006-.8-.022-1.205-.039-.166-.007-.333-.01-.5-.019-.376-.02-.75-.052-1.123-.083-.193-.016-.386-.028-.578-.048-.347-.034-.694-.078-1.041-.122-.22-.028-.441-.052-.662-.084-.319-.046-.639-.1-.958-.156-.249-.042-.5-.082-.746-.13-.292-.056-.585-.12-.877-.184-.171-.037-.342-.075-.514-.114a42.235,42.235,0,0,0,14.779.6C53.276,81.309,52.792,81.366,52.312,81.411Zm2.134-.245-.139.018.334-.045Zm23.682-4.776c2.139-.56,4.311-1.148,6.555-1.76C82.439,75.243,80.267,75.831,78.128,76.391Zm12.084-3.273.009,0c3.846-1.048,7.969-2.157,12.515-3.3C98.18,70.961,94.059,72.068,90.212,73.118Zm39.983-9.538-.021,0,.3-.062Zm3.518-.712-1.146.23,1.263-.254Zm.49-.1c7.842-1.559,15.173-2.869,21.545-3.873C149.375,59.9,142.045,61.213,134.2,62.771Zm31.071-5.236c.035,0,.072-.009.1-.014l.213-.025Zm2.413-.32-.1.02-.075.012.08-.014c-.225.039-.465.075-.722.109-.544.061-1.1.126-1.671.2.575-.074,1.127-.14,1.671-.2a12.707,12.707,0,0,0,1.409-.252c-.2.05-.408.094-.633.134Zm1.125-.283c-.133.045-.273.088-.421.127.147-.042.289-.083.425-.128Zm.091-.03.018-.007c.044-.014.082-.029.123-.044C169,56.868,168.95,56.885,168.9,56.9Zm.487-.2-.006,0c-.011.006-.023.01-.034.015l-.008,0c.065-.031.117-.065.177-.1C169.474,56.65,169.437,56.679,169.39,56.7Zm.516-13.931c-.166.247-.343.5-.509.748-.411.6-.808,1.207-1.207,1.838-.761,1.175-1.494,2.388-2.206,3.653-.062.085-.1.173-.152.255a2.423,2.423,0,0,1-1.189,1.13l-.01,0-.01,0a.252.252,0,0,1-.087.023l-.053.021-.053.021c-.031.013-.055.01-.087.023l-.021.008a4.887,4.887,0,0,1-.762.15.3.3,0,0,0-.1.016,366.066,366.066,0,0,0-57.353,12.453c-18.993,5.624-33.422,10.67-45.648,12.838-6.9,1.176-12,1.92-18.344,1.315a43.2,43.2,0,0,1-17.693-6.207c-5.9-3.537-11.023-8.706-15.236-13.659-.7-.842-1.394-1.663-2.045-2.477-.08.056-.153.1-.238.157a61.423,61.423,0,0,0,19.318,20.15c.182.117.363.233.548.338-.068-.041-.135-.079-.2-.12.18.109.359.216.533.323-.187-.113-.377-.226-.568-.344-.109-.066-.216-.125-.325-.192A61.543,61.543,0,0,1,6.9,55.087h0c.089-.06.163-.1.237-.157l0-.01.006,0c.356-.239.7-.5,1.054-.742q.948-.665,1.872-1.369l.245-.188q.857-.655,1.7-1.343l.131-.107q1.876-1.549,3.653-3.263l0,0a.749.749,0,0,0,.148-.144,1.053,1.053,0,0,0,.092-.086c.015-.015.033-.031.047-.046s.056-.06.087-.091c.087-.071.158-.149.24-.217.028-.033.059-.064.089-.1a.8.8,0,0,1,.055-.059c.273-.279.559-.563.84-.857.006-.014.019-.019.038-.038.19-.2.374-.4.562-.6.228-.242.455-.483.681-.729-.027.029-.052.059-.082.093.054-.056.1-.1.136-.151A77.482,77.482,0,0,0,28.377,31.6c.019-.019.017-.03.022-.057a4.7,4.7,0,0,0,.335-.582,4.059,4.059,0,0,1,.759-1,2.43,2.43,0,0,1,.242-.186c-.043.029-.088.057-.129.088.043-.033.089-.062.135-.092l-.006,0,.049-.033,0,0a1.9,1.9,0,0,1,.309-.162,3.224,3.224,0,0,1,.389-.122,3.064,3.064,0,0,0-.389.123,4.425,4.425,0,0,1,.879-.221c-.174.028-.335.06-.481.1a7.713,7.713,0,0,1,.8-.151,525.434,525.434,0,0,0,55.885-11.6c20.4-5.318,34-9.551,44.521-11.793A62.133,62.133,0,0,1,148.9,4.32l.09.007-.092-.006a62.086,62.086,0,0,0-17.215,1.6C121.17,8.163,107.563,12.4,87.166,17.714a525.709,525.709,0,0,1-55.885,11.6l-.025.008a525.767,525.767,0,0,0,55.885-11.6c20.4-5.318,34-9.551,44.521-11.793a62.112,62.112,0,0,1,17.215-1.6,34.169,34.169,0,0,1,4.673.635l-.076-.017c-.013-.007-.026-.013-.036-.009-.092-.024-.178-.039-.262-.052a.382.382,0,0,0-.086-.025c-.065-.009-.135-.019-.195-.03s-.1-.023-.133-.031a.217.217,0,0,1-.083-.014c-.1-.017-.2-.035-.3-.054l.082.013.349.06c.106.019.212.038.318.058a37.6,37.6,0,0,1,6.563,1.9c.179.07.358.143.538.215.225.092.45.184.676.281.249.106.5.213.747.326.192.086.385.178.578.268.5.234,1,.478,1.5.736.134.069.268.138.4.208q.444.235.89.484c.261.146.523.3.784.452.155.091.31.178.466.271,1.247.756,2.452,1.553,3.639,2.37l.1.071c-.025-.016-.05-.031-.08-.048.07.054.149.1.219.154a.684.684,0,0,0-.069-.057l.328.228c.331.232.672.456,1,.692.018.03.041.031.057.05.172.124.342.249.507.364a.345.345,0,0,0,.04.04l.013.013.1.081c.023.014.043.029.065.044.117.075.222.156.339.241.075.077.191.141.269.218.1.07.191.141.279.214.038.031.083.064.127.1.09.067.181.134.265.2l.025.019a.315.315,0,0,0,.031.029.855.855,0,0,0,.1.087c.191.141.37.287.548.432,0,.01.013.007.015.018,1.338,1.063,2.643,2.175,3.931,3.328.181.162.363.323.544.487q.63.573,1.254,1.157l.055.052q.587.553,1.17,1.119c.4.39.808.79,1.211,1.189.082.082.164.161.246.242l.181.18q.617.62,1.232,1.252l.134.137q.665.687,1.331,1.389l0,.01,0,0A76.535,76.535,0,0,0,169.906,42.77ZM149.394,4.359l.113.009.031,0a1.158,1.158,0,0,1-.117,0h-.006Zm.257.02h.006c.163.014.33.037.494.054-.166-.017-.331-.038-.5-.052Zm1.216.132.044,0h0c.194.025.39.055.585.083h0l.147.022C151.388,4.583,151.126,4.544,150.867,4.511Zm35.277,22.274-.056-.081A78.7,78.7,0,0,0,165.742,8.96a37.807,37.807,0,0,0-17.282-5.575,62.179,62.179,0,0,0-17.188,1.636c-10.532,2.236-24.133,6.456-44.536,11.788a534.248,534.248,0,0,1-56.13,11.648,5.814,5.814,0,0,0-1.067.235l-.213.085a2.033,2.033,0,0,0-.3.178,2.056,2.056,0,0,1,.292-.177l0,0,.009-.006-.013.007a.094.094,0,0,1,.013-.007l.218-.087a5.751,5.751,0,0,1,1.067-.235A534.2,534.2,0,0,0,86.752,16.8c20.4-5.332,34-9.551,44.536-11.788a62.179,62.179,0,0,1,17.188-1.636,37.813,37.813,0,0,1,17.282,5.575A78.7,78.7,0,0,1,186.1,26.7l.118.171Z" transform="translate(-0.01)" fill="#2b2e34"/>
    <path id="Path_963" data-name="Path 963" d="M47.755,136.406l.035.021c-.117-.07-.233-.141-.349-.217C47.545,136.279,47.65,136.342,47.755,136.406Z" transform="translate(-21.234 -60.974)" fill="#2b2e34"/>
    <path id="Path_964" data-name="Path 964" d="M302.075,103.608c.258-.034.5-.07.722-.109l.054-.009c.225-.04.437-.085.633-.134A12.709,12.709,0,0,1,302.075,103.608Z" transform="translate(-135.22 -46.267)" fill="#2b2e34"/>
    <path id="Path_965" data-name="Path 965" d="M302.075,103.608c.258-.034.5-.07.722-.109l.054-.009c.225-.04.437-.085.633-.134A12.709,12.709,0,0,1,302.075,103.608Z" transform="translate(-135.22 -46.267)" fill="#2b2e34"/>
    <path id="Path_966" data-name="Path 966" d="M300.721,103.813c-.544.06-1.1.126-1.671.2C299.625,103.939,300.177,103.874,300.721,103.813Z" transform="translate(-133.866 -46.472)" fill="#2b2e34"/>
    <path id="Path_967" data-name="Path 967" d="M300.721,103.813c-.544.06-1.1.126-1.671.2C299.625,103.939,300.177,103.874,300.721,103.813Z" transform="translate(-133.866 -46.472)" fill="#2b2e34"/>
    <path id="Path_968" data-name="Path 968" d="M48.577,136.909c-.174-.107-.353-.213-.533-.323l-.035-.021C48.2,136.683,48.391,136.8,48.577,136.909Z" transform="translate(-21.488 -61.133)" fill="#2b2e34"/>
    <path id="Path_969" data-name="Path 969" d="M48.577,136.909c-.174-.107-.353-.213-.533-.323l-.035-.021C48.2,136.683,48.391,136.8,48.577,136.909Z" transform="translate(-21.488 -61.133)" fill="#2b2e34"/>
    <path id="Path_970" data-name="Path 970" d="M4.718,101.886l-.022.008c-.374.356-.768.708-1.148,1.053.4-.34.782-.7,1.169-1.062Z" transform="translate(-1.586 -45.609)" fill="#2b2e34"/>
    <path id="Path_971" data-name="Path 971" d="M2.57,105.144l.108-.055a.844.844,0,0,0,.076-.041c.034-.018.07-.035.1-.055.152-.072.289-.152.43-.221.008,0,.014-.009.022-.013a.108.108,0,0,0,.039-.024l.149-.081c-.255.139-.512.271-.769.405Z" transform="translate(-1.148 -46.848)" fill="#2b2e34"/>
    <path id="Path_972" data-name="Path 972" d="M1.765,105.756a.23.23,0,0,0-.072.041c.163-.083.323-.171.484-.256l-.213.109C1.906,105.687,1.836,105.714,1.765,105.756Z" transform="translate(-0.755 -47.245)" fill="#2b2e34"/>
    <path id="Path_973" data-name="Path 973" d="M8.9,99.783l0,0h0q-1.934,1.282-3.973,2.4c-.11.061-.219.125-.329.186l.168-.092a.506.506,0,0,0,.055-.028.711.711,0,0,1,.065-.032c.127-.075.257-.142.386-.215.05-.031.092-.049.138-.078.127-.075.247-.136.374-.211.04-.027.092-.049.127-.075.157-.088.312-.185.47-.273l.01,0c.175-.106.34-.209.518-.3.019-.019.05-.032.069-.052.138-.078.276-.158.4-.244l.052-.031.123-.075c.1-.064.194-.115.29-.177a2.336,2.336,0,0,1,.224-.138c.069-.052.145-.093.219-.148.209-.13.415-.261.619-.4l.014-.009Z" transform="translate(-2.052 -44.666)" fill="#2b2e34"/>
    <path id="Path_974" data-name="Path 974" d="M1.149,106.171c.031-.013.072-.041.1-.053l0,0c-.059.03-.12.056-.178.085l-.059.03C1.054,106.214,1.1,106.192,1.149,106.171Z" transform="translate(-0.449 -47.503)" fill="#2b2e34"/>
    <path id="Path_975" data-name="Path 975" d="M29.057,86.074l-.085.083c-.014.015-.031.031-.047.046l-.092.094C28.918,86.215,28.981,86.153,29.057,86.074Z" transform="translate(-12.904 -38.531)" fill="#2b2e34"/>
    <path id="Path_976" data-name="Path 976" d="M19.691,89.864C19.1,90.389,18.5,90.9,17.9,91.4l-.131.107q-.838.689-1.7,1.343l-.245.188q-.926.7-1.872,1.369c-.351.247-.7.5-1.054.742l0,.008A61.714,61.714,0,0,0,19.691,89.864Z" transform="translate(-5.772 -40.227)" fill="#2b2e34"/>
    <path id="Path_977" data-name="Path 977" d="M313.726,26.894l.1.075-.022-.017c-.084-.067-.175-.134-.265-.2.012.009.022.019.033.028C313.626,26.818,313.674,26.856,313.726,26.894Z" transform="translate(-140.353 -11.975)" fill="#2b2e34"/>
    <path id="Path_978" data-name="Path 978" d="M12.426,99.729l-.053.021h0v0l0,.006v0c.019-.008.028-.02.045-.029l0,0,0,0Z" transform="translate(-5.536 -44.643)" fill="#2b2e34"/>
    <path id="Path_979" data-name="Path 979" d="M106.689,22.619S81.7,29.587,64.32,32.883c-8.747,1.653-19.21,3.669-23.767,4.327C37.739,37.6,37.23,39.4,37.23,39.4c-2.122,3.68-7.69,12.259-21.565,22.834,1.419,1.545,11.633,12.81,23.087,16.087C51.063,81.873,66.73,79.4,83.5,74.91c16.8-4.475,33.535-10.631,49.131-14.093,11.5-2.54,27.142-5.912,35.949-6.936,0,0,2.061-.1,2.811-1.334,2.387-3.351,6.461-12.068,19.64-22.484-16.518-15.826-28.161-17.649-38.05-17.845C142.959,12,106.689,22.619,106.689,22.619ZM68.538,65.948c-1.84.353-5.657,1.5-5.657,1.5h0c.512-4.676,1.069-10.4,1.181-15.218.014-.613.022-1.213.021-1.792C62.034,54.811,58.021,63.708,55.857,69l-1.812.451h0c-1.705-4.981-4.122-11.674-5.2-14.5-.29-.759-.485-1.241-.541-1.331-.544,5.655-1.219,11.944-1.3,17.632-1.486.262-4.619,1.116-4.685,1.133l-.006,0c1.537-9.92,2.712-17.763,3.016-26.39,1.944-.28,5.525-1.275,5.6-1.3l.007,0c1.641,5.079,3.362,9.934,5.434,14.732,0,0,.129-.262.353-.725a186.136,186.136,0,0,0,7.432-17.251h0s4.15-.8,6.1-1.437v0l-.115,2.629A8.856,8.856,0,0,0,67.5,51.274a6.179,6.179,0,0,0,1.883,3.243A75.978,75.978,0,0,0,68.538,65.948ZM70.722,52.69a2.11,2.11,0,0,1-.193-.284c-.019-.034-.044-.066-.062-.1l-.006-.009c-.856-1.77-1.572-4.7,1.427-8.148h0S74.81,41,78.509,42.455v.008l-.144,1.886c-2.349-1.606-5.438.867-5.506,4.519l.017.131a5.269,5.269,0,0,0,.85,2.25,2.081,2.081,0,0,0,1.216.284,5.385,5.385,0,0,0,3.41-2.033v.006l-.125,2.267C75.3,54.4,71.933,54.184,70.722,52.69Zm11.183.7c-.156,3.013-1.364,4.691-4.307,5.234-1.6.463-4.351.3-5.861,1.231l0-.008a6.7,6.7,0,0,1,4.639-4.286h0c3.718-1.059,4.052-1.132,5.526-2.183Zm5.6,8h0c-1.973-6.867-5.029-15.741-8.041-23.568a38.831,38.831,0,0,0,5.5-1.341h0c.609,1.942,3.532,11.171,4.731,14.1.131-.319.27-.669.411-1.033,1.551-3.979,3.685-10.463,5.1-15.569a18.885,18.885,0,0,0,4.716-1.133l0,.008c-1.046,2.615-7.233,19.892-9.985,27.975Zm18.142-22.728c-.568,4.927-.948,11.346-1.229,18.762a26.643,26.643,0,0,0-5.067,1.251h0v-.007a174.537,174.537,0,0,0,1.223-18.874,34.221,34.221,0,0,0,5.066-1.141h0l.007,0Zm-2.931-1.237c-.048,0-.087-.009-.132-.011a1.907,1.907,0,0,1-1.736-1.812,3.733,3.733,0,0,1,2.962-3.485,2.616,2.616,0,0,1,1.325.239l.019.011a1.425,1.425,0,0,1,.7.877,2.587,2.587,0,0,1,.1.709A3.574,3.574,0,0,1,102.713,37.421Zm17.318-2.3-.1,3.3c-1.263.252-2.572.454-4.822,1.079-.33,4.954-.641,10.13-.527,11.17.291.89,1.048,1.058,1.877.884a5.676,5.676,0,0,0,2.594-1.448l.017-.017,0,0v0c-.114.892-.138,2.059-.191,3.311a10.236,10.236,0,0,1-5.125,1.89,3.962,3.962,0,0,1-2.6-.6,4.447,4.447,0,0,1-1.577-3.763c-.084-2.849.6-6.454.873-9.763.017-.2.038-.4.051-.6-.509.144-1.858.5-2.852.8l0,0h0a18.955,18.955,0,0,0,.078-3.233l2.889-.567c.039-1.285.214-4.037.236-4.856a35.587,35.587,0,0,0,5.112-3.032h0l-.658,6.692c.277-.054.549-.112.817-.171,1.71-.381,3.182-.845,3.913-1.076Zm6.485,17.01a27.657,27.657,0,0,0-5.08,1.243h0v0l0-.029a174.121,174.121,0,0,0,1.225-18.837,31.693,31.693,0,0,0,5.057-1.162l.008,0C127.141,38.289,126.772,44.708,126.516,52.133ZM124.8,32.126c-.046,0-.085-.009-.129-.011a1.638,1.638,0,0,1-1.226-.579c-.007-.009-.017-.016-.024-.025a2.108,2.108,0,0,1-.483-1.223h0a3.7,3.7,0,0,1,2.966-3.474,2.591,2.591,0,0,1,1.307.242l.037.022a1.438,1.438,0,0,1,.673.848,2.613,2.613,0,0,1,.111.727A3.572,3.572,0,0,1,124.8,32.126Zm22.026,6.714c-4.27.918-8.023,1.712-11.846,2.813h0c.006,4.347,2.239,4.67,3.8,4.623a10.589,10.589,0,0,0,1.147-.245,13.6,13.6,0,0,0,5.55-3.266l0,.019c-.119.873-.218,2.362-.283,3.841a15.584,15.584,0,0,1-8.814,3.263c-4.082.188-5.728-2.46-6.333-4.8a10.086,10.086,0,0,1-.312-2.151c.361-10.983,8.953-13.056,11.71-13.137a5.116,5.116,0,0,1,3.644,1.211c1.884,1.691,1.9,4.6,1.923,5.01Zm.481-8.87h0v0h0a8.541,8.541,0,0,1-.688-3.235c-.015-2.892,2.711-4.846,3.413-8.153l.006.007a.107.107,0,0,0,0-.013l-.006,0,.006,0,0,.009.01.03a7.154,7.154,0,0,1,1.683,3.5c.035,1.29-.566,2.8-2.62,4.967A7.151,7.151,0,0,0,147.306,29.97Zm16.435-4.255h0l0,.009-.531,3.056-3.534-.526c-.979.03-4.5.477-4.874,2.695-.138,1.11.914,1.374,2.368,1.522a18.6,18.6,0,0,1,4.493.7c1.6.589,2.845,1.789,2.836,4.44-.109,6.737-8.573,7.866-10.694,7.968a14.9,14.9,0,0,1-4.292-.729v-.006l.3-3.415a9.16,9.16,0,0,0,4.519,1.084c2.531-.135,5.207-1.234,5.23-3.1a2.051,2.051,0,0,0-.076-.479c-.829-3.018-8.6.384-9.315-5.134a6.422,6.422,0,0,1-.056-.729c-.081-2.577,2.217-7.294,9.909-7.726A13.976,13.976,0,0,1,163.741,25.715Z" transform="translate(-7.01 -5.468)" fill="#2b2e34"/>
    <path id="Path_980" data-name="Path 980" d="M253.989,44.358h0Z" transform="translate(-113.694 -19.857)" fill="#2b2e34"/>
    <path id="Path_981" data-name="Path 981" d="M258.929,23.717l-.006,0,.006,0,0,0Z" transform="translate(-115.903 -10.617)" fill="#2b2e34"/>
    <path id="Path_982" data-name="Path 982" d="M236.006,49.813c-1.471.458-3.391,1.785-3.986,5.3h0a5.069,5.069,0,0,0,.592-.089c1.42-.267,4.786-1.09,6.669-1.656l.033-1.39v-.018C239.3,51.53,238.942,49.1,236.006,49.813Z" transform="translate(-103.86 -22.24)" fill="#2b2e34"/>
    <path id="Path_983" data-name="Path 983" d="M332.555,18.291l-.524-2.049.578-.148c.674-.172,1.059-.007,1.3.528a4.471,4.471,0,0,0,.736,1.136l1.318-.336a3.9,3.9,0,0,1-.712-1.174,1.559,1.559,0,0,0-1.279-.995l-.016-.064a1.357,1.357,0,0,0,.79-1.455,1.442,1.442,0,0,0-.8-.988,3.512,3.512,0,0,0-1.926.1,11.336,11.336,0,0,0-1.985.674l1.3,5.088Zm-.419-4.586c.772-.2,1.2.023,1.323.488.135.528-.357.882-1.032,1.054l-.578.147-.372-1.458A3.175,3.175,0,0,1,332.136,13.705Z" transform="translate(-147.735 -5.665)" fill="#2b2e34"/>
    <path id="Path_984" data-name="Path 984" d="M331.664,18.512a5.373,5.373,0,0,0,4.08-6.529,5.362,5.362,0,0,0-6.695-3.711,5.413,5.413,0,0,0-4.127,6.474A5.423,5.423,0,0,0,331.664,18.512ZM329.311,9.3a4.126,4.126,0,0,1,5.091,3.062,4.085,4.085,0,0,1-2.985,5.057,4.194,4.194,0,1,1-2.106-8.12Z" transform="translate(-145.377 -3.618)" fill="#2b2e34"/>
  </g>
</svg>
