<svg xmlns="http://www.w3.org/2000/svg" xmlns:xlink="http://www.w3.org/1999/xlink" width="220" height="42.242" viewBox="0 0 220 42.242">
  <defs>
    <clipPath id="clip-path">
      <path id="Path_704" data-name="Path 704" d="M393.728,19.621h0c0,3.2.659,5.668,1.978,7.322a6.888,6.888,0,0,0,5.575,2.591,7.389,7.389,0,0,0,5.76-2.556c1.5-1.689,2.209-4.141,2.209-7.356s-.648-5.645-1.943-7.3a6.841,6.841,0,0,0-5.587-2.6,7.333,7.333,0,0,0-5.783,2.556c-1.492,1.7-2.209,4.129-2.209,7.345m7.8,14.192a12.527,12.527,0,0,1-9.23-3.493c-2.522-2.51-3.794-6.1-3.794-10.641s1.272-8.236,3.794-10.746a12.519,12.519,0,0,1,9.23-3.435,15.012,15.012,0,0,1,5.089.856,10.41,10.41,0,0,1,4,2.568c2.522,2.556,3.806,6.177,3.806,10.757s-1.284,8.085-3.794,10.641a12.13,12.13,0,0,1-9.1,3.493" transform="translate(-388.5 -5.498)" fill="#2b2e34"/>
    </clipPath>
    <clipPath id="clip-path-2">
      <path id="Path_706" data-name="Path 706" d="M662.774,34.408a2.487,2.487,0,0,1-2.5-2.441V18.238a13.043,13.043,0,0,0-.22-2.591,6.9,6.9,0,0,0-.694-2,5.159,5.159,0,0,0-2.325-2.256,7.741,7.741,0,0,0-3.389-.706,7.647,7.647,0,0,0-3.551.8,5.251,5.251,0,0,0-2.336,2.487,9.418,9.418,0,0,0-.752,4.118v13.73l.023.139a2.517,2.517,0,0,1-5.032.012V16.711a11.679,11.679,0,0,1,1.076-5.3,8.974,8.974,0,0,1,1.55-2.175,9.473,9.473,0,0,1,2.232-1.677,12.873,12.873,0,0,1,3-1.087,17.259,17.259,0,0,1,3.794-.382A14.39,14.39,0,0,1,660.171,7.4a8.926,8.926,0,0,1,3.794,3.493,9.357,9.357,0,0,1,1.006,2.579,14.737,14.737,0,0,1,.335,3.239V31.69l-.023.278a2.5,2.5,0,0,1-2.51,2.441" transform="translate(-642 -6.092)" fill="#2b2e34"/>
    </clipPath>
    <clipPath id="clip-path-3">
      <path id="Path_708" data-name="Path 708" d="M1080.142,49.312c-.393,0-.8-.023-1.272-.069l-.844-.093a12.609,12.609,0,0,1-2.533-.648h-.012l-.15-.058a1.885,1.885,0,0,1,.625-3.678l.509.046,1.666.2h.208l.347.023a5.005,5.005,0,0,0,4.048-1.978,12.852,12.852,0,0,0,2.29-4.569l.983-3.042-9.866-24.579v-.058l-.046-.139a2.726,2.726,0,0,1-.1-.694,2.7,2.7,0,0,1,5.263-.821l.22.671h.035l6.894,19.814,5.98-19.7h0l.243-.81a2.452,2.452,0,0,1,4.823.659,2.859,2.859,0,0,1-.058.521l-.035.162-9.728,29.889c-1.076,3.239-2.383,5.575-3.886,6.952a7.814,7.814,0,0,1-5.6,2" transform="translate(-1074.027 -7.275)" fill="#2b2e34"/>
    </clipPath>
    <clipPath id="clip-path-4">
      <path id="Path_710" data-name="Path 710" d="M878.37,16.847h0l9.8-.023h2.174c.833,0,1.666-.474,1.666-1.9a4.968,4.968,0,0,0-.035-.567,7.506,7.506,0,0,0-.937-2.348,5.807,5.807,0,0,0-2.175-2.059,6.744,6.744,0,0,0-3.111-.682,6.533,6.533,0,0,0-5.228,2.209,9.356,9.356,0,0,0-2.151,5.379m7.322,16.968A11.388,11.388,0,0,1,876.9,30a14.946,14.946,0,0,1-3.7-10.364,14.812,14.812,0,0,1,3.69-10.41,11.3,11.3,0,0,1,8.8-3.725,10.288,10.288,0,0,1,8.513,3.829,12.143,12.143,0,0,1,2.047,4.048,17.461,17.461,0,0,1,.416,1.712c.023.093.035.174.058.254a5.352,5.352,0,0,1,.069.752,4.349,4.349,0,0,1-4.326,4.349H878.278l.035.914a10.774,10.774,0,0,0,1.862,6.107A6.567,6.567,0,0,0,885.692,30a6.721,6.721,0,0,0,4.6-1.631,6.165,6.165,0,0,0,.74-.729l.4-.44.046-.046.046-.058a2.186,2.186,0,0,1,3.944,1.284,2.057,2.057,0,0,1-.289,1.041l-.023.058a2.261,2.261,0,0,1-.2.266A7.84,7.84,0,0,1,893.3,31.41a12.115,12.115,0,0,1-7.611,2.406" transform="translate(-873.2 -5.5)" fill="#2b2e34"/>
    </clipPath>
    <clipPath id="clip-path-5">
      <path id="Path_712" data-name="Path 712" d="M38.992,34.952a2.51,2.51,0,0,1-2.5-2.383V18.736a13.133,13.133,0,0,0-.22-2.591,7.405,7.405,0,0,0-.682-2A5.217,5.217,0,0,0,33.243,11.9a7.581,7.581,0,0,0-3.389-.706,7.706,7.706,0,0,0-3.539.787,5.274,5.274,0,0,0-2.348,2.487,10,10,0,0,0-.648,3.551v14.2l-.035.335a2.533,2.533,0,0,1-5.055,0l-.035-.44v-14.1c0-.127-.058-1.55-.127-1.874a7.405,7.405,0,0,0-.682-2A5.217,5.217,0,0,0,15.048,11.9a7.546,7.546,0,0,0-3.389-.706,7.706,7.706,0,0,0-3.539.787,5.274,5.274,0,0,0-2.348,2.487,9.454,9.454,0,0,0-.74,4.129V32.57a2.5,2.5,0,0,1-5,0L0,32.176V17.209a11.9,11.9,0,0,1,1.076-5.3,9.2,9.2,0,0,1,1.55-2.175A9.357,9.357,0,0,1,4.87,8.071a12.367,12.367,0,0,1,3-1.087,16.558,16.558,0,0,1,3.794-.393,14.232,14.232,0,0,1,6.524,1.319,9.778,9.778,0,0,1,2.024,1.376l.578.5.567-.509a10.347,10.347,0,0,1,1.712-1.2,12.367,12.367,0,0,1,3-1.087,16.623,16.623,0,0,1,3.794-.393,14.2,14.2,0,0,1,6.524,1.319,9.047,9.047,0,0,1,3.794,3.482,9.3,9.3,0,0,1,1.006,2.591,14.559,14.559,0,0,1,.335,3.227V32.315l-.023.254a2.51,2.51,0,0,1-2.5,2.383" transform="translate(0 -6.589)" fill="#2b2e34"/>
    </clipPath>
    <clipPath id="clip-path-6">
      <path id="Path_714" data-name="Path 714" d="M1703.159,16.847h0l9.809-.023h2.163c.833,0,1.666-.474,1.677-1.9a5.062,5.062,0,0,0-.046-.567,7.244,7.244,0,0,0-.937-2.348,5.806,5.806,0,0,0-2.175-2.059,6.71,6.71,0,0,0-3.111-.682,6.549,6.549,0,0,0-5.228,2.209,9.355,9.355,0,0,0-2.151,5.379m7.322,16.968A11.388,11.388,0,0,1,1701.69,30,14.939,14.939,0,0,1,1698,19.635a14.806,14.806,0,0,1,3.678-10.41,11.315,11.315,0,0,1,8.8-3.725,10.3,10.3,0,0,1,8.513,3.829,12.142,12.142,0,0,1,2.047,4.048,17.461,17.461,0,0,1,.417,1.712q.035.126.058.254a4.051,4.051,0,0,1,.081.752,4.361,4.361,0,0,1-4.337,4.349h-14.193l.035.914a10.863,10.863,0,0,0,1.862,6.107A6.552,6.552,0,0,0,1710.481,30a6.767,6.767,0,0,0,4.615-1.631,7.177,7.177,0,0,0,.729-.729l.4-.44.046-.046.046-.058a2.175,2.175,0,0,1,3.667,2.325l-.035.058a1.436,1.436,0,0,1-.2.266,7.842,7.842,0,0,1-1.666,1.666,12.092,12.092,0,0,1-7.611,2.406" transform="translate(-1698 -5.5)" fill="#2b2e34"/>
    </clipPath>
    <clipPath id="clip-path-7">
      <path id="Path_716" data-name="Path 716" d="M1348.38,34.952a2.51,2.51,0,0,1-2.5-2.383V18.736a13.126,13.126,0,0,0-.22-2.591,7.4,7.4,0,0,0-.682-2,5.216,5.216,0,0,0-2.348-2.244,7.581,7.581,0,0,0-3.389-.706,7.706,7.706,0,0,0-3.539.787,5.275,5.275,0,0,0-2.348,2.487,9.748,9.748,0,0,0-.648,3.551v14.2l-.035.335a2.533,2.533,0,0,1-5.055,0l-.035-.44v-14.1c0-.127-.058-1.55-.127-1.874a7.4,7.4,0,0,0-.682-2,5.273,5.273,0,0,0-2.336-2.244,7.581,7.581,0,0,0-3.389-.706,7.706,7.706,0,0,0-3.539.787,5.274,5.274,0,0,0-2.348,2.487,9.455,9.455,0,0,0-.74,4.129V32.57a2.5,2.5,0,0,1-5,0l-.023-.393V17.209a11.9,11.9,0,0,1,1.076-5.3,9.212,9.212,0,0,1,1.538-2.175,9.355,9.355,0,0,1,2.244-1.666,12.367,12.367,0,0,1,3-1.087,16.557,16.557,0,0,1,3.794-.393,14.233,14.233,0,0,1,6.524,1.319,9.777,9.777,0,0,1,2.024,1.376l.567.5.578-.509a10.348,10.348,0,0,1,1.712-1.2,12.368,12.368,0,0,1,3-1.087,16.623,16.623,0,0,1,3.794-.393,14.233,14.233,0,0,1,6.524,1.319,9.047,9.047,0,0,1,3.794,3.482,9.3,9.3,0,0,1,1.006,2.591,14.559,14.559,0,0,1,.335,3.227V32.315l-.023.254a2.51,2.51,0,0,1-2.5,2.383" transform="translate(-1309.4 -6.589)" fill="#2b2e34"/>
    </clipPath>
  </defs>
  <g id="moneyme" transform="translate(0 -5.498)">
    <g id="Layer_1-2" data-name="Layer 1-2" transform="translate(0 5.498)">
      <path id="Path_703" data-name="Path 703" d="M393.728,19.621h0c0,3.2.659,5.668,1.978,7.322a6.888,6.888,0,0,0,5.575,2.591,7.389,7.389,0,0,0,5.76-2.556c1.5-1.689,2.209-4.141,2.209-7.356s-.648-5.645-1.943-7.3a6.841,6.841,0,0,0-5.587-2.6,7.333,7.333,0,0,0-5.783,2.556c-1.492,1.7-2.209,4.129-2.209,7.345m7.8,14.192a12.527,12.527,0,0,1-9.23-3.493c-2.522-2.51-3.794-6.1-3.794-10.641s1.272-8.236,3.794-10.746a12.519,12.519,0,0,1,9.23-3.435,15.012,15.012,0,0,1,5.089.856,10.41,10.41,0,0,1,4,2.568c2.522,2.556,3.806,6.177,3.806,10.757s-1.284,8.085-3.794,10.641a12.13,12.13,0,0,1-9.1,3.493" transform="translate(-343.563 -5.498)" fill="#2b2e34"/>
      <g id="Group_840" data-name="Group 840" transform="translate(44.937 0)">
        <g id="Group_839" data-name="Group 839" clip-path="url(#clip-path)">
          <g id="Group_838" data-name="Group 838" transform="translate(-44.937 -0.636)">
            <rect id="Rectangle_132" data-name="Rectangle 132" width="223.655" height="47.878" fill="#2b2e34"/>
          </g>
        </g>
      </g>
      <path id="Path_705" data-name="Path 705" d="M662.774,34.408a2.487,2.487,0,0,1-2.5-2.441V18.238a13.043,13.043,0,0,0-.22-2.591,6.9,6.9,0,0,0-.694-2,5.159,5.159,0,0,0-2.325-2.256,7.741,7.741,0,0,0-3.389-.706,7.647,7.647,0,0,0-3.551.8,5.251,5.251,0,0,0-2.336,2.487,9.418,9.418,0,0,0-.752,4.118v13.73l.023.139a2.517,2.517,0,0,1-5.032.012V16.711a11.679,11.679,0,0,1,1.076-5.3,8.974,8.974,0,0,1,1.55-2.175,9.473,9.473,0,0,1,2.232-1.677,12.873,12.873,0,0,1,3-1.087,17.259,17.259,0,0,1,3.794-.382A14.39,14.39,0,0,1,660.171,7.4a8.926,8.926,0,0,1,3.794,3.493,9.357,9.357,0,0,1,1.006,2.579,14.737,14.737,0,0,1,.335,3.239V31.69l-.023.278a2.5,2.5,0,0,1-2.51,2.441" transform="translate(-567.741 -6.023)" fill="#2b2e34"/>
      <g id="Group_843" data-name="Group 843" transform="translate(74.259 0.069)">
        <g id="Group_842" data-name="Group 842" clip-path="url(#clip-path-2)">
          <g id="Group_841" data-name="Group 841" transform="translate(-74.259 -0.705)">
            <rect id="Rectangle_133" data-name="Rectangle 133" width="223.655" height="47.878" fill="#2b2e34"/>
          </g>
        </g>
      </g>
      <path id="Path_707" data-name="Path 707" d="M1080.142,49.312c-.393,0-.8-.023-1.272-.069l-.844-.093a12.609,12.609,0,0,1-2.533-.648h-.012l-.15-.058a1.885,1.885,0,0,1,.625-3.678l.509.046,1.666.2h.208l.347.023a5.005,5.005,0,0,0,4.048-1.978,12.852,12.852,0,0,0,2.29-4.569l.983-3.042-9.866-24.579v-.058l-.046-.139a2.726,2.726,0,0,1-.1-.694,2.7,2.7,0,0,1,5.263-.821l.22.671h.035l6.894,19.814,5.98-19.7h0l.243-.81a2.452,2.452,0,0,1,4.823.659,2.859,2.859,0,0,1-.058.521l-.035.162-9.728,29.889c-1.076,3.239-2.383,5.575-3.886,6.952a7.814,7.814,0,0,1-5.6,2" transform="translate(-949.797 -7.069)" fill="#2b2e34"/>
      <g id="Group_846" data-name="Group 846" transform="translate(124.23 0.206)">
        <g id="Group_845" data-name="Group 845" clip-path="url(#clip-path-3)">
          <g id="Group_844" data-name="Group 844" transform="translate(-124.23 -0.841)">
            <rect id="Rectangle_134" data-name="Rectangle 134" width="223.655" height="47.878" fill="#2b2e34"/>
          </g>
        </g>
      </g>
      <path id="Path_709" data-name="Path 709" d="M878.37,16.847h0l9.8-.023h2.174c.833,0,1.666-.474,1.666-1.9a4.968,4.968,0,0,0-.035-.567,7.506,7.506,0,0,0-.937-2.348,5.807,5.807,0,0,0-2.175-2.059,6.744,6.744,0,0,0-3.111-.682,6.533,6.533,0,0,0-5.228,2.209,9.356,9.356,0,0,0-2.151,5.379m7.322,16.968A11.388,11.388,0,0,1,876.9,30a14.946,14.946,0,0,1-3.7-10.364,14.812,14.812,0,0,1,3.69-10.41,11.3,11.3,0,0,1,8.8-3.725,10.288,10.288,0,0,1,8.513,3.829,12.143,12.143,0,0,1,2.047,4.048,17.461,17.461,0,0,1,.416,1.712c.023.093.035.174.058.254a5.352,5.352,0,0,1,.069.752,4.349,4.349,0,0,1-4.326,4.349H878.278l.035.914a10.774,10.774,0,0,0,1.862,6.107A6.567,6.567,0,0,0,885.692,30a6.721,6.721,0,0,0,4.6-1.631,6.165,6.165,0,0,0,.74-.729l.4-.44.046-.046.046-.058a2.186,2.186,0,0,1,3.944,1.284,2.057,2.057,0,0,1-.289,1.041l-.023.058a2.261,2.261,0,0,1-.2.266A7.84,7.84,0,0,1,893.3,31.41a12.115,12.115,0,0,1-7.611,2.406" transform="translate(-772.199 -5.5)" fill="#2b2e34"/>
      <g id="Group_849" data-name="Group 849" transform="translate(101.001 0)">
        <g id="Group_848" data-name="Group 848" clip-path="url(#clip-path-4)">
          <g id="Group_847" data-name="Group 847" transform="translate(-101.001 -0.636)">
            <rect id="Rectangle_135" data-name="Rectangle 135" width="223.655" height="47.878" fill="#2b2e34"/>
          </g>
        </g>
      </g>
      <path id="Path_711" data-name="Path 711" d="M38.992,34.952a2.51,2.51,0,0,1-2.5-2.383V18.736a13.133,13.133,0,0,0-.22-2.591,7.405,7.405,0,0,0-.682-2A5.217,5.217,0,0,0,33.243,11.9a7.581,7.581,0,0,0-3.389-.706,7.706,7.706,0,0,0-3.539.787,5.274,5.274,0,0,0-2.348,2.487,10,10,0,0,0-.648,3.551v14.2l-.035.335a2.533,2.533,0,0,1-5.055,0l-.035-.44v-14.1c0-.127-.058-1.55-.127-1.874a7.405,7.405,0,0,0-.682-2A5.217,5.217,0,0,0,15.048,11.9a7.546,7.546,0,0,0-3.389-.706,7.706,7.706,0,0,0-3.539.787,5.274,5.274,0,0,0-2.348,2.487,9.454,9.454,0,0,0-.74,4.129V32.57a2.5,2.5,0,0,1-5,0L0,32.176V17.209a11.9,11.9,0,0,1,1.076-5.3,9.2,9.2,0,0,1,1.55-2.175A9.357,9.357,0,0,1,4.87,8.071a12.367,12.367,0,0,1,3-1.087,16.558,16.558,0,0,1,3.794-.393,14.232,14.232,0,0,1,6.524,1.319,9.778,9.778,0,0,1,2.024,1.376l.578.5.567-.509a10.347,10.347,0,0,1,1.712-1.2,12.367,12.367,0,0,1,3-1.087,16.623,16.623,0,0,1,3.794-.393,14.2,14.2,0,0,1,6.524,1.319,9.047,9.047,0,0,1,3.794,3.482,9.3,9.3,0,0,1,1.006,2.591,14.559,14.559,0,0,1,.335,3.227V32.315l-.023.254a2.51,2.51,0,0,1-2.5,2.383" transform="translate(0 -6.463)" fill="#2b2e34"/>
      <g id="Group_852" data-name="Group 852" transform="translate(0 0.126)">
        <g id="Group_851" data-name="Group 851" clip-path="url(#clip-path-5)">
          <g id="Group_850" data-name="Group 850" transform="translate(0 -0.762)">
            <rect id="Rectangle_136" data-name="Rectangle 136" width="223.655" height="47.878" fill="#2b2e34"/>
          </g>
        </g>
      </g>
      <path id="Path_713" data-name="Path 713" d="M1703.159,16.847h0l9.809-.023h2.163c.833,0,1.666-.474,1.677-1.9a5.062,5.062,0,0,0-.046-.567,7.244,7.244,0,0,0-.937-2.348,5.806,5.806,0,0,0-2.175-2.059,6.71,6.71,0,0,0-3.111-.682,6.549,6.549,0,0,0-5.228,2.209,9.355,9.355,0,0,0-2.151,5.379m7.322,16.968A11.388,11.388,0,0,1,1701.69,30,14.939,14.939,0,0,1,1698,19.635a14.806,14.806,0,0,1,3.678-10.41,11.315,11.315,0,0,1,8.8-3.725,10.3,10.3,0,0,1,8.513,3.829,12.142,12.142,0,0,1,2.047,4.048,17.461,17.461,0,0,1,.417,1.712q.035.126.058.254a4.051,4.051,0,0,1,.081.752,4.361,4.361,0,0,1-4.337,4.349h-14.193l.035.914a10.863,10.863,0,0,0,1.862,6.107A6.552,6.552,0,0,0,1710.481,30a6.767,6.767,0,0,0,4.615-1.631,7.177,7.177,0,0,0,.729-.729l.4-.44.046-.046.046-.058a2.175,2.175,0,0,1,3.667,2.325l-.035.058a1.436,1.436,0,0,1-.2.266,7.842,7.842,0,0,1-1.666,1.666,12.092,12.092,0,0,1-7.611,2.406" transform="translate(-1501.596 -5.5)" fill="#2b2e34"/>
      <g id="Group_855" data-name="Group 855" transform="translate(196.404 0)">
        <g id="Group_854" data-name="Group 854" clip-path="url(#clip-path-6)">
          <g id="Group_853" data-name="Group 853" transform="translate(-101.013 -0.636)">
            <rect id="Rectangle_137" data-name="Rectangle 137" width="223.655" height="47.878" transform="translate(0)" fill="#2b2e34"/>
          </g>
        </g>
      </g>
      <path id="Path_715" data-name="Path 715" d="M1348.38,34.952a2.51,2.51,0,0,1-2.5-2.383V18.736a13.126,13.126,0,0,0-.22-2.591,7.4,7.4,0,0,0-.682-2,5.216,5.216,0,0,0-2.348-2.244,7.581,7.581,0,0,0-3.389-.706,7.706,7.706,0,0,0-3.539.787,5.275,5.275,0,0,0-2.348,2.487,9.748,9.748,0,0,0-.648,3.551v14.2l-.035.335a2.533,2.533,0,0,1-5.055,0l-.035-.44v-14.1c0-.127-.058-1.55-.127-1.874a7.4,7.4,0,0,0-.682-2,5.273,5.273,0,0,0-2.336-2.244,7.581,7.581,0,0,0-3.389-.706,7.706,7.706,0,0,0-3.539.787,5.274,5.274,0,0,0-2.348,2.487,9.455,9.455,0,0,0-.74,4.129V32.57a2.5,2.5,0,0,1-5,0l-.023-.393V17.209a11.9,11.9,0,0,1,1.076-5.3,9.212,9.212,0,0,1,1.538-2.175,9.355,9.355,0,0,1,2.244-1.666,12.367,12.367,0,0,1,3-1.087,16.557,16.557,0,0,1,3.794-.393,14.233,14.233,0,0,1,6.524,1.319,9.777,9.777,0,0,1,2.024,1.376l.567.5.578-.509a10.348,10.348,0,0,1,1.712-1.2,12.368,12.368,0,0,1,3-1.087,16.623,16.623,0,0,1,3.794-.393,14.233,14.233,0,0,1,6.524,1.319,9.047,9.047,0,0,1,3.794,3.482,9.3,9.3,0,0,1,1.006,2.591,14.559,14.559,0,0,1,.335,3.227V32.315l-.023.254a2.51,2.51,0,0,1-2.5,2.383" transform="translate(-1157.945 -6.463)" fill="#2b2e34"/>
      <g id="Group_858" data-name="Group 858" transform="translate(151.455 0.126)">
        <g id="Group_857" data-name="Group 857" clip-path="url(#clip-path-7)">
          <g id="Group_856" data-name="Group 856" transform="translate(-0.012 -0.762)">
            <rect id="Rectangle_138" data-name="Rectangle 138" width="223.655" height="47.878" fill="#2b2e34"/>
          </g>
        </g>
      </g>
    </g>
  </g>
</svg>
