<svg xmlns="http://www.w3.org/2000/svg" width="154.922" height="41.55" viewBox="0 0 154.922 41.55"><g transform="translate(-93.204 -340.499)"><g transform="translate(93.204 340.499)"><path d="M93.2,341.427h13.344c.7,0,.835.131.835.829,0,1.331,0,2.662,0,4.136.2-.222.326-.353.445-.49a14.224,14.224,0,0,1,6.415-4.592c4.712-1.467,9.21-1.044,13.2,2.064a12.872,12.872,0,0,1,4.792,8.772,27.519,27.519,0,0,1,.238,3.684q.03,12.235.01,24.469v.7c-.2.013-.373.033-.546.033q-6.413,0-12.827,0c-.634,0-.775-.144-.775-.79,0-6.956.018-13.912-.022-20.868a10.73,10.73,0,0,0-.475-3,4.244,4.244,0,0,0-4.307-3.193,5.523,5.523,0,0,0-6.048,5.086,11.862,11.862,0,0,0-.1,1.522q-.01,10.286,0,20.572V381c-.187.014-.343.035-.5.035q-6.438,0-12.876,0c-.643,0-.8-.166-.8-.819q0-19.117,0-38.234Z" transform="translate(-93.204 -340.499)" fill="#2b2e34"/><path d="M1295,361.686c.24-2.342-.468-4.983-3.287-5.957a13.635,13.635,0,0,0-5.2-.632,30.877,30.877,0,0,0-10.559,2.41c-.133.056-.413.044-.458-.034a.71.71,0,0,1-.06-.551c1.13-2.836,2.278-5.665,3.423-8.5.406-1,.8-2.014,1.234-3.006a.828.828,0,0,1,.5-.425,42.284,42.284,0,0,1,11.172-.8,23.455,23.455,0,0,1,7.371,1.415c5.436,2.135,8.729,6.038,9.55,11.88a31.727,31.727,0,0,1,.3,4.272c.029,7.3.013,14.605.013,21.908v.649c-.2.009-.373.023-.546.023q-6.316,0-12.631,0c-.673,0-.827-.159-.827-.848,0-.885,0-1.77,0-2.758-.192.155-.32.244-.43.35a14.64,14.64,0,0,1-10.218,4.1,14.885,14.885,0,0,1-7.9-1.715,11.472,11.472,0,0,1-6.141-9.412,12.594,12.594,0,0,1,1.516-7.75,11.616,11.616,0,0,1,6.79-5.081,23.226,23.226,0,0,1,8.321-.958,29.972,29.972,0,0,1,7.881,1.4A.906.906,0,0,0,1295,361.686Zm-4.666,5.533c-.764.093-1.539.131-2.29.288-2.875.6-4.385,2.55-4.114,5.331a3.244,3.244,0,0,0,2.216,2.976,6.945,6.945,0,0,0,3.591.28,6.177,6.177,0,0,0,4.937-3.627,9.085,9.085,0,0,0,.537-3.918.492.492,0,0,0-.412-.55A17.4,17.4,0,0,0,1290.333,367.219Z" transform="translate(-1154.079 -343.763)" fill="#2b2e34"/><path d="M536.654,370.991c0-3.239.155-6.488-.038-9.716-.25-4.18-2.863-7.217-7.113-7.64a7.952,7.952,0,0,0-8.746,6.44,9.682,9.682,0,0,0,.841,6.8,7.382,7.382,0,0,0,7.18,4.037,11.808,11.808,0,0,0,2.366-.406c.561-.127.773-.017.78.556.008.74,0,1.48,0,2.22q0,4.366,0,8.732c0,.752,0,.776-.727.843a22.373,22.373,0,0,1-15.894-4.111,20.29,20.29,0,0,1-3.069-30.48,20.844,20.844,0,0,1,12.9-6.485A22.49,22.49,0,0,1,540,344.56c5.272,3.133,8.866,7.615,10.055,13.726a19.73,19.73,0,0,1-5.008,17.889,20.411,20.411,0,0,1-7.55,5.155c-.569.231-.819.06-.819-.571q0-4.884,0-9.768Z" transform="translate(-465.898 -341.431)" fill="#2b2e34"/><path d="M925.622,371.591q.478-1.44.956-2.879,3.132-9.462,6.256-18.926a.522.522,0,0,1,.6-.421c4.489.011,8.978.006,13.468.009.651,0,.808.24.565.849q-7.268,18.228-14.537,36.455c-.268.671-.544,1.339-.8,2.016a.485.485,0,0,1-.53.382q-5.92-.017-11.839,0c-.526,0-.7-.35-.856-.74q-1.805-4.526-3.6-9.055-5.855-14.679-11.711-29.356c-.06-.15-.109-.3-.186-.523.21-.01.381-.026.553-.026q6.709,0,13.418,0c.629,0,.794.125.994.729q3.494,10.538,6.99,21.076c.046.139.1.275.148.413Z" transform="translate(-823.449 -348.49)" fill="#2b2e34"/></g></g></svg>