<svg xmlns="http://www.w3.org/2000/svg" width="221.072" height="39.719" viewBox="0 0 221.072 39.719">
  <g id="petbarn" transform="translate(-406.302 -494.229)">
    <path id="Path_696" data-name="Path 696" d="M443.065,533.946V494.235H465.7v10.881H455.275l0,3.681h9.5l0,10.444h-9.5v3.824h10.762v10.883Z" transform="translate(-4.626 -0.001)" fill="#2b2e34" fill-rule="evenodd"/>
    <path id="Path_697" data-name="Path 697" d="M478.8,533.946l0-27.184-6.867.4,0-12.927h25.583l0,12.927-6.732-.395v27.181Z" transform="translate(-8.258 -0.001)" fill="#2b2e34" fill-rule="evenodd"/>
    <path id="Path_698" data-name="Path 698" d="M516.1,524.4l-.005-6.552h2.647a3.388,3.388,0,0,1,2.743.947,3.776,3.776,0,0,1,.423,4.026,2.566,2.566,0,0,1-1.343,1.3,5.784,5.784,0,0,1-1.984.275Zm-.007-14.943.007-5.675h1.919a2.574,2.574,0,0,1,2.609,1.2,3.674,3.674,0,0,1,.142,2.84,2.354,2.354,0,0,1-1.2,1.365,3.812,3.812,0,0,1-1.535.275Zm-11.279-15.219,14.677-.005a24.29,24.29,0,0,1,5.129.55,9.24,9.24,0,0,1,6.589,5.679,13.718,13.718,0,0,1,.762,6.569,8.275,8.275,0,0,1-2.712,5.4,6.7,6.7,0,0,1-1.553.994,12.217,12.217,0,0,1,1.881,1.111,9.887,9.887,0,0,1,3.822,5.894,11.524,11.524,0,0,1-3.837,11.3,9.171,9.171,0,0,1-3.026,1.611,16.239,16.239,0,0,1-4.657.618l-17.076,0Z" transform="translate(-12.396 0)" fill="#2b2e34" fill-rule="evenodd"/>
    <path id="Path_699" data-name="Path 699" d="M553.434,519.576l2.444-12.1,2.447,12.1Zm-2.27,9.4-.9,4.971-12.879,0,11.618-39.715,13.5,0,11.963,39.713h-12.92l-1.114-4.971Z" transform="translate(-16.495 0)" fill="#2b2e34" fill-rule="evenodd"/>
    <path id="Path_700" data-name="Path 700" d="M594.172,511.9v-6.789h2.108a2.382,2.382,0,0,1,1.831.785,4.254,4.254,0,0,1,.687,4.073,2.856,2.856,0,0,1-1.535,1.656,3.985,3.985,0,0,1-1.425.254Zm-11.877,22.044,0-39.718,15.146,0a13.668,13.668,0,0,1,6.292,1.179,12.635,12.635,0,0,1,6.086,6.478,16.9,16.9,0,0,1,.953,8.121,12.931,12.931,0,0,1-1.245,4.492,7.4,7.4,0,0,1-3.838,3.477c-.316.126-.636.246-.96.363l8.972,15.6-14.024,0-5.5-13.451v13.451Z" transform="translate(-22.145 0)" fill="#2b2e34" fill-rule="evenodd"/>
    <path id="Path_701" data-name="Path 701" d="M620.781,533.948V494.23h11.663l7.79,14.974c.613,1.185,1.209,2.371,1.776,3.575.406.9.8,1.8,1.2,2.7-.141-1.252-.278-2.512-.366-3.756-.116-1.635-.147-3.26-.142-4.9V494.23h11.665v39.718l-11.665,0-8.383-15.673c-.829-1.553-1.532-3.171-2.255-4.777.183,2.3.385,4.609.385,6.917v13.533Z" transform="translate(-26.988 0)" fill="#2b2e34" fill-rule="evenodd"/>
    <path id="Path_702" data-name="Path 702" d="M418.16,511.992l.006-6.871h2.252a3.093,3.093,0,0,1,3.076,1.792,4.141,4.141,0,0,1-.2,3.477,3.368,3.368,0,0,1-3.04,1.6ZM406.3,533.948l0-39.713h16.1a12.444,12.444,0,0,1,10.8,5.5,16.942,16.942,0,0,1,2.428,8.8,16.162,16.162,0,0,1-2.337,8.945,9.779,9.779,0,0,1-8.388,4.541H418.16v11.935Z" transform="translate(0 -0.001)" fill="#2b2e34" fill-rule="evenodd"/>
  </g>
</svg>
