<svg id="Rehydraid" xmlns="http://www.w3.org/2000/svg" width="217.747" height="49.405" viewBox="0 0 217.747 49.405">
  <g id="Group_885" data-name="Group 885" transform="translate(0 2.506)">
    <g id="Group_881" data-name="Group 881" transform="translate(0 1.513)">
      <path id="Path_723" data-name="Path 723" d="M59.978,53.1a12.982,12.982,0,0,1-2.56,1.451l5.99,13.114H56.2L50.558,55.1H43.987V67.668H37.531V34.187h16.69a8.9,8.9,0,0,1,6.8,2.9,10.245,10.245,0,0,1,2.733,7.252,11.825,11.825,0,0,1-1.569,6.043A10.875,10.875,0,0,1,59.978,53.1ZM43.987,39.687v9.85h8.2a5.245,5.245,0,0,0,3.665-1.389,4.709,4.709,0,0,0,1.511-3.626,4.537,4.537,0,0,0-1.511-3.5,5.4,5.4,0,0,0-3.665-1.329Z" transform="translate(-37.531 -33.159)" fill="#2b2e34"/>
      <path id="Path_724" data-name="Path 724" d="M99.042,67.378a5.939,5.939,0,0,0,3.43,1.874,13.143,13.143,0,0,0,1.746.121,6.05,6.05,0,0,0,4.593-1.812l4.071,3.142a10.8,10.8,0,0,1-8.663,3.808,11.981,11.981,0,0,1-9.129-3.566,13.486,13.486,0,0,1-3.432-9.609c0-4.292,1.1-7.615,3.314-10.093s5.351-3.748,9.42-3.748a9.714,9.714,0,0,1,9.131,5.258c1.569,2.78,2.325,6.467,2.383,11.12H97.647A4.663,4.663,0,0,0,99.042,67.378Zm.349-12.994a7.2,7.2,0,0,0-1.8,4.956h12.5a7.7,7.7,0,0,0-1.628-4.9,5.417,5.417,0,0,0-4.477-2.055A5.948,5.948,0,0,0,99.391,54.385Z" transform="translate(-63.394 -39.518)" fill="#2b2e34"/>
      <path id="Path_725" data-name="Path 725" d="M159.579,51.316a4.439,4.439,0,0,0-1.628-3.5,5.442,5.442,0,0,0-3.665-1.45,6.137,6.137,0,0,0-3.72,1.511,4.5,4.5,0,0,0-1.861,3.444V66.727h-5.815V35.361l5.815-3.142V45.212a8.322,8.322,0,0,1,7.443-3.807,9.3,9.3,0,0,1,6.628,2.418,8.394,8.394,0,0,1,2.676,6.587V66.727h-5.872Z" transform="translate(-87.874 -32.219)" fill="#2b2e34"/>
      <path id="Path_726" data-name="Path 726" d="M194.159,85.569l4.013-10.516L188,48.885h7.152l6.513,17.949,6.8-17.949h6.165l-13.9,36.684Z" transform="translate(-109.427 -40.182)" fill="#2b2e34"/>
      <path id="Path_727" data-name="Path 727" d="M259.66,63.136A7.64,7.64,0,0,1,252.915,67a10.949,10.949,0,0,1-8.317-3.325,12.051,12.051,0,0,1-3.255-8.7,15.624,15.624,0,0,1,3.023-9.548,10.208,10.208,0,0,1,8.43-4.412,13.705,13.705,0,0,1,6.862,2.3v-8.34l5.814-2.175V66.943H259.66Zm-2.094-15.169a5.383,5.383,0,0,0-3.488-1.329,6.367,6.367,0,0,0-4.479,1.329c-1.569,1.389-2.325,3.746-2.325,7.01a7.044,7.044,0,0,0,1.8,5.137,6.658,6.658,0,0,0,5,1.934q3.138,0,5.582-4.714V50.867A13.419,13.419,0,0,0,257.565,47.967Z" transform="translate(-134.919 -32.496)" fill="#2b2e34"/>
      <path id="Path_728" data-name="Path 728" d="M307.148,53.886a4.635,4.635,0,0,0-3.488,1.451,5.068,5.068,0,0,0-1.455,3.687V74.193h-5.291V48.448h5.291v3.022c2.036-2.418,4.128-3.626,6.223-3.626a6.729,6.729,0,0,1,2.966.665l-2.036,6.043A6.059,6.059,0,0,0,307.148,53.886Z" transform="translate(-161.472 -39.685)" fill="#2b2e34"/>
      <path id="Path_729" data-name="Path 729" d="M339.215,71.514a17.25,17.25,0,0,1-7.908,2.3,8.757,8.757,0,0,1-6.339-2.175c-1.568-1.511-2.325-3.626-2.325-6.466a8.434,8.434,0,0,1,3.081-7.011,11.648,11.648,0,0,1,7.268-2.115,12.59,12.59,0,0,1,6.223,1.813c-.057-4.291-2.034-6.407-5.93-6.407a8.845,8.845,0,0,0-5.233,1.572l-1.862-3.5c1.919-1.753,4.535-2.6,7.967-2.6a12.439,12.439,0,0,1,7.443,2.115,7.922,7.922,0,0,1,3.315,6.891V73.629h-5.7ZM337.3,61.18a7,7,0,0,0-2.733-.6c-4.011,0-6.047,1.45-6.047,4.412a3.262,3.262,0,0,0,1.861,2.961,7.122,7.122,0,0,0,3.49.785,10.554,10.554,0,0,0,3.081-.846c1.453-.6,2.21-1.148,2.21-1.631V62.992C339.157,62.268,338.518,61.663,337.3,61.18Z" transform="translate(-173.766 -39.242)" fill="#2b2e34"/>
      <path id="Path_730" data-name="Path 730" d="M373.871,49.116h5.817V74.8h-5.817Z" transform="translate(-198.244 -40.293)" fill="#2b2e34"/>
      <path id="Path_731" data-name="Path 731" d="M410.566,63.136A7.64,7.64,0,0,1,403.821,67a10.949,10.949,0,0,1-8.317-3.325,12.051,12.051,0,0,1-3.255-8.7,15.621,15.621,0,0,1,3.024-9.548,10.206,10.206,0,0,1,8.43-4.412,13.705,13.705,0,0,1,6.862,2.3v-8.34L416.38,32.8V66.943h-5.814Zm-2.094-15.169a5.384,5.384,0,0,0-3.488-1.329,6.369,6.369,0,0,0-4.479,1.329c-1.569,1.389-2.325,3.746-2.325,7.01a7.046,7.046,0,0,0,1.8,5.137,6.658,6.658,0,0,0,5,1.934q3.138,0,5.581-4.714V50.867A13.428,13.428,0,0,0,408.472,47.967Z" transform="translate(-207.026 -32.496)" fill="#2b2e34"/>
    </g>
    <g id="Group_883" data-name="Group 883" transform="translate(111.701 11.626)">
      <ellipse id="Ellipse_5" data-name="Ellipse 5" cx="7.345" cy="11.121" rx="7.345" ry="11.121" transform="translate(0 0.373)" fill="#2b2e34"/>
      <g id="Group_882" data-name="Group 882" transform="translate(0.784)">
        <path id="Path_732" data-name="Path 732" d="M258.645,51.586c-1.293,5.42-5.907,8.3-5.689,13.673h0v.026a5.693,5.693,0,1,0,11.378,0v-.022h0C264.451,60.132,260.785,57.159,258.645,51.586Z" transform="translate(-252.949 -51.586)" fill="#fff"/>
        <path id="Path_733" data-name="Path 733" d="M259.957,60.269l-.575,5.19c-.391,2.145-2.918,1.77-2.567-.25.356-1.376,1.974-3.021,2.856-5.024A.15.15,0,0,1,259.957,60.269Z" transform="translate(-254.78 -55.651)" fill="#2b2e34"/>
      </g>
    </g>
    <g id="Group_884" data-name="Group 884" transform="translate(211.203)">
      <path id="Path_734" data-name="Path 734" d="M448.546,32.506a3.273,3.273,0,1,1-3.262-3.185A3.2,3.2,0,0,1,448.546,32.506Zm-5.729,0a2.468,2.468,0,0,0,2.486,2.543,2.438,2.438,0,0,0,2.427-2.524,2.458,2.458,0,1,0-4.913-.019Zm1.961,1.669h-.738V30.991a6.48,6.48,0,0,1,1.223-.1,1.986,1.986,0,0,1,1.107.233.885.885,0,0,1,.311.7.816.816,0,0,1-.661.738V32.6a.94.94,0,0,1,.583.777,2.426,2.426,0,0,0,.233.8h-.8a2.739,2.739,0,0,1-.252-.776c-.058-.349-.253-.5-.66-.5h-.35Zm.019-1.806h.35c.408,0,.738-.136.738-.466,0-.291-.214-.486-.68-.486a1.781,1.781,0,0,0-.408.039Z" transform="translate(-442.002 -29.321)" fill="#2b2e34"/>
    </g>
  </g>
  <g id="Group_886" data-name="Group 886" transform="translate(173.57)">
    <rect id="Rectangle_144" data-name="Rectangle 144" width="9.969" height="3.739" transform="translate(0 3.115)" fill="#2b2e34"/>
    <rect id="Rectangle_145" data-name="Rectangle 145" width="3.739" height="9.969" transform="translate(3.115)" fill="#2b2e34"/>
  </g>
</svg>
