<svg xmlns="http://www.w3.org/2000/svg" width="96.763" height="92.596" viewBox="0 0 96.763 92.596">
  <g id="Group_1292" data-name="Group 1292" transform="translate(-260.65 -138.499)">
    <g id="Group_1203" data-name="Group 1203" transform="translate(344.223 189.116)">
      <path id="Path_1424" data-name="Path 1424" d="M498.515,281.607a1.834,1.834,0,1,1-1.821,1.833A1.83,1.83,0,0,1,498.515,281.607Zm0,4.027a2.194,2.194,0,1,0-2.178-2.194A2.192,2.192,0,0,0,498.515,285.634Zm.374-2.089a.624.624,0,0,0,.651-.672c0-.512-.4-.643-.834-.643h-1.029v2.464h.354v-1.149h.455l.623,1.149h.4Zm-.254-.966c.3,0,.559.022.559.332,0,.337-.455.274-.791.274h-.372v-.606Z" transform="translate(-496.337 -281.246)" fill="#2b2e34"/>
    </g>
    <g id="Group_1204" data-name="Group 1204" transform="translate(260.65 138.499)">
      <path id="Path_1425" data-name="Path 1425" d="M384.924,149.505a2.048,2.048,0,0,0-1.463.606c-.536.548-.594,1.119-.594,2.892s.058,2.344.594,2.892a2.07,2.07,0,0,0,2.927,0c.535-.548.594-1.119.594-2.892s-.06-2.344-.594-2.892A2.048,2.048,0,0,0,384.924,149.505Z" transform="translate(-339.529 -145.602)" fill="#2b2e34"/>
      <path id="Path_1426" data-name="Path 1426" d="M480.1,149.505a2.048,2.048,0,0,0-1.463.606c-.536.548-.594,1.119-.594,2.892s.058,2.344.594,2.892a2.07,2.07,0,0,0,2.927,0c.535-.548.594-1.119.594-2.892s-.06-2.344-.594-2.892A2.048,2.048,0,0,0,480.1,149.505Z" transform="translate(-400.959 -145.602)" fill="#2b2e34"/>
      <path id="Path_1427" data-name="Path 1427" d="M260.651,138.5V153.26h96.762V138.5Zm12.881,3.974H271.08v7.663h-.9v-7.663h-2.45v-.81h5.806Zm7.868,7.663h-.9v-3.867h-4.021v3.867h-.905v-8.473h.905v3.8H280.5v-3.8h.9Zm7.871-7.663h-4.354v2.986h3.712v.81h-3.712v3.058h4.354v.81h-5.259v-8.473h5.259Zm11.4,7.663h-.9v-3.867h-4.021v3.867h-.905v-8.473h.905v3.8h4.021v-3.8h.9Zm7.537-.81a3.1,3.1,0,0,1-4.331,0c-.8-.8-.8-1.631-.8-3.427s0-2.629.8-3.427a3.1,3.1,0,0,1,4.331,0c.8.8.8,1.63.8,3.427S309.009,148.529,308.211,149.327Zm8.94-1.987a2.959,2.959,0,0,1-5.915,0v-5.676h.905v5.605a2.053,2.053,0,1,0,4.1,0v-5.605h.905Zm4.788,2.867a3.69,3.69,0,0,1-2.9-1.119l.619-.618a2.91,2.91,0,0,0,2.308.927c1.236,0,2-.583,2-1.571a1.361,1.361,0,0,0-.4-1.058,1.829,1.829,0,0,0-1.106-.406l-.988-.154a3.079,3.079,0,0,1-1.558-.643,2,2,0,0,1-.644-1.583c0-1.44,1.036-2.392,2.713-2.392a3.4,3.4,0,0,1,2.523.929l-.583.583a2.665,2.665,0,0,0-1.975-.726,1.565,1.565,0,0,0-1.786,1.57,1.226,1.226,0,0,0,.381.977,2.457,2.457,0,0,0,1.142.463l.929.143a2.73,2.73,0,0,1,1.548.6,2.121,2.121,0,0,1,.713,1.677C324.867,149.29,323.7,150.207,321.94,150.207Zm10.176-7.734h-4.354v2.986h3.712v.81h-3.712v3.058h4.354v.81h-5.259v-8.473h5.259Zm9.846,6.854a3.1,3.1,0,0,1-4.331,0c-.8-.8-.8-1.631-.8-3.427s0-2.629.8-3.427a3.1,3.1,0,0,1,4.331,0c.8.8.8,1.63.8,3.427S342.76,148.529,341.962,149.327Zm8.346-6.854h-4.354v3.117h3.712v.81h-3.712v3.736h-.905v-8.473h5.259Z" transform="translate(-260.651 -138.499)" fill="#2b2e34"/>
    </g>
    <g id="Group_1205" data-name="Group 1205" transform="translate(271.417 160.589)">
      <path id="Path_1428" data-name="Path 1428" d="M481.942,213.172h3.081v5.353h2.838v2.514h-2.878v11.437h-3V221.121h-2.149v-2.636h2.108Z" transform="translate(-412.879 -208.783)" fill="#2b2e34"/>
      <path id="Path_1429" data-name="Path 1429" d="M291.013,204.143v22.511h3.368v-9.61h1.245l6.315,9.61h3.824l-6.4-9.876a6.033,6.033,0,0,0,4.98-6.051,6.53,6.53,0,0,0-6.315-6.673C296.514,204.054,291.013,204.143,291.013,204.143Zm3.546,9.965v-6.673s3.408-.026,3.674-.026,2.818.293,2.818,3.5a3.078,3.078,0,0,1-3.113,3.2Z" transform="translate(-291.013 -202.899)" fill="#2b2e34"/>
      <path id="Path_1430" data-name="Path 1430" d="M333.315,226.8a7.4,7.4,0,1,0,7.825,7.385A7.615,7.615,0,0,0,333.315,226.8Zm0,12.011a4.628,4.628,0,1,1,4.491-4.626A4.561,4.561,0,0,1,333.315,238.816Z" transform="translate(-313.264 -217.582)" fill="#2b2e34"/>
      <path id="Path_1431" data-name="Path 1431" d="M378.2,210.019a7.513,7.513,0,0,0-4.665,1.949V200.8h-3.074v23.686h2.92l.087-1.435a7.27,7.27,0,0,0,4.732,1.743,7.385,7.385,0,0,0,0-14.77Zm-.373,12.011a4.628,4.628,0,1,1,4.491-4.626A4.56,4.56,0,0,1,377.823,222.03Z" transform="translate(-342.287 -200.796)" fill="#2b2e34"/>
      <path id="Path_1432" data-name="Path 1432" d="M454.983,227.267H457.7v1.866s2.353-3.447,6.123-2.19l-1.216,3.244a2.78,2.78,0,0,0-3.852.365,3.774,3.774,0,0,0-.769,2.312v8.315h-3.04Z" transform="translate(-396.814 -217.494)" fill="#2b2e34"/>
      <path id="Path_1433" data-name="Path 1433" d="M308.692,272.474H294.951v3.248H300.2v18.773h3.424V275.722h5.069Z" transform="translate(-293.555 -247.057)" fill="#2b2e34"/>
      <rect id="Rectangle_177" data-name="Rectangle 177" width="2.934" height="13.969" transform="translate(14.159 33.469)" fill="#2b2e34"/>
      <path id="Path_1434" data-name="Path 1434" d="M329.69,283.672a1.912,1.912,0,1,1,1.912,1.912A1.912,1.912,0,0,1,329.69,283.672Z" transform="translate(-315.975 -253.05)" fill="#2b2e34"/>
      <path id="Path_1435" data-name="Path 1435" d="M362.694,293.671a5.96,5.96,0,0,0-4.743,2.783h0a3.774,3.774,0,0,0-3.78-2.9,6.164,6.164,0,0,0-4.535,2.23v-1.652h-2.89v13.925h3.025v-8.427c0-1.34,1.14-3.193,2.845-3.184,2.8.014,2.757,3.381,2.757,3.381v8.229H358.4V299.51c0-.163.005.166,0,0-.012-1.191,1.1-3.111,2.8-3.069,2.8.069,2.758,3.381,2.758,3.381v8.229h3.023V299.51C367.022,296.708,365.895,293.582,362.694,293.671Z" transform="translate(-326.983 -260.659)" fill="#2b2e34"/>
      <path id="Path_1436" data-name="Path 1436" d="M425.358,293.671a5.955,5.955,0,0,0-4.743,2.783h0a3.777,3.777,0,0,0-3.781-2.9,6.163,6.163,0,0,0-4.534,2.23v-1.652h-2.89v13.925h3.024v-8.427c0-1.34,1.14-3.193,2.844-3.184,2.8.014,2.757,3.381,2.757,3.381v8.229h3.024V299.51c0-.163.006.166,0,0-.012-1.191,1.1-3.111,2.8-3.069,2.8.069,2.757,3.381,2.757,3.381v8.229h3.024V299.51C429.685,296.708,428.559,293.582,425.358,293.671Z" transform="translate(-367.426 -260.659)" fill="#2b2e34"/>
      <path id="Path_1437" data-name="Path 1437" d="M479.408,295.943l-1.957,1.824a2.636,2.636,0,0,0-2.045-1.067,1.423,1.423,0,0,0-1.646,1.379c0,.4.49.979,2.135,1.735s4.669,2,4.313,4.671a5.055,5.055,0,0,1-5.781,4.538,7.65,7.65,0,0,1-4.535-2.313L471.8,304.8s1.6,1.824,3.112,1.691,1.956-1.024,2-1.425.445-1.111-1.867-2.268-4.358-1.735-4.537-4.226a4.268,4.268,0,0,1,3.781-4.449A4.988,4.988,0,0,1,479.408,295.943Z" transform="translate(-406.462 -260.962)" fill="#2b2e34"/>
      <path id="Path_1438" data-name="Path 1438" d="M427.29,234.525a7.4,7.4,0,1,0-1.2,4.015l-2.2-1.423a4.5,4.5,0,0,1-3.822,2.214,4.7,4.7,0,0,1-4.544-4.379l11.749,0C427.286,234.813,427.29,234.67,427.29,234.525ZM415.909,232.4a4.45,4.45,0,0,1,8.312-.042Z" transform="translate(-369.345 -217.799)" fill="#2b2e34"/>
    </g>
    <path id="Path_1439" data-name="Path 1439" d="M356.028,181.562H262.036l-1.386-1.435v30.689c.536,25.283,19.889,47.093,48.215,47.146h.228c28.382,0,47.783-21.774,48.319-47.09V180.127Zm-1.659,1.719v27.872a44.414,44.414,0,0,1-12.842,30.568c-8.335,8.365-19.854,12.972-32.434,12.972-13.092,0-24.894-4.874-33.245-13.736-.193-.2-.385-.408-.579-.621A44.624,44.624,0,0,1,263.7,211.1V183.282Z" transform="translate(0 -26.867)" fill="#2b2e34" style="mix-blend-mode: darken;isolation: isolate"/>
  </g>
</svg>
