<svg xmlns="http://www.w3.org/2000/svg" width="175.144" height="110.052" viewBox="0 0 175.144 110.052"><g transform="translate(-710.089 -270.39)"><path d="M922.341,299.347a28.949,28.949,0,1,1-28.905-28.957A28.9,28.9,0,0,1,922.341,299.347Zm-30.856-25.089-.194-.043c-2.232,2.6-4.457,5.212-6.7,7.8a1.617,1.617,0,0,0-.333,1.191,110.459,110.459,0,0,1-.353,11.379,36.087,36.087,0,0,1-1.1,6.5,6.662,6.662,0,0,1-1.789,3.041c-2.831,2.757-5.615,5.563-8.414,8.353-.205.2-.389.431-.594.66.128.061.179.107.23.107,2.636.005,5.271,0,7.907.018a1.208,1.208,0,0,0,.937-.479c.9-.959,1.816-1.908,2.718-2.868,1.8-1.92,3.639-3.811,5.389-5.778a9.022,9.022,0,0,0,2.319-6.3c-.056-7.565-.021-15.131-.021-22.7Zm23.2,39.005c-.324-.352-.5-.555-.685-.742-2.866-2.854-5.722-5.717-8.608-8.551a5.5,5.5,0,0,1-1.444-2.307c-.21-.67-.408-1.348-.555-2.034a60.47,60.47,0,0,1-1.062-10.856c-.057-1.867-.034-3.737-.012-5.6a1.854,1.854,0,0,0-.487-1.323c-2.087-2.407-4.157-4.828-6.237-7.241a5.712,5.712,0,0,0-.482-.437c-.016.233-.032.354-.032.475q0,11.9.007,23.8a8.908,8.908,0,0,0,.169,1.638,8.49,8.49,0,0,0,2.205,4.173c2.677,2.905,5.4,5.765,8.129,8.626a1.226,1.226,0,0,0,.78.367C909.063,313.274,911.759,313.264,914.681,313.264Zm-21.323-5.369a5.4,5.4,0,1,0,5.424,5.45A5.483,5.483,0,0,0,893.358,307.894Z" transform="translate(-112.118)" fill="#2b2e34"/><g transform="translate(710.089 324.801)"><path d="M825,472.42h8.508v20.386a5.759,5.759,0,0,0,.413-.413c2.381-3.067,4.769-6.129,7.13-9.212a1.416,1.416,0,0,1,1.271-.623c5.643.021,11.285.013,16.928.013h.773l4.581,15.959.125.012,4.986-15.937h8c.018.029.03.048.04.068s.028.047.022.063q-6.227,15.825-12.459,31.649a3.194,3.194,0,0,1-.167.316h-8.076c.091-.253.157-.461.239-.662.924-2.267,1.843-4.536,2.782-6.8a1.412,1.412,0,0,0,.011-1.178q-4.567-11.194-9.1-22.4c-.052-.128-.112-.251-.17-.379-.417.251-6.689,7.913-7.53,9.2l9.04,13.377c-.289.027-.478.059-.667.059-3.076,0-6.152-.008-9.227.014a.974.974,0,0,1-.94-.533q-3.765-5.9-7.561-11.788a1.038,1.038,0,0,0-.416-.395v12.667h-8.424c-.036-.034-.054-.048-.069-.066s-.036-.037-.036-.055q-.021-16.432-.038-32.863C824.974,472.769,824.99,472.634,825,472.42Z" transform="translate(-793.538 -471.549)" fill="#2b2e34"/><path d="M710.089,492.921h9.391c.032.369.045.71.093,1.046a4.291,4.291,0,0,0,3.63,3.926,8.011,8.011,0,0,0,4.51-.19,3.2,3.2,0,0,0,2.3-2.465c.4-2.085-.3-3.255-1.974-3.9a14.263,14.263,0,0,0-1.526-.451c-2.635-.691-5.281-1.345-7.906-2.076a17.121,17.121,0,0,1-3.11-1.154,8.082,8.082,0,0,1-4.735-6.92,9.354,9.354,0,0,1,3.417-8.43,12.6,12.6,0,0,1,5.215-2.475,25.969,25.969,0,0,1,8.336-.461,18.121,18.121,0,0,1,4.4.89,10.326,10.326,0,0,1,3.275,1.774,8.474,8.474,0,0,1,3.013,5.816c.077.659.106,1.324.162,2.041h-9.42c-.056-.459-.1-.892-.164-1.322a3.5,3.5,0,0,0-2.834-3.113,5.7,5.7,0,0,0-3.922.366,3.279,3.279,0,0,0-1.866,3.722,2.706,2.706,0,0,0,1.548,2.011A12.244,12.244,0,0,0,724,482.3c2.807.764,5.628,1.477,8.433,2.248a13.159,13.159,0,0,1,3.489,1.507A7.465,7.465,0,0,1,739.436,491a11.261,11.261,0,0,1-.256,5.951,9.262,9.262,0,0,1-4.545,5.284,16.442,16.442,0,0,1-5.71,1.83,27.357,27.357,0,0,1-9.583-.26,14.021,14.021,0,0,1-4.516-1.708,9.273,9.273,0,0,1-4.422-6.5C710.243,494.741,710.2,493.862,710.089,492.921Z" transform="translate(-710.089 -469.238)" fill="#2b2e34"/><path d="M1041.443,505.879h-8.24c-.071-1.061-.14-2.082-.217-3.228-.193.229-.312.357-.415.5a8.132,8.132,0,0,1-6.3,3.294,13.337,13.337,0,0,1-3.8-.2,8.837,8.837,0,0,1-6.506-5.491,13.886,13.886,0,0,1-1.084-4.493,18.081,18.081,0,0,1,.514-6.872,9.682,9.682,0,0,1,7.978-7.1,12.038,12.038,0,0,1,3.934-.01,7.841,7.841,0,0,1,4.365,2.244c.226.219.45.441.8.789V472.465h8.744v.819q0,13.383.01,26.766c0,1.731.135,3.461.2,5.192C1041.449,505.425,1041.443,505.609,1041.443,505.879Zm-8.84-11.94c-.034-.418-.06-1.157-.163-1.886a7.761,7.761,0,0,0-1.137-3.236,3.684,3.684,0,0,0-5.977-.1,7.025,7.025,0,0,0-.889,1.785,13,13,0,0,0-.349,6.359,6.74,6.74,0,0,0,1.248,3.115,3.716,3.716,0,0,0,5.361.4,5.244,5.244,0,0,0,1.36-2.3A13.963,13.963,0,0,0,1032.6,493.939Z" transform="translate(-931.413 -471.582)" fill="#2b2e34"/><path d="M1284.143,520.695h-16.635a1.7,1.7,0,0,0-.084.48,17.231,17.231,0,0,0,.35,2.182,3.816,3.816,0,0,0,3.643,2.986,4.867,4.867,0,0,0,2.5-.406,3.281,3.281,0,0,0,1.769-2.115c.08-.263.134-.535.209-.838h8.071c-.014.194-.014.348-.039.5a7.918,7.918,0,0,1-4.135,5.836,13.569,13.569,0,0,1-4.988,1.592,20.778,20.778,0,0,1-6.559-.112,11.108,11.108,0,0,1-5.643-2.626,9.52,9.52,0,0,1-2.839-4.985,17.5,17.5,0,0,1,.272-9.108,9.906,9.906,0,0,1,7.76-7.223,17.683,17.683,0,0,1,8.313.081c4.2,1.047,6.628,3.846,7.6,7.959A23.014,23.014,0,0,1,1284.143,520.695Zm-8.348-4.773a5.205,5.205,0,0,0-.435-2.582,4.075,4.075,0,0,0-6.27-1.327,5.573,5.573,0,0,0-1.563,3.909Z" transform="translate(-1109.012 -496.232)" fill="#2b2e34"/><path d="M1162.987,509.643h9.363l4.566,16.049c1.775-5.307,3.367-10.66,5.022-16.036h8.2c-.088.273-.153.514-.241.746q-4.094,10.819-8.2,21.634c-.414,1.087-.117.921-1.361.925-2.613.008-5.226,0-7.839,0-.676,0-.678,0-.9-.592q-4.207-11.035-8.411-22.072C1163.118,510.11,1163.07,509.912,1162.987,509.643Z" transform="translate(-1039.059 -498.587)" fill="#2b2e34"/><path d="M1133.838,532.928h-8.661V509.695h8.661Z" transform="translate(-1011.595 -498.625)" fill="#2b2e34"/><path d="M1124.764,472.691h8.872v6.08c-.49.138-7.915.182-8.872.048Z" transform="translate(-1011.295 -471.746)" fill="#2b2e34"/></g><g transform="translate(786.196 367.144)"><path d="M1172.347,637.593h-2.275c-.111-.5-.245-.992-.327-1.495-.129-.785-.221-1.575-.334-2.363a5.45,5.45,0,0,0-.115-.542,1.272,1.272,0,0,0-1.1-1.032,6.379,6.379,0,0,0-.88-.1c-.719-.014-1.439,0-2.214,0v5.527c-.727.048-1.4.015-2.114.023V624.885c.141-.014.282-.04.424-.04,1.52,0,3.04-.027,4.559.011a7,7,0,0,1,1.8.278,2.9,2.9,0,0,1,2.165,2.435,3.193,3.193,0,0,1-1.241,3.249c-.073.056-.155.1-.23.155-.06.042-.116.089-.177.137a3.3,3.3,0,0,1,1.313,2.691,14.921,14.921,0,0,0,.746,3.634A.678.678,0,0,1,1172.347,637.593Zm-7.282-7.486a4.293,4.293,0,0,0,.441.049c.685,0,1.371.013,2.057,0a7.618,7.618,0,0,0,1.048-.107,1.27,1.27,0,0,0,.94-.709,1.7,1.7,0,0,0-1.178-2.522,4.485,4.485,0,0,0-.826-.076c-.809-.01-1.619,0-2.437,0a2.128,2.128,0,0,0-.044.275C1165.065,628.027,1165.066,629.044,1165.066,630.107Z" transform="translate(-1115.166 -624.602)" fill="#2b2e34"/><path d="M1081.493,632.951h2.139c.048.313.088.6.138.891a1.512,1.512,0,0,0,.955,1.211,4.234,4.234,0,0,0,3.25.01,1.7,1.7,0,0,0,1.006-1.125,1.405,1.405,0,0,0-.949-1.908c-.82-.284-1.675-.467-2.513-.7-.57-.159-1.151-.294-1.7-.5a3.019,3.019,0,0,1-2.166-2.63,3.327,3.327,0,0,1,1.433-3.231,5.451,5.451,0,0,1,2.755-.946,6.562,6.562,0,0,1,2.905.329,3.181,3.181,0,0,1,2.2,3.366.989.989,0,0,1-.2.042c-.63,0-1.259,0-1.94,0-.035-.171-.074-.325-.1-.482a1.316,1.316,0,0,0-.78-1.078,3.689,3.689,0,0,0-3.222.071,1.421,1.421,0,0,0-.8,1.2,1.183,1.183,0,0,0,.746,1.348,7.561,7.561,0,0,0,1.154.392c.875.24,1.763.435,2.632.7a6.524,6.524,0,0,1,1.426.6,2.957,2.957,0,0,1,1.434,2.93,3.894,3.894,0,0,1-3.282,3.634,7.844,7.844,0,0,1-3.8-.048A3.541,3.541,0,0,1,1081.493,632.951Z" transform="translate(-1055.948 -623.983)" fill="#2b2e34"/><path d="M1045.535,624.879h2.078a3.873,3.873,0,0,1,.048.429c0,2.538.016,5.077,0,7.615a4.722,4.722,0,0,1-4.3,4.892,6.351,6.351,0,0,1-3.887-.634,3.966,3.966,0,0,1-2.237-3.3c-.047-.534-.085-1.071-.087-1.607-.009-2.242,0-4.484,0-6.725v-.682c.729-.015,1.421-.014,2.195,0v.62q0,3.53,0,7.059c0,.2,0,.408,0,.611a2.524,2.524,0,0,0,2.273,2.649,5.614,5.614,0,0,0,1.872-.049,2.362,2.362,0,0,0,1.995-2.282c.035-.387.047-.776.047-1.165q.006-3.391,0-6.781Z" transform="translate(-1023.758 -624.62)" fill="#2b2e34"/><path d="M1299.979,637.673h-2.121c-.017-.03-.027-.045-.034-.062s-.021-.036-.018-.051a1.79,1.79,0,0,1,.075-.265q2.595-6.166,5.2-12.344h2.152l5.155,12.741c-.768,0-1.462,0-2.155,0-.249,0-.286-.2-.355-.367-.316-.751-.625-1.5-.939-2.255-.078-.187-.163-.371-.249-.565H1301.3Zm4.153-10.027-.118,0-1.967,4.981a21.376,21.376,0,0,0,3.931-.06Z" transform="translate(-1213.094 -624.687)" fill="#2b2e34"/><path d="M1000.843,637.579h-2.349l-1.327-3.154c-.161-.011-.3-.029-.448-.029q-2.224,0-4.448,0c-.5,0-.5,0-.687.455l-1.135,2.727h-2.223c.067-.193.112-.348.174-.495q2.477-5.886,4.948-11.774a.649.649,0,0,1,.74-.48c.516.033,1.036.008,1.6.008ZM994.537,627.4c-.7,1.78-1.381,3.419-2.011,5.14h3.943Z" transform="translate(-988.224 -624.595)" fill="#2b2e34"/><path d="M1204.333,624.905h2.142l5.162,12.757h-2.349l-1.336-3.177h-5.4l-1.319,3.146h-2.256Zm2.849,7.7a34.986,34.986,0,0,0-1.923-5l-1.967,5Z" transform="translate(-1141.306 -624.653)" fill="#2b2e34"/><path d="M1120.791,624.93h10.376a15.124,15.124,0,0,1,.02,1.874h-4.141c-.011,1.263,0,2.461-.005,3.659s0,2.373,0,3.559v3.627h-2.125c-.02-1.2-.007-2.4-.009-3.594s0-2.372,0-3.559v-3.66h-4.1C1120.771,626.184,1120.8,625.586,1120.791,624.93Z" transform="translate(-1084.514 -624.671)" fill="#2b2e34"/><path d="M1258.5,635.77V637.7h-7.815V625.01h2.121c.042.694.012,1.408.018,2.121s0,1.408,0,2.112v6.51h1.917c.63,0,1.26,0,1.891,0S1257.873,635.734,1258.5,635.77Z" transform="translate(-1178.864 -624.729)" fill="#2b2e34"/><path d="M1287.492,637.684h-2.025c-.113-.4-.137-12.067-.021-12.7h2.025C1287.583,625.376,1287.607,637.038,1287.492,637.684Z" transform="translate(-1204.061 -624.707)" fill="#2b2e34"/></g></g></svg>