<svg xmlns="http://www.w3.org/2000/svg" width="219.872" height="59.706" viewBox="0 0 219.872 59.706">
  <g id="Sydneys_Luna_Park" data-name="Sydneys Luna Park" transform="translate(0 0)">
    <path id="Path_681" data-name="Path 681" d="M132.383,6.342c1.733-1.169,2.214-2.853,1.439-3.744a2.294,2.294,0,0,1,1.829-1.062,1.353,1.353,0,0,1,1,.412,1.339,1.339,0,0,1,.373,1.014c0,1.726-2.292,3.511-3.7,4.018A2.163,2.163,0,0,1,132.383,6.342Zm2.635,2.865-.171.372c-.265.521.294.151.979.373l.2-.434a13.028,13.028,0,0,1,.707-1.227v.015c0,.8.654,2.057.657,3.218a.925.925,0,0,1-.148.7.94.94,0,0,1-.6.388.461.461,0,0,1-.477-.487.652.652,0,0,1,.438-.579,1.428,1.428,0,0,0-1.377-.955,1.73,1.73,0,0,0-1.733,1.784,2.786,2.786,0,0,0,3.11,2.611c1.925,0,3.908-1.019,3.9-3.047a29.673,29.673,0,0,0-.879-3.438,1,1,0,0,1,.865-.963,3.5,3.5,0,0,0-1.222-1.85c-1.819.194-2.982,1.237-4.251,3.52h0Zm6.941,9.238c-.013,1.151-1.267,2.45-3.582,2.423-2.282-.028-4.888-1.459-7.009-2.147a12.785,12.785,0,0,0-2.445-.543l-.015.041c-.957,2.246-2.575,4.028-5.016,4a2.115,2.115,0,0,1-2.313-2.039c.028-2.257,2.763-3.49,4.9-3.645l.026-.083c.234-.758.739-2.273.967-3.168A3.516,3.516,0,0,1,124.8,14.95a1.781,1.781,0,0,1-1.317-.589,1.763,1.763,0,0,1-.44-1.369,4.149,4.149,0,0,1,.033-.46,5.969,5.969,0,0,1-4.559,2.5,2.982,2.982,0,0,1-3.122-2.5,5.629,5.629,0,0,1-4.045,2.536,1.621,1.621,0,0,1-1.806-1.726c0-1.4,1-3.225,1-3.807a.238.238,0,0,0-.076-.2.242.242,0,0,0-.208-.063c-.868,0-1.9,2.286-2.151,3.009a21.339,21.339,0,0,0-.682,2.72c-1.975.2-3.19-.051-3.2-1.4a3.429,3.429,0,0,1,.029-.356A4.662,4.662,0,0,1,100.91,15.1a1.807,1.807,0,0,1-1.979-1.913,3.59,3.59,0,0,1-2.757,1.914,2.105,2.105,0,0,1-2-2.247,17.306,17.306,0,0,1-1.5,1.228l-.553,2.006c-.774,2.911-2.482,5.576-5.448,5.59a2.026,2.026,0,0,1-2.282-1.992c-.012-2.369,2.9-3.889,5.11-4.947l.346-1.341a3.5,3.5,0,0,1-2.666,1.672,1.775,1.775,0,0,1-1.322-.583,1.757,1.757,0,0,1-.448-1.369C85.4,11.614,86.492,9.174,86.72,7.3c1.246-.082,2.824-.013,2.83,1.229,0,.879-1.027,2.991-1.023,4,0,.251.063.424.267.423.7,0,2.039-2.963,2.469-5.653,2.161-.133,2.716.521,2.721,1.355a32.723,32.723,0,0,1-.883,3.8,11.5,11.5,0,0,0,1.187-1.2c.5-2.185,2.266-4.015,4.159-4.021a1.766,1.766,0,0,1,1.679.881c.379-1.235,1.4-4.9,1.8-6.922,2.62.023,3.254.556,3.258,1.387,0,1.289-2.826,8.27-2.819,9.858,0,.3.064.5.265.5.709,0,2.249-2.361,2.738-3.244a15.421,15.421,0,0,0,.624-2.456c1.547-.085,3.172-.027,3.208,1.026a2.862,2.862,0,0,1-.2.94,4.485,4.485,0,0,1,3.418-2.067,1.467,1.467,0,0,1,1.156.328,1.451,1.451,0,0,1,.521,1.08c0,1.162-1.079,2.739-1.076,3.744a.329.329,0,0,0,.065.285.338.338,0,0,0,.267.123c.724,0,1.714-1.438,2.314-2.444a5.029,5.029,0,0,1,4.473-3.112,2.277,2.277,0,0,1,1.706.409,2.254,2.254,0,0,1,.9,1.5c0,1.662-2.322,2.886-4.324,3.1a.932.932,0,0,0,1.023.733,5.728,5.728,0,0,0,4.329-3.331l.046-.085a15.5,15.5,0,0,0,.534-2.306c1.244-.082,2.822-.009,2.83,1.232,0,.881-1.035,2.989-1.03,4,0,.251.065.424.266.424.7,0,2.041-2.961,2.474-5.651,2.162-.133,2.715.531,2.718,1.358,0,.7-1.725,6.615-2.132,7.989.631.069,1.293.169,1.82.265a43.189,43.189,0,0,0,5.84,1.12,2.958,2.958,0,0,0,2.91-1.156,1.815,1.815,0,0,1,1.911,1.713l0-.006Zm-23.423-7.531a2.155,2.155,0,0,0,1.7-1.483.266.266,0,0,0-.3-.265,2.346,2.346,0,0,0-1.4,1.749ZM89.061,16.253c-1.066.663-2.325,1.7-2.318,2.71a.45.45,0,0,0,.1.352.456.456,0,0,0,.328.166C88.041,19.477,88.723,17.389,89.061,16.253ZM99.4,9.911a.428.428,0,0,0-.063-.334.434.434,0,0,0-.285-.185c-.666,0-1.495,1.844-1.488,2.912,0,.408.142.581.331.58.681,0,1.507-2.135,1.507-2.974h0Zm26.556,8.111a2.1,2.1,0,0,0-2,1.532.429.429,0,0,0,.466.469c.6.007,1.14-1,1.533-2ZM84.5,12.156c-.174-2.908-3.127-5.034-3.262-7.285a1.912,1.912,0,0,1,1.27-2.223.837.837,0,0,1,.825.929,3.2,3.2,0,0,1-.758,2,2,2,0,0,0,1.655.813A2.8,2.8,0,0,0,86.523,3.2,3.371,3.371,0,0,0,82.706.03a4.866,4.866,0,0,0-4.6,5.409c.176,2.977,2.667,4.985,2.772,7.088a2.527,2.527,0,0,1-2.363,2.7,1.874,1.874,0,0,1-1.429-.426,1.853,1.853,0,0,1-.66-1.332,1.418,1.418,0,0,1,.726-1.348.938.938,0,0,1,1.067.079,1.075,1.075,0,0,0,.577-1.03,2.209,2.209,0,0,0-2.476-2.089,4.007,4.007,0,0,0-3.573,4.35,5.234,5.234,0,0,0,5.823,4.913,5.879,5.879,0,0,0,5.93-6.186ZM21.595,45.083c.859,1.2,1.52,8.136,1.282,10.457a.845.845,0,0,1-.3.564c-.724.6-10.9,1.4-15.565,1.4a7.1,7.1,0,0,1-2.266-.188.813.813,0,0,1-.316-.408C2.04,50.3-.452,28.268.07,26.822a.844.844,0,0,1,.478-.493c1.958-.8,8.852-1.623,11.474-1a.842.842,0,0,1,.6.531,78.937,78.937,0,0,1,.6,8.708c.2,3.755.417,7.955.621,10.41l.761-.08a20.912,20.912,0,0,1,6.558-.124.839.839,0,0,1,.433.318v0Zm26.455-19.7a30.2,30.2,0,0,0-9.84.986.839.839,0,0,0-.564.786,22.786,22.786,0,0,0,.37,2.832c.574,3.6,1.918,12.039-.024,13.987a1.218,1.218,0,0,1-1.169.325c-2.212-.332-3-5.985-2.346-16.358.133-2.024.133-2.293-.016-2.6a.844.844,0,0,0-.36-.368c-1.224-.644-7.921-.749-10.237-.164a.84.84,0,0,0-.508.372c-.748,1.213-2.18,14.586,1.154,23.745a13.116,13.116,0,0,0,11.3,8.582,15.423,15.423,0,0,0,1.593.082,12.692,12.692,0,0,0,10.922-5.517c4.012-6.459,1.512-22.838.424-26.117a.837.837,0,0,0-.7-.572Zm33,1.579a.842.842,0,0,0-.389-.4c-1.147-.584-8.753-.821-10.044-.313a.851.851,0,0,0-.485.5,58.33,58.33,0,0,0-.72,8.264c-3.558-6.914-5.076-9.275-6.111-9.576a.981.981,0,0,0-.173-.032,67.807,67.807,0,0,0-8.056-.181.826.826,0,0,0-.346.115,2.088,2.088,0,0,0-.768,1.529c-.851,3.877-2.4,28.149-1.378,29.63a.857.857,0,0,0,.126.142c.259.237.652.594,5.1.408a27.538,27.538,0,0,0,4.977-.539.835.835,0,0,0,.231-.152c.753-.7,1.172-4.268,1.4-8.092,1.513,3.41,3.8,7.968,5.114,8.6a.9.9,0,0,0,.184.065,50.564,50.564,0,0,0,5.958.5,5.365,5.365,0,0,0,2.383-.347c.352-.244,1.079-.753,2.374-14.795.384-4.174,1.212-14.007.616-15.33Zm28.806,28.065c-.87,1.82-8.874,3.258-10.665,2.995a.854.854,0,0,1-.686-.584l-1.2-3.835c-.607.066-1.214.123-1.806.18-.989.1-1.935.186-2.725.295l-.508,3.111a.853.853,0,0,1-.252.477c-.377.354-1.655.531-3.806.531q-1.228,0-2.835-.077c-3.753-.182-4.054-.531-4.275-.782-.359-.387-.874-.943,2.518-15.343,1-4.234,3.4-14.164,4.147-14.871,1.183-.95,11.234-1.213,12.562-.377a.851.851,0,0,1,.246.237c.942,1.376,8.015,22.632,9.332,27.461a.855.855,0,0,1-.047.582ZM94.791,42.2,93.264,50.68l.52-.032c.889-.056,1.943-.121,2.758-.242L94.791,42.2Zm32.9,5.216c5.066-1.007,10.666-4.475,12.326-10.249a7.648,7.648,0,0,0-.964-6.612c-1.791-2.636-5.219-4.331-9.648-4.78-3.31-.331-10.25.043-13.583,1.387a.851.851,0,0,0-.5.557c-.817,2.957.891,26.035,1.474,29.376a.838.838,0,0,0,.218.436,6.336,6.336,0,0,0,3.374.539c3.143,0,7.383-.559,8.056-1.181a.837.837,0,0,0,.267-.649c-.023-.644-.177-1.781-.371-3.221-.231-1.677-.506-3.722-.658-5.6h.006ZM127,36.376a2.406,2.406,0,0,1,2.45.55,2.379,2.379,0,0,1,.616,2.424A4.329,4.329,0,0,1,127.29,42.2C127.172,40.1,127.037,37.529,127,36.376Zm31-8.764c-1.568-.427-9.178-1.584-11.3-.715-.429.177-1.574.645-6.79,14.554-.519,1.391-5.089,13.635-4.826,15.121a.847.847,0,0,0,.266.479c.6.54,7.706,1.594,10.522,1.255a.842.842,0,0,0,.711-.61c.348-1.265,1.011-3.148,1.333-4.052a22.173,22.173,0,0,1,2.758.154c.657.063,1.333.133,2,.154l.893,4.83a.837.837,0,0,0,.72.682,10.526,10.526,0,0,0,1.258.063,37.984,37.984,0,0,0,9.311-1.341.845.845,0,0,0,.543-.872c-.027-.265-5.118-28.108-7.124-29.571a.838.838,0,0,0-.275-.132Zm-5.7,22.572c-1.035.047-2.267.079-3.232.093L151.39,42.8Zm34.083-3.245c1.816-1.345,5.511-4.713,5.153-9.645-.479-6.626-6.54-10.232-12.337-10.861-3.732-.407-11.231.415-12.576,1.194a.837.837,0,0,0-.412.633c-.471,4.276-.079,24.115.726,29.037a.837.837,0,0,0,.431.6c1.232.663,9.4.686,10.609-.172a.835.835,0,0,0,.354-.751l-.311-3.842c1.481,1.726,3.272,3.452,4.7,4.831.6.58,1.12,1.085,1.507,1.482a.846.846,0,0,0,.472.244,1.142,1.142,0,0,0,.161.012,2.82,2.82,0,0,0,1.554-.766c1.294-.987,5.459-4.828,5.6-6.118a.833.833,0,0,0-.013-.265c-.179-.86-3.292-3.639-5.617-5.618Zm-8.739-1.27-.121-7.22c3.691-.672,4.363,6.282.121,7.221v0Zm40.654,8.576c-.146.193-3.562,4.752-4.916,4.94a.807.807,0,0,1-.118.008.846.846,0,0,1-.544-.2,80.716,80.716,0,0,1-7.7-7.613l.069,1.4c.088,1.8.173,3.507.154,4.289a.853.853,0,0,1-.543.762c-1.033.4-8.909,1.187-10.2.589a.843.843,0,0,1-.483-.654,230.53,230.53,0,0,1-.8-28.945.835.835,0,0,1,.279-.576c1.153-1.04,10.506-.451,11.18-.05a.839.839,0,0,1,.4.831c-.155,1.208-.281,4.168-.358,6.409,2.612-3.5,5.791-7.018,5.952-7.2a.845.845,0,0,1,.724-.272c1.458.166,7.17,5,7.9,6.43a.844.844,0,0,1,.057.611c-.274.961-5.478,6.639-7.347,8.63,1.626,1.436,5.786,5.152,7.621,7.146a.835.835,0,0,1,.21.439c.054.308.127.774-1.546,3.016Z" fill="#2b2e34"/>
  </g>
</svg>
