<svg xmlns="http://www.w3.org/2000/svg" width="53.229" height="88.39" viewBox="0 0 53.229 88.39">
  <g id="Zeus-Street-Greek-logo" transform="translate(-1.691 -1)">
    <path id="Path_687" data-name="Path 687" d="M54.92,1H1.691V24.883l19.772.094L1.691,58.94H32.635L17.863,89.39,50.451,45.195H30.265L54.92,1.167Z" transform="translate(0)" fill="#2b2e34"/>
    <g id="Group_835" data-name="Group 835" transform="translate(9.73 5.867)">
      <path id="Path_688" data-name="Path 688" d="M44.077,13.777c-.112,2.133-.178,4.271-.361,6.4a5.809,5.809,0,0,1-.671,2.029,1.8,1.8,0,0,1-2.393.321,2.088,2.088,0,0,1-.788-1.692c-.085-1.982-.115-3.966-.152-5.949-.032-1.67-.032-3.34-.065-5.009-.019-.906.495-1.278,1.362-.963.347.126.366.4.362.7-.015,1.173-.042,2.347-.047,3.519-.005.827.031,1.655.025,2.482-.007.977-.058,1.953-.054,2.93,0,.675.053,1.35.1,2.024a2.935,2.935,0,0,0,.155.791,1.77,1.77,0,0,0,.345.434c.153-.15.4-.276.443-.451a11.708,11.708,0,0,0,.37-2.08c.086-1.606.107-3.217.135-4.827.03-1.7.04-3.4.052-5.1,0-.533.117-.494.708-.576.383-.053.41.257.41.548q0,2.235,0,4.47Z" transform="translate(-23.722 -8.724)" fill="#fff" fill-rule="evenodd"/>
      <path id="Path_689" data-name="Path 689" d="M55.206,13.083c.036.54.076,1.08.106,1.621A4.313,4.313,0,0,0,56.5,17.413a4.444,4.444,0,0,1,1.215,2.517,2.645,2.645,0,0,1-.852,2.378,1.85,1.85,0,0,1-2.959-.54,5.361,5.361,0,0,1-.529-3.151c.02-.575.261-.727.837-.636.134.021.268.04.4.066a.445.445,0,0,1,.411.523,10.06,10.06,0,0,0,.112,1.887,2.188,2.188,0,0,0,.54.936c.225.259.52.169.673-.115a1.658,1.658,0,0,0,.138-1.635,21.313,21.313,0,0,0-1.635-2.616,7.327,7.327,0,0,1-1.4-5.588,3.562,3.562,0,0,1,1.1-2.307,1.754,1.754,0,0,1,1.592-.379,4.1,4.1,0,0,1,1.479.5,1.539,1.539,0,0,1,.6.95,17.546,17.546,0,0,1,.169,2.191c.022.408-.289.378-.562.4-.329.025-.4-.165-.436-.44-.082-.638-.188-1.273-.278-1.912-.084-.573-.549-.549-.956-.626s-.548.214-.6.51c-.164.912-.289,1.831-.43,2.748Z" transform="translate(-28.778 -8.709)" fill="#fff" fill-rule="evenodd"/>
      <path id="Path_690" data-name="Path 690" d="M16.428,21.831c.68,0,1.34.02,2-.008.4-.017.434.215.444.51a.394.394,0,0,1-.438.453c-.9.014-1.8.013-2.7.018-.075,0-.151,0-.226,0-.863-.045-1.217-.484-1.044-1.335a7.239,7.239,0,0,1,.318-1.079,37.788,37.788,0,0,0,1.3-5.239q.5-2.267,1-4.534c.048-.218.1-.436.157-.691-.658,0-1.281.018-1.9-.009a.875.875,0,0,1-.617-.22c-.244-.365-.05-.706.4-.715,1.112-.021,2.224-.006,3.337-.008.426,0,.516.257.443.6-.168.775-.386,1.539-.528,2.32-.282,1.565-.491,3.145-.8,4.706-.326,1.667-.724,3.317-1.091,4.974C16.468,21.645,16.452,21.717,16.428,21.831Z" transform="translate(-14.423 -8.804)" fill="#fff" fill-rule="evenodd"/>
      <path id="Path_691" data-name="Path 691" d="M29.049,21.849h2.338a1.8,1.8,0,0,1-.014.568c-.052.145-.219.349-.342.352-.992.035-1.986.048-2.977.019a.657.657,0,0,1-.465-.378,3.412,3.412,0,0,1-.16-1.063q0-5.933.035-11.864c0-.571.092-.631.665-.633.918,0,1.836,0,2.753-.025.343-.008.494.122.506.467s-.109.484-.467.474a14.566,14.566,0,0,0-1.532.046c-.116.009-.313.16-.314.247-.018,1.743-.013,3.485-.013,5.3h1.28c.9,0,.914.013.811.969h-2.1C29.049,18.2,29.049,20.01,29.049,21.849Z" transform="translate(-19.218 -8.752)" fill="#fff" fill-rule="evenodd"/>
      <path id="Path_692" data-name="Path 692" d="M68.512,10.941c-.151-.262-.262-.451-.372-.64l-.091.015c0,.29-.01.581,0,.871.016.33-.14.383-.433.295V9.337c.724-.2.635.5.94.782.3-.26.194-.994.917-.786V11.5l-.427.019V10.163C68.85,10.454,68.7,10.675,68.512,10.941Z" transform="translate(-34.034 -8.925)" fill="#fff" fill-rule="evenodd"/>
      <path id="Path_693" data-name="Path 693" d="M64.769,11.486V9.833l-.474-.079V9.34h1.391c.072.407.072.407-.452.462,0,.442-.025.89.008,1.334C65.267,11.483,65.185,11.628,64.769,11.486Z" transform="translate(-32.808 -8.941)" fill="#fff" fill-rule="evenodd"/>
    </g>
  </g>
</svg>
