<svg xmlns="http://www.w3.org/2000/svg" width="54.809" height="94.502"><g data-name="Group 733"><path data-name="Path 673" d="M21.352 0C2.086 5.835 13.56 24.027 13.56 24.027S27.193 19.268 21.352 0z" fill="#2b2e34"/></g><g data-name="Group 734"><path data-name="Path 674" d="M19.386 47.582v-.008c.566-.253 14.031-6.446 9.426-21.656 0 0-13.9.993-11.231 15.962-2.335-5.538-7.365-13.346-17.535-15.028-1.16 29.563 19.34 20.73 19.34 20.73z" fill="#2b2e34"/></g><g data-name="Group 735"><path data-name="Path 675" d="M31.736 70.238c.241-.19 12.568-9.933 3.306-24.856 0 0-13.73 4.741-7.828 18.971-4.171-4.317-11.144-9.218-20.617-7.879C14.3 84.905 31.441 70.492 31.736 70.238z" fill="#2b2e34"/></g><g data-name="Group 736"><path data-name="Path 676" d="M46.991 61.152s-11.399 9.34-.542 20.74c-5.958-2.127-15.2-3.668-23.641 2.323 20.839 22.742 29.959.677 29.959.677v-.006c1.879-4.084 5.389-15.048-5.776-23.734z" fill="#2b2e34"/></g></svg>