<svg xmlns="http://www.w3.org/2000/svg" width="54.811" height="94.502"><g data-name="Group 738"><path data-name="Path 677" d="M33.455 0c19.266 5.835 7.792 24.027 7.792 24.027S27.616 19.268 33.455 0z" fill="#2b2e34"/></g><g data-name="Group 739"><path data-name="Path 678" d="M35.42 47.582v-.008c-.566-.253-14.033-6.446-9.428-21.656 0 0 13.9.993 11.233 15.962 2.335-5.538 7.365-13.346 17.535-15.028 1.169 29.563-19.34 20.73-19.34 20.73z" fill="#2b2e34"/></g><g data-name="Group 740"><path data-name="Path 679" d="M23.073 70.238c-.241-.19-12.568-9.933-3.306-24.856 0 0 13.73 4.741 7.829 18.971 4.169-4.317 11.14-9.218 20.617-7.879-7.703 28.431-24.844 14.018-25.14 13.764z" fill="#2b2e34"/></g><g data-name="Group 741"><path data-name="Path 680" d="M7.818 61.152s11.4 9.339.54 20.744c5.96-2.127 15.2-3.668 23.641 2.323-20.839 22.738-29.963.673-29.963.673v-.006C.163 80.802-3.349 69.838 7.818 61.152z" fill="#2b2e34"/></g></svg>