<svg xmlns="http://www.w3.org/2000/svg" width="14.093" height="22.759"><g data-name="SEM ICON" fill="none" stroke="#000" stroke-miterlimit="10"><path data-name="Path 288" d="M13.537 2.246c.579.936-4.368 1.738-6.508 1.738-3.61 0-6.508-.8-6.508-1.738S3.998.418 7.029.508s5.928.713 6.508 1.738z"/><path data-name="Path 289" d="M13.537 20.52c.579.981-4.368 1.738-6.508 1.738-3.61 0-6.508-.758-6.508-1.738s3.477-1.828 6.508-1.694 5.928.718 6.508 1.694z"/><path data-name="Path 290" d="M13.537 20.7s.446-3.165-6.463-9.093S.525 2.246.525 2.246"/><path data-name="Path 291" d="M13.537 2.246s.4 3.477-6.508 9.36S.521 20.699.521 20.699"/></g></svg>