<svg xmlns="http://www.w3.org/2000/svg" width="23.091" height="24.116"><g data-name="SMM ICON" fill="none" stroke="#000" stroke-linecap="square" stroke-miterlimit="10"><path data-name="Path 279" d="M7.412 22.92l1.114-3.343a8.268 8.268 0 01-4.014-6.953c7.176-1.649 9.271-6.82 9.271-6.82s1.248 4.457 4.547 4.368c0 0 .49.758-.357 4.056a10.617 10.617 0 01-3.7 5.349l1.114 3.343"/><path data-name="Path 280" d="M22.564 23.589l-.134-2.407a6.062 6.062 0 00-.669-2.63l-.312-.535a11.99 11.99 0 01-1.382-5.572V9.281S20.467.5 11.286.5C2.951.5 2.951 8.835 2.951 8.835l-.178 3.789a11.723 11.723 0 01-.936 4.279l-.357.891a13.417 13.417 0 00-.981 4.948v.713"/></g></svg>