<svg xmlns="http://www.w3.org/2000/svg" viewBox="0 0 78.91 25.307"><polygon points="0 0.001 0 4.935 5.569 4.935 5.569 24.673 11.279 24.673 11.279 4.935 16.883 4.935 16.883 0.001 0 0.001" fill="#fff"/><path d="M32.6364,8.9164a4.01811,4.01811,0,0,0-3.948-4.265h-3.912v8.531h3.912a4.0184,4.0184,0,0,0,3.948-4.266M19.0664.0004h10.362a8.72276,8.72276,0,0,1,8.988,8.916,8.64239,8.64239,0,0,1-4.898,7.967l4.933,7.789h-6.626l-4.37-6.837h-2.679v6.837h-5.71Z" fill="#fff"/><path d="M41.023.0004h5.71v16.211a3.903,3.903,0,1,0,7.789,0V.0004h5.71v16.249c0,5.073-3.701,9.057-9.622,9.057-5.886,0-9.587-3.984-9.587-9.057Z" fill="#fff"/><polygon points="63.86 0.001 63.86 24.673 78.91 24.673 78.91 20.089 69.571 20.089 69.571 14.664 78.91 14.664 78.91 10.186 69.571 10.186 69.571 4.582 78.91 4.582 78.91 0.001 63.86 0.001" fill="#fff"/></svg>